<?xml version="1.0" encoding="utf-8"?>
<svg xmlns="http://www.w3.org/2000/svg" fill="none" height="609" viewBox="0 0 1057 609" width="1057">
  <radialGradient cx="0" cy="0" gradientTransform="matrix(1967.09 0 0 1965.47 -247.285 824.772)" gradientUnits="userSpaceOnUse" id="a" r="1">
    <stop offset="0" stop-color="#e9bde9"/>
    <stop offset=".15" stop-color="#b2a9ed"/>
    <stop offset=".31" stop-color="#7c95f2"/>
    <stop offset=".47" stop-color="#5085f6"/>
    <stop offset=".62" stop-color="#2d79f9"/>
    <stop offset=".76" stop-color="#1570fb"/>
    <stop offset=".89" stop-color="#066afc"/>
    <stop offset="1" stop-color="#0169fd"/>
  </radialGradient>
  <linearGradient gradientUnits="userSpaceOnUse" id="b" x1="754.973" x2="-1134.32" y1="181.711" y2="2072.56">
    <stop offset="0" stop-color="#c4e2ff"/>
    <stop offset=".11" stop-color="#b5d9ff"/>
    <stop offset=".33" stop-color="#90c2ff"/>
    <stop offset=".63" stop-color="#539eff"/>
    <stop offset="1" stop-color="#006cff"/>
  </linearGradient>
  <linearGradient gradientUnits="userSpaceOnUse" id="c" x1="583.215" x2="-373.737" y1="36.109" y2="831.986">
    <stop offset="0" stop-color="#c4e2ff"/>
    <stop offset="1" stop-color="#006cff"/>
  </linearGradient>
  <clipPath id="d">
    <path d="m0 0h1057v608.576h-1057z"/>
  </clipPath>
  <mask height="607" id="e" maskUnits="userSpaceOnUse" width="1057" x="1" y="1">
    <path d="m1057 1.26785h-1055.73047v606.04015h1055.73047z" fill="#fff"/>
  </mask>
  <g clip-path="url(#d)">
    <path d="m1055.73 0h-1055.73v608.576h1055.73z" fill="url(#a)"/>
    <path d="m0 382.896c4.49193-6.847 6.52218-11.107 13.425-18.004 69.8661-69.936 136.535-3.398 206.401-73.308 69.866-69.936 3.4-136.651 73.266-206.5609 69.866-69.9355 136.535-3.3978 206.401-73.308 5.126-5.14752 7.004-6.56753 10.76-11.6897094h-510.253v382.8956094z" fill="#006cff"/>
    <path d="m441.58 608.576h614.15v-608.576h-121.611c-18.805 7.17612-37.712 18.8405-56.796 37.9346-95.574 95.6474-4.644 186.8834-100.218 282.5314-95.575 95.648-186.758 4.64-282.332 100.288-66.973 67.019-41.062 122.07-53.218 187.822" fill="#006cff"/>
    <path d="m694.98 333.855s-66.339 36.742-64.537 157.697c0 3.575 4.492 6.263 7.182 4.488 23.297-13.439 95.93-64.509 57.38-162.185z" fill="#002f9a"/>
    <path d="m569.484 268.433s-75.296-7.176-143.437 92.3c-1.802 2.688 0 7.177 3.579 8.064 26.9 1.8 115.648 1.8 139.833-100.364z" fill="#002f9a"/>
    <path d="m392.878 482.55c-9.872-24.191-38.549-69.885-116.536-98.564-4.492-1.8-8.959 1.8-8.07 6.263 3.578 21.503 17.028 71.685 66.338 96.764-25.099 6.263-54.69 20.615-87.859 47.494-3.578 2.688-2.69 8.951 1.802 9.864 26.901 9.864 109.354 31.367 160.466-57.358 0-.888-6.269-3.576-16.141-4.488z" fill="#006cff"/>
    <path d="m334.609 487.064s98.62-16.128 176.607-156.81c30.479-54.67 68.14-104.827 114.735-145.171 34.971-31.367 77.987-60.046 124.606-73.485 4.492-.888 8.959 1.8 8.959 6.263.888 10.752 1.802 29.567 1.802 53.758-7.182 176.512-147.016 322.57-322.709 333.322-35.859 1.8-72.607-2.688-103.974-17.928z" fill="url(#b)"/>
    <path d="m668.079 244.242s-18.83 162.185-170.312 205.191c0-.887 32.281-127.243 170.312-205.191z" fill="#006cff"/>
    <path d="m338.544 193.02s37.509-20.768 36.494-89.207c0-2.029-2.538-3.55-4.06-2.536-13.172 7.607-54.259 36.489-32.459 91.718z" fill="#002f9a"/>
    <path d="m409.526 230.016s42.585 4.058 81.109-52.21c1.015-1.522 0-4.057-2.03-4.565-15.202-1.014-65.4-1.014-79.104 56.75z" fill="#002f9a"/>
    <path d="m509.414 108.377c5.584 13.693 21.8 39.532 65.908 55.736 2.537 1.014 5.075-1.014 4.568-3.55-2.031-12.172-9.644-40.547-37.509-54.721 14.186-3.55 30.936-11.6647 49.69-26.8537 2.03-1.5215 1.523-5.0715-1.015-5.5786-15.202-5.5787-61.847-17.7248-90.752 32.4323 0 .507 3.553 2.028 9.136 2.535z" fill="#006cff"/>
    <path d="m542.381 106.349s-55.781 9.128-99.888 88.7c-17.232 30.91-38.524 59.285-64.892 82.107-19.77 17.75-44.107 33.953-70.475 41.56-2.538.508-5.076-1.014-5.076-3.55-.507-6.085-1.015-16.735-1.015-30.403 4.061-99.832 83.139-182.446 182.52-188.5318 20.277-1.0143 41.062 1.5215 58.801 10.1428z" fill="url(#c)"/>
    <path d="m353.771 243.684s10.658-91.717 96.335-116.06c0 .507-18.247 71.964-96.335 116.06z" fill="#006cff"/>
    <g fill="#c4e2ff">
      <path d="m274.973 313.949c3.349 0 6.065-2.713 6.065-6.06s-2.716-6.061-6.065-6.061c-3.35 0-6.066 2.714-6.066 6.061s2.716 6.06 6.066 6.06z" opacity=".2"/>
      <path d="m258.247 335.655c5.886 0 10.659-4.768 10.659-10.65s-4.773-10.65-10.659-10.65c-5.887 0-10.659 4.768-10.659 10.65s4.772 10.65 10.659 10.65z" opacity=".6"/>
      <path d="m797.355 121.208c6.896 0 12.486-5.585 12.486-12.476 0-6.89-5.59-12.4755-12.486-12.4755s-12.486 5.5855-12.486 12.4755c0 6.891 5.59 12.476 12.486 12.476z" opacity=".2"/>
      <path d="m779.235 81.5746c12.138 0 21.978-9.8315 21.978-21.9594s-9.84-21.9594-21.978-21.9594-21.977 9.8315-21.977 21.9594 9.839 21.9594 21.977 21.9594z" opacity=".6"/>
    </g>
    <g mask="url(#e)" stroke="#4895ff" stroke-miterlimit="10" stroke-width="2.00189">
      <path d="m425.11-115.401c-69.866 69.9353-136.535 3.398-206.401 73.3079-69.866 69.9355-3.4 136.6252-73.266 206.5611-69.8664 69.935-136.53484 3.398-206.4009 73.308-69.8661 69.935-3.4007 136.65-73.2671 206.56"/>
      <path d="m808.396 689.035c95.575-95.648 4.645-186.884 100.219-282.532 95.575-95.648 186.755-4.64 282.335-100.288"/>
    </g>
  </g>
</svg>