<svg xmlns="http://www.w3.org/2000/svg" style="display: none;">
  

	<symbol 
		id="google"
		viewBox="0 0 256 262" 
		preserveAspectRatio="xMidYMid"
    fill="none"
	>
		<path fill="#4285F4" d="M255.878 133.451c0-10.734-.871-18.567-2.756-26.69H130.55v48.448h71.947c-1.45 12.04-9.283 30.172-26.69 42.356l-.244 1.622 38.755 30.023 2.685.268c24.659-22.774 38.875-56.282 38.875-96.027"></path>
		<path fill="#34A853" d="M130.55 261.1c35.248 0 64.839-11.605 86.453-31.622l-41.196-31.913c-11.024 7.688-25.82 13.055-45.257 13.055-34.523 0-63.824-22.773-74.269-54.25l-1.531.13-40.298 31.187-.527 1.465C35.393 231.798 79.49 261.1 130.55 261.1"></path>
		<path fill="#FBBC05" d="M56.281 156.37c-2.756-8.123-4.351-16.827-4.351-25.82 0-8.994 1.595-17.697 4.206-25.82l-.073-1.73L15.26 71.312l-1.335.635C5.077 89.644 0 109.517 0 130.55s5.077 40.905 13.925 58.602l42.356-32.782"></path>
		<path fill="#EB4335" d="M130.55 50.479c24.514 0 41.05 10.589 50.479 19.438l36.844-35.974C195.245 12.91 165.798 0 130.55 0 79.49 0 35.393 29.301 13.925 71.947l42.211 32.783c10.59-31.477 39.891-54.251 74.414-54.251"></path>
	</symbol>

	<symbol
    id="icon-digital-ocean"
    viewBox="0 0 90 90"
  >
    <circle cx="45" cy="45" r="36.25" fill="none" stroke="currentColor" stroke-width="17.5" stroke-dasharray="170.824100538945 56.941366846315" stroke-dashoffset="113.88273369263"></circle>
    <rect x="3.25" y="61.5" width="11" height="11" fill="currentColor"></rect>
    <rect x="14.25" y="72.5" width="13.5" height="13.5" fill="currentColor"></rect>
    <rect x="27.5" y="55.25" width="17.25" height="17.25" fill="currentColor"></rect>
  </symbol>

  <symbol
    viewBox="0 0 32 32"
    id="icon--kubernetes"
  >
    <path
      fill-rule="evenodd"
      d="M16 4L6.57143 8.28571L4 19.4286L10.8571 28H21.1429L28 19.4286L25.4286 8.28571L16 4ZM15.4919 8V9.99036C13.9282 10.1136 12.5335 10.8391 11.5228 11.9381L10.0112 10.6805L9.37162 11.4493L10.9065 12.7262C10.2433 13.7296 9.85669 14.9396 9.85669 16.2389C9.85669 16.5651 9.88106 16.8857 9.92805 17.1987L7.98022 17.6292L8.19601 18.6056L10.1536 18.173C10.6253 19.6645 11.6279 20.9142 12.9361 21.6823L12.0355 23.6159L12.942 24.0381L13.8376 22.1154C14.5002 22.368 15.2178 22.5062 15.9679 22.5062C16.7385 22.5062 17.4748 22.3603 18.1524 22.0944L19.0577 24.0381L19.9642 23.6159L19.0497 21.6526C20.3373 20.8799 21.3224 19.6381 21.7864 18.1598L23.8038 18.6056L24.0196 17.6292L22.0098 17.185C22.0555 16.8763 22.0791 16.5604 22.0791 16.2389C22.0791 14.9534 21.7006 13.7553 21.0503 12.7581L22.6206 11.4489L21.9802 10.6808L20.4386 11.9661C19.4362 10.8627 18.0494 10.1297 16.4919 9.99434V8H15.4919ZM12.2926 12.5785C13.1201 11.697 14.2428 11.1135 15.4919 10.9943V12.4809C14.6915 12.5965 13.9761 12.9733 13.4273 13.5225L12.2926 12.5785ZM12.8193 14.3175L11.6803 13.3699C11.1598 14.1939 10.8567 15.1784 10.8567 16.2389C10.8567 16.4914 10.8739 16.7396 10.9071 16.9824L12.333 16.6672C12.3175 16.5266 12.3096 16.3836 12.3096 16.2389C12.3096 15.5398 12.495 14.8824 12.8193 14.3175ZM12.5703 17.6389L11.1341 17.9563C11.5317 19.1456 12.3306 20.1393 13.3611 20.77L13.9905 19.4187C13.3536 18.992 12.854 18.3703 12.5703 17.6389ZM14.8897 19.8565L14.2616 21.2051C14.7959 21.4001 15.3704 21.5062 15.9679 21.5062C16.5858 21.5062 17.1791 21.3928 17.7287 21.1848L17.1142 19.8655C16.7677 19.9753 16.399 20.0345 16.016 20.0345C15.6226 20.0345 15.2444 19.9721 14.8897 19.8565ZM18.0168 19.435L18.6243 20.7393C19.6346 20.1049 20.4164 19.1191 20.8061 17.9431L19.4591 17.6455C19.1713 18.3834 18.6636 19.0092 18.0168 19.435ZM19.6982 16.6742L21.0306 16.9686C21.0626 16.7303 21.0791 16.4867 21.0791 16.2389C21.0791 15.1927 20.7841 14.2204 20.2764 13.4033L19.202 14.2991C19.5329 14.8681 19.7224 15.5322 19.7224 16.2389C19.7224 16.386 19.7142 16.5313 19.6982 16.6742ZM18.5897 13.5076L19.6698 12.6071C18.8504 11.721 17.7352 11.1299 16.4919 10.9991V12.4742C17.3045 12.5806 18.0319 12.9556 18.5897 13.5076ZM13.3096 16.2389C13.3096 14.682 14.5341 13.4434 16.016 13.4434C17.4979 13.4434 18.7224 14.682 18.7224 16.2389C18.7224 17.7959 17.4979 19.0345 16.016 19.0345C14.5341 19.0345 13.3096 17.7959 13.3096 16.2389Z"
      fill="currentColor"
    ></path>
  </symbol>

  <symbol
    viewBox="0 0 32 32"
    id="icon--virtual-machine"
  >
    <path
      d="M8.22182 10.9145C3.92606 14.823 3.92606 21.16 8.22183 25.0686C12.5176 28.9771 19.4824 28.9771 23.7782 25.0686C28.0739 21.16 28.0739 14.823 23.7782 10.9145L16.305 4.11496C16.1366 3.96168 15.8634 3.96168 15.695 4.11496L8.22182 10.9145Z"
      fill="currentColor"
    ></path>
  </symbol>
  <symbol
    id="icon--AI-ML"
    viewBox="0 0 32 32"
  >
    <path d="M16.0178 24.3092V29.3437C24.521 29.3437 31.1381 21.1278 28.3553 12.2015C27.1184 8.30982 24.0263 5.19025 20.1303 3.98567C11.225 1.20586 3 7.84651 3 16.3404H8.04013C8.04013 11.0279 13.3276 6.88903 18.9553 8.92755C21.027 9.66883 22.6967 11.3367 23.4388 13.4061C25.4796 19.0275 21.3671 24.3092 16.0178 24.3092ZM14.1637 22.5426C13.8421 23.0222 13.6275 23.6738 13.3866 24.9014C13.3274 25.2033 13.3224 25.2202 13.3109 25.1585C13.0548 23.7808 12.8231 23.0454 12.4869 22.5431C11.9982 21.8131 11.2922 21.4692 9.57527 21.1249C9.34915 21.0796 9.16248 21.0408 9.16044 21.0388C9.15841 21.0367 9.25418 21.017 9.37326 20.9949C9.64485 20.9445 10.1213 20.8404 10.3876 20.7734C11.0101 20.6166 11.4795 20.4281 11.8378 20.191C12.0546 20.0475 12.3283 19.775 12.4709 19.5605C12.8275 19.0243 13.0697 18.2575 13.3178 16.879C13.3207 16.8628 13.3413 16.9455 13.3636 17.0627C13.7214 18.9439 14.0725 19.6966 14.8278 20.2022C15.3309 20.539 16.0707 20.7721 17.4431 21.0263C17.506 21.0379 17.4972 21.0409 17.2595 21.0872C15.9785 21.3368 15.3128 21.5535 14.8273 21.879C14.5411 22.0709 14.3556 22.2564 14.1637 22.5426ZM9.93968 27.355C9.69594 27.7186 9.53321 28.2125 9.35061 29.1431C9.3057 29.372 9.30192 29.3848 9.29322 29.338C9.09908 28.2936 8.92344 27.7361 8.66856 27.3554C8.29813 26.802 7.76289 26.5413 6.46134 26.2802C6.28993 26.2459 6.14687 26.2149 6.14687 26.2149C6.14687 26.2149 6.21793 26.1984 6.3082 26.1817C6.51408 26.1435 6.87524 26.0646 7.07711 26.0138C7.54902 25.8949 7.90486 25.752 8.1765 25.5723C8.34088 25.4635 8.54832 25.2569 8.65648 25.0943C8.92675 24.6879 9.11036 24.1065 9.29846 23.0615C9.30067 23.0493 9.3163 23.1119 9.33319 23.2008C9.60444 24.6269 9.87057 25.1975 10.4431 25.5808C10.8246 25.8361 11.3853 26.0128 12.4258 26.2055C12.4735 26.2143 12.4667 26.2165 12.2865 26.2517C11.3155 26.4409 10.8109 26.6051 10.4428 26.8519C10.2258 26.9974 10.0852 27.138 9.93968 27.355ZM5.90659 23.9749C6.03928 23.2988 6.15752 22.9398 6.33464 22.6756C6.44035 22.518 6.54254 22.4158 6.7002 22.3101C6.96767 22.1308 7.33436 22.0114 8.03996 21.8739C8.1709 21.8484 8.17579 21.8468 8.14113 21.8403C7.38512 21.7003 6.97764 21.5719 6.70047 21.3864C6.28441 21.1079 6.09103 20.6933 5.89393 19.657C5.88165 19.5924 5.8703 19.5469 5.8687 19.5558C5.73201 20.3151 5.59859 20.7376 5.4022 21.0329C5.32361 21.1511 5.17287 21.3012 5.05343 21.3802C4.85604 21.5108 4.59747 21.6147 4.25456 21.701C4.10787 21.738 3.84544 21.7953 3.69583 21.823C3.63023 21.8352 3.57748 21.8461 3.5786 21.8472C3.57972 21.8483 3.68255 21.8697 3.80711 21.8947C4.75287 22.0843 5.14181 22.2738 5.41098 22.6759C5.59618 22.9526 5.72381 23.3577 5.86488 24.1166C5.8712 24.1506 5.87396 24.1413 5.90659 23.9749Z" fill="currentColor"></path>
  </symbol>

  <symbol
    id="icon--app-platform"
    viewBox="0 0 32 32"
  >
    <path fill-rule="evenodd" d="M13 7H17L18 8H12L13 7ZM30 10V19L27 18H26L24 21L20 21V22H23L24 23L23 24H7L6 23L7 22L10 22V21H5L4 18L2 18V17H26V16L2 16V15L4 15V14L8 11H11V9H19V11H22L26 13H27L30 10ZM14 13C14 13.5523 13.5523 14 13 14C12.4477 14 12 13.5523 12 13C12 12.4477 12.4477 12 13 12C13.5523 12 14 12.4477 14 13ZM17 14C17.5523 14 18 13.5523 18 13C18 12.4477 17.5523 12 17 12C16.4477 12 16 12.4477 16 13C16 13.5523 16.4477 14 17 14ZM12 21V22H18V21H12Z" fill="currentColor"></path>
  </symbol>

  <symbol 
    id="icon--managed-database"
    viewBox="0 0 32 32"
  >
    <path fill-rule="evenodd" clip-rule="evenodd" d="M4.85718 7.74309C4.85718 7.47523 4.99025 7.10714 5.47412 6.65438C5.95799 6.20161 6.72181 5.74366 7.75349 5.33756C9.80995 4.52535 12.7253 4 16 4C19.2748 4 22.1901 4.52535 24.2466 5.33756C25.2783 5.74366 26.0404 6.20161 26.5277 6.65438C27.0116 7.10714 27.1429 7.47523 27.1429 7.74309C27.1429 8.01095 27.0098 8.37903 26.526 8.8318C26.0421 9.28283 25.2783 9.74078 24.2466 10.1486C22.1901 10.9608 19.2748 11.4862 16 11.4862C12.7253 11.4862 9.80995 10.9608 7.75349 10.1486C6.72181 9.74078 5.95972 9.28456 5.47239 8.83007C4.98852 8.37903 4.85718 8.01094 4.85718 7.74136V7.74309ZM27.2535 11.0092C26.5619 11.4756 25.8192 11.8612 25.0398 12.1584C22.6723 13.0916 19.4753 13.6446 16 13.6446C12.5231 13.6446 9.3278 13.0916 6.96029 12.1584C6.18082 11.8607 5.43806 11.4745 4.74658 11.0075V16.4994C4.84336 16.6463 4.97988 16.807 5.1717 16.9816C5.67285 17.4361 6.45914 17.8975 7.52193 18.3053C9.63713 19.1192 12.6354 19.6463 16 19.6463C19.3647 19.6463 22.3629 19.1192 24.4799 18.3053C25.5409 17.8957 26.3272 17.4361 26.8284 16.9816C27.0185 16.807 27.1567 16.6463 27.2535 16.4977V11.0092ZM4.74658 23.1751V19.3474C5.33587 19.7154 6.01156 20.0386 6.74428 20.322C9.16709 21.2535 12.4384 21.8065 16 21.8065C19.5599 21.8065 22.833 21.2535 25.2558 20.3203C25.9508 20.0596 26.6197 19.7338 27.2535 19.3474V23.1768C27.2535 25.8381 22.2161 28 16 28C9.78402 28 4.74658 25.8381 4.74658 23.1751Z" fill="currentColor"></path>
  </symbol>

  <symbol 
    id="icon--storage"
    viewBox="0 0 32 32"
  >
    <path d="M4.559 9.7205L16 15.441L27.441 9.72048L16 4L4.559 9.7205ZM28 10.559L16.5 16.309V27.75L28 22V10.559ZM15.5 27.75V16.309L4 10.559V22L15.5 27.75ZM16 5C16.2761 5 16.5 5.22386 16.5 5.5V5.54435C16.5 5.8205 16.2761 6.04435 16 6.04435C15.7238 6.04435 15.5 5.8205 15.5 5.54435V5.5C15.5 5.22386 15.7238 5 16 5ZM16 7.70565C16.2761 7.70565 16.5 7.9295 16.5 8.20565V8.29435C16.5 8.5705 16.2761 8.79435 16 8.79435C15.7238 8.79435 15.5 8.5705 15.5 8.29435V8.20565C15.5 7.9295 15.7238 7.70565 16 7.70565ZM16 10.4556C16.2761 10.4556 16.5 10.6795 16.5 10.9556V11.0444C16.5 11.3205 16.2761 11.5444 16 11.5444C15.7238 11.5444 15.5 11.3205 15.5 11.0444V10.9556C15.5 10.6795 15.7238 10.4556 16 10.4556ZM16 13.2056C16.2761 13.2056 16.5 13.4295 16.5 13.7056V13.7944C16.5 14.0705 16.2761 14.2944 16 14.2944C15.7238 14.2944 15.5 14.0705 15.5 13.7944V13.7056C15.5 13.4295 15.7238 13.2056 16 13.2056ZM5.50502 21.2474C5.38153 21.0004 5.48164 20.7001 5.72863 20.5766L5.82386 20.529C6.07085 20.4055 6.37119 20.5056 6.49468 20.7526C6.61818 20.9996 6.51807 21.2999 6.27108 21.4234L6.17584 21.471C5.92885 21.5945 5.62851 21.4944 5.50502 21.2474ZM26.4947 21.2474C26.3712 21.4944 26.0709 21.5945 25.8239 21.471L25.7286 21.4234C25.4816 21.2999 25.3815 20.9996 25.505 20.7526C25.6285 20.5056 25.9289 20.4055 26.1758 20.529L26.2711 20.5766C26.5181 20.7001 26.6182 21.0004 26.4947 21.2474ZM7.50502 20.2474C7.38153 20.0004 7.48164 19.7001 7.72863 19.5766L7.82386 19.529C8.07085 19.4055 8.37119 19.5056 8.49468 19.7526C8.61818 19.9996 8.51807 20.2999 8.27108 20.4234L8.17584 20.471C7.92885 20.5945 7.62851 20.4944 7.50502 20.2474ZM24.4947 20.2474C24.3712 20.4944 24.0709 20.5945 23.8239 20.471L23.7286 20.4234C23.4816 20.2999 23.3815 19.9996 23.505 19.7526C23.6285 19.5056 23.9289 19.4055 24.1758 19.529L24.2711 19.5766C24.5181 19.7001 24.6182 20.0004 24.4947 20.2474ZM9.50502 19.2474C9.38153 19.0004 9.48164 18.7001 9.72863 18.5766L9.82386 18.529C10.0709 18.4055 10.3712 18.5056 10.4947 18.7526C10.6182 18.9996 10.5181 19.2999 10.2711 19.4234L10.1758 19.471C9.92885 19.5945 9.62851 19.4944 9.50502 19.2474ZM22.4947 19.2474C22.3712 19.4944 22.0709 19.5945 21.8239 19.471L21.7286 19.4234C21.4816 19.2999 21.3815 18.9996 21.505 18.7526C21.6285 18.5056 21.9289 18.4055 22.1758 18.529L22.2711 18.5766C22.5181 18.7001 22.6182 19.0004 22.4947 19.2474ZM11.505 18.2474C11.3815 18.0004 11.4816 17.7001 11.7286 17.5766L11.8239 17.529C12.0709 17.4055 12.3712 17.5056 12.4947 17.7526C12.6182 17.9996 12.5181 18.2999 12.2711 18.4234L12.1758 18.471C11.9289 18.5945 11.6285 18.4944 11.505 18.2474ZM20.4947 18.2474C20.3712 18.4944 20.0709 18.5945 19.8239 18.471L19.7286 18.4234C19.4816 18.2999 19.3815 17.9996 19.505 17.7526C19.6285 17.5056 19.9289 17.4055 20.1758 17.529L20.2711 17.5766C20.5181 17.7001 20.6182 18.0004 20.4947 18.2474ZM13.505 17.2474C13.3815 17.0004 13.4816 16.7001 13.7286 16.5766L13.8239 16.529C14.0709 16.4055 14.3712 16.5056 14.4947 16.7526C14.6182 16.9996 14.5181 17.2999 14.2711 17.4234L14.1758 17.471C13.9289 17.5945 13.6285 17.4944 13.505 17.2474ZM18.4947 17.2474C18.3712 17.4944 18.0709 17.5945 17.8239 17.471L17.7286 17.4234C17.4816 17.2999 17.3815 16.9996 17.505 16.7526C17.6285 16.5056 17.9289 16.4055 18.1758 16.529L18.2711 16.5766C18.5181 16.7001 18.6182 17.0004 18.4947 17.2474Z" fill="currentColor"></path>
  </symbol>

  <symbol 
    viewBox="0 0 24 24" 
    fill="none"
    id="icon--Twitter"
  >
   <path d="M14.0468 10.3155L22.0566 1.00003H20.1585L13.2036 9.08855L7.6488 1.00003H1.24194L9.64196 13.2313L1.24194 23H3.14011L10.4847 14.4583L16.351 23H22.7578L14.0464 10.3155H14.0468ZM11.447 13.3391L10.5959 12.1211L3.82405 2.42968H6.73952L12.2045 10.251L13.0556 11.4689L20.1594 21.6354H17.244L11.447 13.3395V13.3391Z" fill="currentColor"></path>
  </symbol>

  <symbol 
    viewBox="0 0 24 24" 
    fill="none"
    id="icon--Instagram"
  >
    <path d="M7.44432 1.07693C6.27391 1.13215 5.47464 1.31893 4.77592 1.59349C4.05277 1.87531 3.43984 2.2535 2.83 2.86554C2.22015 3.47758 1.84461 4.09094 1.56476 4.81518C1.29394 5.51545 1.11046 6.31537 1.05876 7.48643C1.00706 8.6575 0.995618 9.03392 1.00134 12.0211C1.00706 15.0083 1.02026 15.3827 1.07702 16.5562C1.1329 17.7264 1.31902 18.5254 1.59358 19.2244C1.87585 19.9475 2.25359 20.5602 2.86586 21.1703C3.47812 21.7803 4.09105 22.155 4.81706 22.4353C5.51666 22.7056 6.31681 22.89 7.48766 22.9413C8.65852 22.9925 9.03538 23.0044 12.0217 22.9987C15.008 22.993 15.384 22.9798 16.5573 22.9241C17.7305 22.8684 18.5254 22.681 19.2246 22.4078C19.9477 22.1248 20.5609 21.7478 21.1705 21.1353C21.7801 20.5228 22.1554 19.909 22.4351 19.1843C22.7061 18.4847 22.8902 17.6846 22.9411 16.5146C22.9923 15.3405 23.0044 14.9656 22.9987 11.9788C22.993 8.99212 22.9796 8.61768 22.9239 7.44463C22.8682 6.27159 22.6819 5.47497 22.4076 4.77558C22.1249 4.05244 21.7475 3.44018 21.1355 2.82968C20.5235 2.21918 19.9092 1.84407 19.1847 1.56511C18.4847 1.29429 17.685 1.10971 16.5141 1.05911C15.3433 1.00851 14.9664 0.995531 11.979 1.00125C8.9916 1.00697 8.6176 1.01973 7.44432 1.07693ZM7.5728 20.9624C6.50029 20.9157 5.91795 20.7375 5.52986 20.5884C5.01594 20.3904 4.64985 20.151 4.26309 19.768C3.87633 19.385 3.63872 19.0176 3.43808 18.5047C3.28738 18.1166 3.10588 17.535 3.05572 16.4625C3.00116 15.3033 2.98972 14.9552 2.98334 12.0184C2.97696 9.08166 2.98818 8.73406 3.039 7.57443C3.08476 6.50281 3.26406 5.91981 3.413 5.53195C3.611 5.01737 3.84949 4.65194 4.23339 4.2654C4.61729 3.87886 4.9836 3.64082 5.49686 3.44018C5.88451 3.28882 6.46619 3.10886 7.53826 3.05782C8.69834 3.00282 9.04594 2.99182 11.9823 2.98544C14.9187 2.97906 15.2672 2.99006 16.4277 3.0411C17.4993 3.08774 18.0825 3.26528 18.47 3.4151C18.9841 3.6131 19.35 3.85092 19.7365 4.23548C20.1231 4.62004 20.3613 4.98503 20.562 5.49939C20.7135 5.88593 20.8935 6.46739 20.9441 7.54011C20.9993 8.70018 21.0119 9.048 21.0171 11.9841C21.0224 14.9203 21.0121 15.269 20.9613 16.4281C20.9144 17.5006 20.7366 18.0832 20.5873 18.4717C20.3893 18.9854 20.1506 19.3517 19.7664 19.7381C19.3823 20.1244 19.0164 20.3624 18.503 20.5631C18.1158 20.7142 17.5334 20.8946 16.4622 20.9456C15.3021 21.0002 14.9545 21.0116 12.0171 21.018C9.0796 21.0244 8.7331 21.0125 7.57302 20.9624M16.5403 6.12089C16.5408 6.38198 16.6186 6.63708 16.764 6.85392C16.9095 7.07076 17.1159 7.2396 17.3573 7.33909C17.5987 7.43859 17.8642 7.46426 18.1202 7.41286C18.3762 7.36147 18.6111 7.23532 18.7954 7.05036C18.9797 6.8654 19.105 6.62995 19.1555 6.37378C19.2059 6.11761 19.1793 5.85223 19.0789 5.61121C18.9785 5.37018 18.8089 5.16434 18.5915 5.01971C18.3742 4.87508 18.1188 4.79816 17.8577 4.79868C17.5077 4.79938 17.1723 4.93907 16.9252 5.18702C16.6782 5.43496 16.5397 5.77088 16.5403 6.12089ZM6.35201 12.011C6.35817 15.1306 8.89172 17.6538 12.0107 17.6478C15.1297 17.6419 17.6546 15.1086 17.6487 11.989C17.6427 8.86936 15.1085 6.34551 11.9891 6.35167C8.86972 6.35783 6.34607 8.8918 6.35201 12.011ZM8.33335 12.007C8.33192 11.2818 8.54557 10.5724 8.94728 9.96865C9.349 9.36486 9.92074 8.89376 10.5902 8.6149C11.2597 8.33605 11.9968 8.26198 12.7084 8.40205C13.4199 8.54212 14.074 8.89005 14.5878 9.40184C15.1016 9.91363 15.4521 10.5663 15.595 11.2773C15.7379 11.9883 15.6668 12.7257 15.3906 13.3962C15.1144 14.0668 14.6455 14.6404 14.0433 15.0445C13.4411 15.4486 12.7326 15.6651 12.0074 15.6665C11.5258 15.6675 11.0488 15.5737 10.6036 15.3903C10.1583 15.2069 9.75351 14.9376 9.41233 14.5978C9.07115 14.258 8.80026 13.8543 8.61513 13.4097C8.43 12.9652 8.33425 12.4886 8.33335 12.007Z" fill="currentColor"></path>
  </symbol>

  <symbol 
    viewBox="0 0 24 24" 
    fill="none"
    id="icon--Facebook"
  >
    <path d="M8.75 8.33333H6V12H8.75V23H13.3333V12H16.6718L17 8.33333H13.3333V6.80525C13.3333 5.92983 13.5093 5.58333 14.3554 5.58333H17V1H13.5093C10.213 1 8.75 2.45108 8.75 5.23042V8.33333Z" fill="currentColor"></path>
  </symbol>
  
  <symbol 
    viewBox="0 0 24 24" 
    fill="none"
    id="icon--Discord"
  >
    <path d="M19.6361 5.39641C18.1907 4.73466 16.6648 4.26519 15.0974 4C14.8829 4.38343 14.6888 4.77793 14.516 5.18185C12.8463 4.93025 11.1484 4.93025 9.47883 5.18185C9.30589 4.77797 9.11182 4.38348 8.89742 4C7.32898 4.26743 5.80206 4.73802 4.35518 5.39987C1.48276 9.64968 0.704089 13.7939 1.09342 17.8793C2.77559 19.1222 4.65841 20.0674 6.66004 20.6739C7.11075 20.0677 7.50957 19.4246 7.85227 18.7515C7.20136 18.5083 6.57312 18.2084 5.97481 17.8551C6.13228 17.7409 6.28628 17.6232 6.43509 17.509C8.17602 18.3278 10.0762 18.7523 12 18.7523C13.9238 18.7523 15.8239 18.3278 17.5649 17.509C17.7154 17.6319 17.8694 17.7496 18.0252 17.8551C17.4257 18.209 16.7963 18.5095 16.1442 18.7532C16.4865 19.426 16.8854 20.0686 17.3365 20.6739C19.3398 20.0699 21.2241 19.1251 22.9065 17.8811C23.3634 13.1433 22.1261 9.03712 19.6361 5.39641ZM8.34543 15.3668C7.26048 15.3668 6.36415 14.3823 6.36415 13.171C6.36415 11.9597 7.22934 10.9665 8.34197 10.9665C9.4546 10.9665 10.344 11.9597 10.325 13.171C10.3059 14.3823 9.45114 15.3668 8.34543 15.3668ZM15.6545 15.3668C14.5679 15.3668 13.675 14.3823 13.675 13.171C13.675 11.9597 14.5402 10.9665 15.6545 10.9665C16.7689 10.9665 17.6514 11.9597 17.6324 13.171C17.6133 14.3823 16.7602 15.3668 15.6545 15.3668Z" fill="currentColor"></path>
  </symbol>

  <symbol 
    viewBox="0 0 24 24" 
    fill="none"
    id="icon--Reddit"
  >
    <path d="M14.797 4.86968C15.0353 5.89878 15.9426 6.66542 17.026 6.66542C18.2908 6.66542 19.3162 5.621 19.3162 4.33271C19.3162 3.04441 18.2908 2 17.026 2C15.9201 2 14.9978 2.79835 14.783 3.86026C12.9309 4.06258 11.4846 5.66256 11.4846 7.60156C11.4846 7.60594 11.4846 7.60922 11.4846 7.61359C9.47038 7.69999 7.63114 8.28399 6.17091 9.20591C5.6287 8.77831 4.94797 8.52349 4.20927 8.52349C2.4366 8.52349 1 9.98677 1 11.7923C1 13.1025 1.75588 14.2311 2.84783 14.7528C2.95412 18.5477 7.01376 21.6 12.0075 21.6C17.0013 21.6 21.0663 18.5444 21.1672 14.7462C22.2506 14.2213 23 13.0959 23 11.7934C23 9.98786 21.5634 8.52458 19.7907 8.52458C19.0552 8.52458 18.3777 8.77721 17.8366 9.20154C16.3635 8.27305 14.5039 7.68905 12.4692 7.61141C12.4692 7.60812 12.4692 7.60594 12.4692 7.60266C12.4692 6.21375 13.4828 5.06106 14.797 4.87187V4.86968ZM6.04207 13.867C6.09575 12.6815 6.86881 11.7716 7.7675 11.7716C8.66618 11.7716 9.35334 12.7329 9.29966 13.9184C9.24597 15.1039 8.57491 15.5347 7.67516 15.5347C6.7754 15.5347 5.98838 15.0525 6.04207 13.867ZM16.2486 11.7716C17.1484 11.7716 17.9214 12.6815 17.974 13.867C18.0277 15.0525 17.2396 15.5347 16.3409 15.5347C15.4423 15.5347 14.7701 15.1049 14.7164 13.9184C14.6628 12.7329 15.3489 11.7716 16.2486 11.7716ZM15.1792 16.6098C15.3478 16.6273 15.4551 16.8055 15.3897 16.9652C14.8367 18.3115 13.5311 19.2575 12.0075 19.2575C10.4839 19.2575 9.1794 18.3115 8.62538 16.9652C8.55988 16.8055 8.66725 16.6273 8.83582 16.6098C9.82362 16.5081 10.8919 16.4523 12.0075 16.4523C13.1231 16.4523 14.1903 16.5081 15.1792 16.6098Z" fill="currentColor"></path>  
  </symbol>
  
  <symbol 
    viewBox="0 0 24 24" 
    fill="none"
    id="icon--Youtube"
  >
    <path d="M22.54 6.70437C22.2875 5.75802 21.5413 5.01286 20.595 4.7595C18.88 4.29999 12 4.29999 12 4.29999C12 4.29999 5.12 4.29999 3.405 4.7595C2.45875 5.01286 1.7125 5.75802 1.46 6.70437C1 8.42073 1 12 1 12C1 12 1 15.5792 1.46 17.2956C1.7125 18.242 2.45875 18.9871 3.405 19.2405C5.12125 19.7 12 19.7 12 19.7C12 19.7 18.88 19.7 20.595 19.2405C21.5413 18.9871 22.2875 18.242 22.54 17.2956C23 15.5805 23 12 23 12C23 12 23 8.42073 22.54 6.70437ZM9.75 15.2501V8.74984L15.5 12L9.75 15.2501Z" fill="currentColor"></path>
  </symbol>
  
  <symbol 
    viewBox="0 0 24 24" 
    fill="none"
    id="icon--Linkedin"
  >
    <path d="M21.376 1H2.62403C1.72722 1 1 1.72722 1 2.62403V21.376C1 22.2728 1.72722 23 2.62403 23H21.376C22.2728 23 23 22.2728 23 21.376V2.62403C23 1.72722 22.2728 1 21.376 1ZM7.55722 19.7428H4.24958V9.23472H7.55722V19.7428ZM5.90417 7.78028C4.85153 7.78028 3.9975 6.97819 3.9975 5.88125C3.9975 4.78431 4.85153 3.98222 5.90417 3.98222C6.95681 3.98222 7.81083 4.78431 7.81083 5.88125C7.81083 6.97819 6.95681 7.78028 5.90417 7.78028ZM19.7504 19.7504H16.4428V14.0121C16.4428 12.3193 15.7232 11.7968 14.7943 11.7968C13.8135 11.7968 12.851 12.5347 12.851 14.0549V19.7519H9.54333V9.24236H12.7242V10.6983H12.7669C13.0862 10.0521 14.2046 8.9475 15.9111 8.9475C17.7567 8.9475 19.7504 10.0429 19.7504 13.2513V19.7504Z" fill="currentColor"></path>
  </symbol>

  <symbol 
    viewBox="0 0 24 24" 
    
    id="icon--Github"
  >
    <path d="M12 1C5.92468 1 1.00366 6.04649 1.00366 12.2767C1.00366 17.2609 4.15609 21.4836 8.52358 22.9789C9.07036 23.0827 9.27287 22.7366 9.27287 22.432C9.27287 22.162 9.26612 21.4559 9.25937 20.5145C6.20145 21.1929 5.55341 19.0054 5.55341 19.0054C5.05389 17.7039 4.3316 17.3578 4.3316 17.3578C3.33254 16.6586 4.40585 16.6725 4.40585 16.6725C5.50616 16.7556 6.09344 17.8355 6.09344 17.8355C7.07225 19.5592 8.66534 19.0607 9.29312 18.77C9.39437 18.0431 9.67789 17.5447 9.98841 17.2609C7.54477 16.9771 4.97963 16.0079 4.97963 11.6883C4.97963 10.4561 5.40491 9.45235 6.11369 8.66318C5.99894 8.37936 5.62092 7.23023 6.2217 5.6796C6.2217 5.6796 7.1465 5.37501 9.24587 6.83565C10.1234 6.58644 11.0617 6.46184 12 6.45491C12.9316 6.45491 13.8766 6.58644 14.7542 6.83565C16.8535 5.37501 17.7783 5.6796 17.7783 5.6796C18.3791 7.23023 18.0011 8.37936 17.8863 8.66318C18.5884 9.45235 19.0137 10.4561 19.0137 11.6883C19.0137 16.0218 16.4418 16.9702 13.9914 17.254C14.3829 17.6001 14.7407 18.2924 14.7407 19.3446C14.7407 20.8537 14.7272 22.0651 14.7272 22.4389C14.7272 22.7435 14.9229 23.0896 15.4832 22.9789C19.8507 21.4836 22.9964 17.2609 22.9964 12.2836C22.9964 6.04649 18.0754 1 12 1Z" fill="currentColor"></path>
  </symbol>

  <symbol 
    viewBox="0 0 24 24" 
    fill="none"
    id="icon--Glassdoor"
  >
    <path d="M16.62 19.8572H4.29999C4.29999 21.5929 5.67893 23 7.38001 23H16.62C18.321 23 19.7 21.5929 19.7 19.8572V6.95128C19.7 6.9209 19.6881 6.89178 19.6671 6.87031C19.646 6.84884 19.6175 6.83678 19.5877 6.83678H16.7322C16.7024 6.83678 16.6739 6.84884 16.6528 6.87031C16.6317 6.89178 16.6199 6.9209 16.6199 6.95128L16.62 19.8572ZM16.62 1C18.321 1 19.7 2.40708 19.7 4.14288H7.38001V17.0488C7.38001 17.0792 7.36819 17.1083 7.34715 17.1298C7.32611 17.1513 7.29757 17.1634 7.2678 17.1634H4.41228C4.39753 17.1634 4.38292 17.1604 4.36929 17.1547C4.35566 17.1489 4.34327 17.1405 4.33285 17.1298C4.32242 17.1192 4.31415 17.1065 4.30851 17.0926C4.30287 17.0787 4.29998 17.0638 4.29999 17.0487V4.14288C4.29999 2.40718 5.67893 1 7.38001 1H16.62Z" fill="currentColor"></path>    
  </symbol>

  <symbol 
    viewBox="0 0 24 24" 
    fill="none"
    id="icon--BuiltInNYC"
  >
    <path d="M2.77419 1C1.79433 1 1 1.79433 1 2.77419V7.03226H3.12903V3.12903H20.871V20.871H3.12903V16.9677H1V21.2258C1 22.2057 1.79433 23 2.77419 23H21.2258C22.2057 23 23 22.2057 23 21.2258V2.77419C23 1.79433 22.2057 1 21.2258 1H2.77419ZM7.74193 5.73814H10.2467V9.74573H15.0057C15.6974 9.74573 16.2581 10.3064 16.2581 10.9981V17.0095C16.2581 17.7012 15.6974 18.2619 15.0057 18.2619H7.74193V5.73814ZM10.2467 12.2505V15.7571H13.7533V12.2505H10.2467Z" fill="currentColor"></path>
  </symbol>

  <svg viewBox="0 0 24 24" 
    fill="none" 
    stroke="currentColor" 
    stroke-width="2" 
    stroke-linecap="round" 
    stroke-linejoin="round" 
    id="icon--Arrow-Down">
    <polyline points="6 9 12 15 18 9"></polyline>
  </svg>

	<symbol id="icon-right-arrow" viewBox="0 0 18 12">
    <path
      d="M12.6033 1.27344L16.6033 5.77344L12.6033 10.2734"
      stroke="currentColor"
      stroke-width="1.5"
      stroke-linecap="round"
      stroke-linejoin="round"
    ></path>
    <path
      d="M1.60327 5.77344H16.6033"
      stroke="currentColor"
      stroke-width="1.5"
      stroke-linecap="round"
      stroke-linejoin="round"
    ></path>
  </symbol>

</svg>
