<svg xmlns="http://www.w3.org/2000/svg" style="display: none;">
  

	<symbol 
		id="google"
		viewBox="0 0 256 262" 
		preserveAspectRatio="xMidYMid"
    fill="none"
	>
		<path fill="#4285F4" d="M255.878 133.451c0-10.734-.871-18.567-2.756-26.69H130.55v48.448h71.947c-1.45 12.04-9.283 30.172-26.69 42.356l-.244 1.622 38.755 30.023 2.685.268c24.659-22.774 38.875-56.282 38.875-96.027"></path>
		<path fill="#34A853" d="M130.55 261.1c35.248 0 64.839-11.605 86.453-31.622l-41.196-31.913c-11.024 7.688-25.82 13.055-45.257 13.055-34.523 0-63.824-22.773-74.269-54.25l-1.531.13-40.298 31.187-.527 1.465C35.393 231.798 79.49 261.1 130.55 261.1"></path>
		<path fill="#FBBC05" d="M56.281 156.37c-2.756-8.123-4.351-16.827-4.351-25.82 0-8.994 1.595-17.697 4.206-25.82l-.073-1.73L15.26 71.312l-1.335.635C5.077 89.644 0 109.517 0 130.55s5.077 40.905 13.925 58.602l42.356-32.782"></path>
		<path fill="#EB4335" d="M130.55 50.479c24.514 0 41.05 10.589 50.479 19.438l36.844-35.974C195.245 12.91 165.798 0 130.55 0 79.49 0 35.393 29.301 13.925 71.947l42.211 32.783c10.59-31.477 39.891-54.251 74.414-54.251"></path>
	</symbol>

	<symbol
    id="icon-digital-ocean"
    viewBox="0 0 90 90"
  >
    <circle cx="45" cy="45" r="36.25" fill="none" stroke="currentColor" stroke-width="17.5" stroke-dasharray="170.824100538945 56.941366846315" stroke-dashoffset="113.88273369263"></circle>
    <rect x="3.25" y="61.5" width="11" height="11" fill="currentColor"></rect>
    <rect x="14.25" y="72.5" width="13.5" height="13.5" fill="currentColor"></rect>
    <rect x="27.5" y="55.25" width="17.25" height="17.25" fill="currentColor"></rect>
  </symbol>

  <symbol
    viewBox="0 0 32 32"
    id="icon--kubernetes"
  >
    <path
      fill-rule="evenodd"
      d="M16 4L6.57143 8.28571L4 19.4286L10.8571 28H21.1429L28 19.4286L25.4286 8.28571L16 4ZM15.4919 8V9.99036C13.9282 10.1136 12.5335 10.8391 11.5228 11.9381L10.0112 10.6805L9.37162 11.4493L10.9065 12.7262C10.2433 13.7296 9.85669 14.9396 9.85669 16.2389C9.85669 16.5651 9.88106 16.8857 9.92805 17.1987L7.98022 17.6292L8.19601 18.6056L10.1536 18.173C10.6253 19.6645 11.6279 20.9142 12.9361 21.6823L12.0355 23.6159L12.942 24.0381L13.8376 22.1154C14.5002 22.368 15.2178 22.5062 15.9679 22.5062C16.7385 22.5062 17.4748 22.3603 18.1524 22.0944L19.0577 24.0381L19.9642 23.6159L19.0497 21.6526C20.3373 20.8799 21.3224 19.6381 21.7864 18.1598L23.8038 18.6056L24.0196 17.6292L22.0098 17.185C22.0555 16.8763 22.0791 16.5604 22.0791 16.2389C22.0791 14.9534 21.7006 13.7553 21.0503 12.7581L22.6206 11.4489L21.9802 10.6808L20.4386 11.9661C19.4362 10.8627 18.0494 10.1297 16.4919 9.99434V8H15.4919ZM12.2926 12.5785C13.1201 11.697 14.2428 11.1135 15.4919 10.9943V12.4809C14.6915 12.5965 13.9761 12.9733 13.4273 13.5225L12.2926 12.5785ZM12.8193 14.3175L11.6803 13.3699C11.1598 14.1939 10.8567 15.1784 10.8567 16.2389C10.8567 16.4914 10.8739 16.7396 10.9071 16.9824L12.333 16.6672C12.3175 16.5266 12.3096 16.3836 12.3096 16.2389C12.3096 15.5398 12.495 14.8824 12.8193 14.3175ZM12.5703 17.6389L11.1341 17.9563C11.5317 19.1456 12.3306 20.1393 13.3611 20.77L13.9905 19.4187C13.3536 18.992 12.854 18.3703 12.5703 17.6389ZM14.8897 19.8565L14.2616 21.2051C14.7959 21.4001 15.3704 21.5062 15.9679 21.5062C16.5858 21.5062 17.1791 21.3928 17.7287 21.1848L17.1142 19.8655C16.7677 19.9753 16.399 20.0345 16.016 20.0345C15.6226 20.0345 15.2444 19.9721 14.8897 19.8565ZM18.0168 19.435L18.6243 20.7393C19.6346 20.1049 20.4164 19.1191 20.8061 17.9431L19.4591 17.6455C19.1713 18.3834 18.6636 19.0092 18.0168 19.435ZM19.6982 16.6742L21.0306 16.9686C21.0626 16.7303 21.0791 16.4867 21.0791 16.2389C21.0791 15.1927 20.7841 14.2204 20.2764 13.4033L19.202 14.2991C19.5329 14.8681 19.7224 15.5322 19.7224 16.2389C19.7224 16.386 19.7142 16.5313 19.6982 16.6742ZM18.5897 13.5076L19.6698 12.6071C18.8504 11.721 17.7352 11.1299 16.4919 10.9991V12.4742C17.3045 12.5806 18.0319 12.9556 18.5897 13.5076ZM13.3096 16.2389C13.3096 14.682 14.5341 13.4434 16.016 13.4434C17.4979 13.4434 18.7224 14.682 18.7224 16.2389C18.7224 17.7959 17.4979 19.0345 16.016 19.0345C14.5341 19.0345 13.3096 17.7959 13.3096 16.2389Z"
      fill="currentColor"
    ></path>
  </symbol>

  <symbol
    viewBox="0 0 32 32"
    id="icon--virtual-machine"
  >
    <path
      d="M8.22182 10.9145C3.92606 14.823 3.92606 21.16 8.22183 25.0686C12.5176 28.9771 19.4824 28.9771 23.7782 25.0686C28.0739 21.16 28.0739 14.823 23.7782 10.9145L16.305 4.11496C16.1366 3.96168 15.8634 3.96168 15.695 4.11496L8.22182 10.9145Z"
      fill="currentColor"
    ></path>
  </symbol>
  <symbol
    id="icon--AI-ML"
    viewBox="0 0 32 32"
  >
    <path d="M16.0178 24.3092V29.3437C24.521 29.3437 31.1381 21.1278 28.3553 12.2015C27.1184 8.30982 24.0263 5.19025 20.1303 3.98567C11.225 1.20586 3 7.84651 3 16.3404H8.04013C8.04013 11.0279 13.3276 6.88903 18.9553 8.92755C21.027 9.66883 22.6967 11.3367 23.4388 13.4061C25.4796 19.0275 21.3671 24.3092 16.0178 24.3092ZM14.1637 22.5426C13.8421 23.0222 13.6275 23.6738 13.3866 24.9014C13.3274 25.2033 13.3224 25.2202 13.3109 25.1585C13.0548 23.7808 12.8231 23.0454 12.4869 22.5431C11.9982 21.8131 11.2922 21.4692 9.57527 21.1249C9.34915 21.0796 9.16248 21.0408 9.16044 21.0388C9.15841 21.0367 9.25418 21.017 9.37326 20.9949C9.64485 20.9445 10.1213 20.8404 10.3876 20.7734C11.0101 20.6166 11.4795 20.4281 11.8378 20.191C12.0546 20.0475 12.3283 19.775 12.4709 19.5605C12.8275 19.0243 13.0697 18.2575 13.3178 16.879C13.3207 16.8628 13.3413 16.9455 13.3636 17.0627C13.7214 18.9439 14.0725 19.6966 14.8278 20.2022C15.3309 20.539 16.0707 20.7721 17.4431 21.0263C17.506 21.0379 17.4972 21.0409 17.2595 21.0872C15.9785 21.3368 15.3128 21.5535 14.8273 21.879C14.5411 22.0709 14.3556 22.2564 14.1637 22.5426ZM9.93968 27.355C9.69594 27.7186 9.53321 28.2125 9.35061 29.1431C9.3057 29.372 9.30192 29.3848 9.29322 29.338C9.09908 28.2936 8.92344 27.7361 8.66856 27.3554C8.29813 26.802 7.76289 26.5413 6.46134 26.2802C6.28993 26.2459 6.14687 26.2149 6.14687 26.2149C6.14687 26.2149 6.21793 26.1984 6.3082 26.1817C6.51408 26.1435 6.87524 26.0646 7.07711 26.0138C7.54902 25.8949 7.90486 25.752 8.1765 25.5723C8.34088 25.4635 8.54832 25.2569 8.65648 25.0943C8.92675 24.6879 9.11036 24.1065 9.29846 23.0615C9.30067 23.0493 9.3163 23.1119 9.33319 23.2008C9.60444 24.6269 9.87057 25.1975 10.4431 25.5808C10.8246 25.8361 11.3853 26.0128 12.4258 26.2055C12.4735 26.2143 12.4667 26.2165 12.2865 26.2517C11.3155 26.4409 10.8109 26.6051 10.4428 26.8519C10.2258 26.9974 10.0852 27.138 9.93968 27.355ZM5.90659 23.9749C6.03928 23.2988 6.15752 22.9398 6.33464 22.6756C6.44035 22.518 6.54254 22.4158 6.7002 22.3101C6.96767 22.1308 7.33436 22.0114 8.03996 21.8739C8.1709 21.8484 8.17579 21.8468 8.14113 21.8403C7.38512 21.7003 6.97764 21.5719 6.70047 21.3864C6.28441 21.1079 6.09103 20.6933 5.89393 19.657C5.88165 19.5924 5.8703 19.5469 5.8687 19.5558C5.73201 20.3151 5.59859 20.7376 5.4022 21.0329C5.32361 21.1511 5.17287 21.3012 5.05343 21.3802C4.85604 21.5108 4.59747 21.6147 4.25456 21.701C4.10787 21.738 3.84544 21.7953 3.69583 21.823C3.63023 21.8352 3.57748 21.8461 3.5786 21.8472C3.57972 21.8483 3.68255 21.8697 3.80711 21.8947C4.75287 22.0843 5.14181 22.2738 5.41098 22.6759C5.59618 22.9526 5.72381 23.3577 5.86488 24.1166C5.8712 24.1506 5.87396 24.1413 5.90659 23.9749Z" fill="currentColor"></path>
  </symbol>

  <symbol
    id="icon--app-platform"
    viewBox="0 0 32 32"
  >
    <path fill-rule="evenodd" d="M13 7H17L18 8H12L13 7ZM30 10V19L27 18H26L24 21L20 21V22H23L24 23L23 24H7L6 23L7 22L10 22V21H5L4 18L2 18V17H26V16L2 16V15L4 15V14L8 11H11V9H19V11H22L26 13H27L30 10ZM14 13C14 13.5523 13.5523 14 13 14C12.4477 14 12 13.5523 12 13C12 12.4477 12.4477 12 13 12C13.5523 12 14 12.4477 14 13ZM17 14C17.5523 14 18 13.5523 18 13C18 12.4477 17.5523 12 17 12C16.4477 12 16 12.4477 16 13C16 13.5523 16.4477 14 17 14ZM12 21V22H18V21H12Z" fill="currentColor"></path>
  </symbol>

  <symbol 
    id="icon--managed-database"
    viewBox="0 0 32 32"
  >
    <path fill-rule="evenodd" clip-rule="evenodd" d="M4.85718 7.74309C4.85718 7.47523 4.99025 7.10714 5.47412 6.65438C5.95799 6.20161 6.72181 5.74366 7.75349 5.33756C9.80995 4.52535 12.7253 4 16 4C19.2748 4 22.1901 4.52535 24.2466 5.33756C25.2783 5.74366 26.0404 6.20161 26.5277 6.65438C27.0116 7.10714 27.1429 7.47523 27.1429 7.74309C27.1429 8.01095 27.0098 8.37903 26.526 8.8318C26.0421 9.28283 25.2783 9.74078 24.2466 10.1486C22.1901 10.9608 19.2748 11.4862 16 11.4862C12.7253 11.4862 9.80995 10.9608 7.75349 10.1486C6.72181 9.74078 5.95972 9.28456 5.47239 8.83007C4.98852 8.37903 4.85718 8.01094 4.85718 7.74136V7.74309ZM27.2535 11.0092C26.5619 11.4756 25.8192 11.8612 25.0398 12.1584C22.6723 13.0916 19.4753 13.6446 16 13.6446C12.5231 13.6446 9.3278 13.0916 6.96029 12.1584C6.18082 11.8607 5.43806 11.4745 4.74658 11.0075V16.4994C4.84336 16.6463 4.97988 16.807 5.1717 16.9816C5.67285 17.4361 6.45914 17.8975 7.52193 18.3053C9.63713 19.1192 12.6354 19.6463 16 19.6463C19.3647 19.6463 22.3629 19.1192 24.4799 18.3053C25.5409 17.8957 26.3272 17.4361 26.8284 16.9816C27.0185 16.807 27.1567 16.6463 27.2535 16.4977V11.0092ZM4.74658 23.1751V19.3474C5.33587 19.7154 6.01156 20.0386 6.74428 20.322C9.16709 21.2535 12.4384 21.8065 16 21.8065C19.5599 21.8065 22.833 21.2535 25.2558 20.3203C25.9508 20.0596 26.6197 19.7338 27.2535 19.3474V23.1768C27.2535 25.8381 22.2161 28 16 28C9.78402 28 4.74658 25.8381 4.74658 23.1751Z" fill="currentColor"></path>
  </symbol>

  <symbol 
    id="icon--storage"
    viewBox="0 0 32 32"
  >
    <path d="M4.559 9.7205L16 15.441L27.441 9.72048L16 4L4.559 9.7205ZM28 10.559L16.5 16.309V27.75L28 22V10.559ZM15.5 27.75V16.309L4 10.559V22L15.5 27.75ZM16 5C16.2761 5 16.5 5.22386 16.5 5.5V5.54435C16.5 5.8205 16.2761 6.04435 16 6.04435C15.7238 6.04435 15.5 5.8205 15.5 5.54435V5.5C15.5 5.22386 15.7238 5 16 5ZM16 7.70565C16.2761 7.70565 16.5 7.9295 16.5 8.20565V8.29435C16.5 8.5705 16.2761 8.79435 16 8.79435C15.7238 8.79435 15.5 8.5705 15.5 8.29435V8.20565C15.5 7.9295 15.7238 7.70565 16 7.70565ZM16 10.4556C16.2761 10.4556 16.5 10.6795 16.5 10.9556V11.0444C16.5 11.3205 16.2761 11.5444 16 11.5444C15.7238 11.5444 15.5 11.3205 15.5 11.0444V10.9556C15.5 10.6795 15.7238 10.4556 16 10.4556ZM16 13.2056C16.2761 13.2056 16.5 13.4295 16.5 13.7056V13.7944C16.5 14.0705 16.2761 14.2944 16 14.2944C15.7238 14.2944 15.5 14.0705 15.5 13.7944V13.7056C15.5 13.4295 15.7238 13.2056 16 13.2056ZM5.50502 21.2474C5.38153 21.0004 5.48164 20.7001 5.72863 20.5766L5.82386 20.529C6.07085 20.4055 6.37119 20.5056 6.49468 20.7526C6.61818 20.9996 6.51807 21.2999 6.27108 21.4234L6.17584 21.471C5.92885 21.5945 5.62851 21.4944 5.50502 21.2474ZM26.4947 21.2474C26.3712 21.4944 26.0709 21.5945 25.8239 21.471L25.7286 21.4234C25.4816 21.2999 25.3815 20.9996 25.505 20.7526C25.6285 20.5056 25.9289 20.4055 26.1758 20.529L26.2711 20.5766C26.5181 20.7001 26.6182 21.0004 26.4947 21.2474ZM7.50502 20.2474C7.38153 20.0004 7.48164 19.7001 7.72863 19.5766L7.82386 19.529C8.07085 19.4055 8.37119 19.5056 8.49468 19.7526C8.61818 19.9996 8.51807 20.2999 8.27108 20.4234L8.17584 20.471C7.92885 20.5945 7.62851 20.4944 7.50502 20.2474ZM24.4947 20.2474C24.3712 20.4944 24.0709 20.5945 23.8239 20.471L23.7286 20.4234C23.4816 20.2999 23.3815 19.9996 23.505 19.7526C23.6285 19.5056 23.9289 19.4055 24.1758 19.529L24.2711 19.5766C24.5181 19.7001 24.6182 20.0004 24.4947 20.2474ZM9.50502 19.2474C9.38153 19.0004 9.48164 18.7001 9.72863 18.5766L9.82386 18.529C10.0709 18.4055 10.3712 18.5056 10.4947 18.7526C10.6182 18.9996 10.5181 19.2999 10.2711 19.4234L10.1758 19.471C9.92885 19.5945 9.62851 19.4944 9.50502 19.2474ZM22.4947 19.2474C22.3712 19.4944 22.0709 19.5945 21.8239 19.471L21.7286 19.4234C21.4816 19.2999 21.3815 18.9996 21.505 18.7526C21.6285 18.5056 21.9289 18.4055 22.1758 18.529L22.2711 18.5766C22.5181 18.7001 22.6182 19.0004 22.4947 19.2474ZM11.505 18.2474C11.3815 18.0004 11.4816 17.7001 11.7286 17.5766L11.8239 17.529C12.0709 17.4055 12.3712 17.5056 12.4947 17.7526C12.6182 17.9996 12.5181 18.2999 12.2711 18.4234L12.1758 18.471C11.9289 18.5945 11.6285 18.4944 11.505 18.2474ZM20.4947 18.2474C20.3712 18.4944 20.0709 18.5945 19.8239 18.471L19.7286 18.4234C19.4816 18.2999 19.3815 17.9996 19.505 17.7526C19.6285 17.5056 19.9289 17.4055 20.1758 17.529L20.2711 17.5766C20.5181 17.7001 20.6182 18.0004 20.4947 18.2474ZM13.505 17.2474C13.3815 17.0004 13.4816 16.7001 13.7286 16.5766L13.8239 16.529C14.0709 16.4055 14.3712 16.5056 14.4947 16.7526C14.6182 16.9996 14.5181 17.2999 14.2711 17.4234L14.1758 17.471C13.9289 17.5945 13.6285 17.4944 13.505 17.2474ZM18.4947 17.2474C18.3712 17.4944 18.0709 17.5945 17.8239 17.471L17.7286 17.4234C17.4816 17.2999 17.3815 16.9996 17.505 16.7526C17.6285 16.5056 17.9289 16.4055 18.1758 16.529L18.2711 16.5766C18.5181 16.7001 18.6182 17.0004 18.4947 17.2474Z" fill="currentColor"></path>
  </symbol>

  <symbol 
    viewBox="0 0 24 24" 
    fill="none"
    id="icon--Twitter"
  >
   <path d="M14.0468 10.3155L22.0566 1.00003H20.1585L13.2036 9.08855L7.6488 1.00003H1.24194L9.64196 13.2313L1.24194 23H3.14011L10.4847 14.4583L16.351 23H22.7578L14.0464 10.3155H14.0468ZM11.447 13.3391L10.5959 12.1211L3.82405 2.42968H6.73952L12.2045 10.251L13.0556 11.4689L20.1594 21.6354H17.244L11.447 13.3395V13.3391Z" fill="currentColor"></path>
  </symbol>

  <symbol 
    viewBox="0 0 24 24" 
    fill="none"
    id="icon--Instagram"
  >
    <path d="M7.44432 1.07693C6.27391 1.13215 5.47464 1.31893 4.77592 1.59349C4.05277 1.87531 3.43984 2.2535 2.83 2.86554C2.22015 3.47758 1.84461 4.09094 1.56476 4.81518C1.29394 5.51545 1.11046 6.31537 1.05876 7.48643C1.00706 8.6575 0.995618 9.03392 1.00134 12.0211C1.00706 15.0083 1.02026 15.3827 1.07702 16.5562C1.1329 17.7264 1.31902 18.5254 1.59358 19.2244C1.87585 19.9475 2.25359 20.5602 2.86586 21.1703C3.47812 21.7803 4.09105 22.155 4.81706 22.4353C5.51666 22.7056 6.31681 22.89 7.48766 22.9413C8.65852 22.9925 9.03538 23.0044 12.0217 22.9987C15.008 22.993 15.384 22.9798 16.5573 22.9241C17.7305 22.8684 18.5254 22.681 19.2246 22.4078C19.9477 22.1248 20.5609 21.7478 21.1705 21.1353C21.7801 20.5228 22.1554 19.909 22.4351 19.1843C22.7061 18.4847 22.8902 17.6846 22.9411 16.5146C22.9923 15.3405 23.0044 14.9656 22.9987 11.9788C22.993 8.99212 22.9796 8.61768 22.9239 7.44463C22.8682 6.27159 22.6819 5.47497 22.4076 4.77558C22.1249 4.05244 21.7475 3.44018 21.1355 2.82968C20.5235 2.21918 19.9092 1.84407 19.1847 1.56511C18.4847 1.29429 17.685 1.10971 16.5141 1.05911C15.3433 1.00851 14.9664 0.995531 11.979 1.00125C8.9916 1.00697 8.6176 1.01973 7.44432 1.07693ZM7.5728 20.9624C6.50029 20.9157 5.91795 20.7375 5.52986 20.5884C5.01594 20.3904 4.64985 20.151 4.26309 19.768C3.87633 19.385 3.63872 19.0176 3.43808 18.5047C3.28738 18.1166 3.10588 17.535 3.05572 16.4625C3.00116 15.3033 2.98972 14.9552 2.98334 12.0184C2.97696 9.08166 2.98818 8.73406 3.039 7.57443C3.08476 6.50281 3.26406 5.91981 3.413 5.53195C3.611 5.01737 3.84949 4.65194 4.23339 4.2654C4.61729 3.87886 4.9836 3.64082 5.49686 3.44018C5.88451 3.28882 6.46619 3.10886 7.53826 3.05782C8.69834 3.00282 9.04594 2.99182 11.9823 2.98544C14.9187 2.97906 15.2672 2.99006 16.4277 3.0411C17.4993 3.08774 18.0825 3.26528 18.47 3.4151C18.9841 3.6131 19.35 3.85092 19.7365 4.23548C20.1231 4.62004 20.3613 4.98503 20.562 5.49939C20.7135 5.88593 20.8935 6.46739 20.9441 7.54011C20.9993 8.70018 21.0119 9.048 21.0171 11.9841C21.0224 14.9203 21.0121 15.269 20.9613 16.4281C20.9144 17.5006 20.7366 18.0832 20.5873 18.4717C20.3893 18.9854 20.1506 19.3517 19.7664 19.7381C19.3823 20.1244 19.0164 20.3624 18.503 20.5631C18.1158 20.7142 17.5334 20.8946 16.4622 20.9456C15.3021 21.0002 14.9545 21.0116 12.0171 21.018C9.0796 21.0244 8.7331 21.0125 7.57302 20.9624M16.5403 6.12089C16.5408 6.38198 16.6186 6.63708 16.764 6.85392C16.9095 7.07076 17.1159 7.2396 17.3573 7.33909C17.5987 7.43859 17.8642 7.46426 18.1202 7.41286C18.3762 7.36147 18.6111 7.23532 18.7954 7.05036C18.9797 6.8654 19.105 6.62995 19.1555 6.37378C19.2059 6.11761 19.1793 5.85223 19.0789 5.61121C18.9785 5.37018 18.8089 5.16434 18.5915 5.01971C18.3742 4.87508 18.1188 4.79816 17.8577 4.79868C17.5077 4.79938 17.1723 4.93907 16.9252 5.18702C16.6782 5.43496 16.5397 5.77088 16.5403 6.12089ZM6.35201 12.011C6.35817 15.1306 8.89172 17.6538 12.0107 17.6478C15.1297 17.6419 17.6546 15.1086 17.6487 11.989C17.6427 8.86936 15.1085 6.34551 11.9891 6.35167C8.86972 6.35783 6.34607 8.8918 6.35201 12.011ZM8.33335 12.007C8.33192 11.2818 8.54557 10.5724 8.94728 9.96865C9.349 9.36486 9.92074 8.89376 10.5902 8.6149C11.2597 8.33605 11.9968 8.26198 12.7084 8.40205C13.4199 8.54212 14.074 8.89005 14.5878 9.40184C15.1016 9.91363 15.4521 10.5663 15.595 11.2773C15.7379 11.9883 15.6668 12.7257 15.3906 13.3962C15.1144 14.0668 14.6455 14.6404 14.0433 15.0445C13.4411 15.4486 12.7326 15.6651 12.0074 15.6665C11.5258 15.6675 11.0488 15.5737 10.6036 15.3903C10.1583 15.2069 9.75351 14.9376 9.41233 14.5978C9.07115 14.258 8.80026 13.8543 8.61513 13.4097C8.43 12.9652 8.33425 12.4886 8.33335 12.007Z" fill="currentColor"></path>
  </symbol>

  <symbol 
    viewBox="0 0 24 24" 
    fill="none"
    id="icon--Facebook"
  >
    <path d="M8.75 8.33333H6V12H8.75V23H13.3333V12H16.6718L17 8.33333H13.3333V6.80525C13.3333 5.92983 13.5093 5.58333 14.3554 5.58333H17V1H13.5093C10.213 1 8.75 2.45108 8.75 5.23042V8.33333Z" fill="currentColor"></path>
  </symbol>
  
  <symbol 
    viewBox="0 0 24 24" 
    fill="none"
    id="icon--Discord"
  >
    <path d="M19.6361 5.39641C18.1907 4.73466 16.6648 4.26519 15.0974 4C14.8829 4.38343 14.6888 4.77793 14.516 5.18185C12.8463 4.93025 11.1484 4.93025 9.47883 5.18185C9.30589 4.77797 9.11182 4.38348 8.89742 4C7.32898 4.26743 5.80206 4.73802 4.35518 5.39987C1.48276 9.64968 0.704089 13.7939 1.09342 17.8793C2.77559 19.1222 4.65841 20.0674 6.66004 20.6739C7.11075 20.0677 7.50957 19.4246 7.85227 18.7515C7.20136 18.5083 6.57312 18.2084 5.97481 17.8551C6.13228 17.7409 6.28628 17.6232 6.43509 17.509C8.17602 18.3278 10.0762 18.7523 12 18.7523C13.9238 18.7523 15.8239 18.3278 17.5649 17.509C17.7154 17.6319 17.8694 17.7496 18.0252 17.8551C17.4257 18.209 16.7963 18.5095 16.1442 18.7532C16.4865 19.426 16.8854 20.0686 17.3365 20.6739C19.3398 20.0699 21.2241 19.1251 22.9065 17.8811C23.3634 13.1433 22.1261 9.03712 19.6361 5.39641ZM8.34543 15.3668C7.26048 15.3668 6.36415 14.3823 6.36415 13.171C6.36415 11.9597 7.22934 10.9665 8.34197 10.9665C9.4546 10.9665 10.344 11.9597 10.325 13.171C10.3059 14.3823 9.45114 15.3668 8.34543 15.3668ZM15.6545 15.3668C14.5679 15.3668 13.675 14.3823 13.675 13.171C13.675 11.9597 14.5402 10.9665 15.6545 10.9665C16.7689 10.9665 17.6514 11.9597 17.6324 13.171C17.6133 14.3823 16.7602 15.3668 15.6545 15.3668Z" fill="currentColor"></path>
  </symbol>

  <symbol 
    viewBox="0 0 24 24" 
    fill="none"
    id="icon--Reddit"
  >
    <path d="M14.797 4.86968C15.0353 5.89878 15.9426 6.66542 17.026 6.66542C18.2908 6.66542 19.3162 5.621 19.3162 4.33271C19.3162 3.04441 18.2908 2 17.026 2C15.9201 2 14.9978 2.79835 14.783 3.86026C12.9309 4.06258 11.4846 5.66256 11.4846 7.60156C11.4846 7.60594 11.4846 7.60922 11.4846 7.61359C9.47038 7.69999 7.63114 8.28399 6.17091 9.20591C5.6287 8.77831 4.94797 8.52349 4.20927 8.52349C2.4366 8.52349 1 9.98677 1 11.7923C1 13.1025 1.75588 14.2311 2.84783 14.7528C2.95412 18.5477 7.01376 21.6 12.0075 21.6C17.0013 21.6 21.0663 18.5444 21.1672 14.7462C22.2506 14.2213 23 13.0959 23 11.7934C23 9.98786 21.5634 8.52458 19.7907 8.52458C19.0552 8.52458 18.3777 8.77721 17.8366 9.20154C16.3635 8.27305 14.5039 7.68905 12.4692 7.61141C12.4692 7.60812 12.4692 7.60594 12.4692 7.60266C12.4692 6.21375 13.4828 5.06106 14.797 4.87187V4.86968ZM6.04207 13.867C6.09575 12.6815 6.86881 11.7716 7.7675 11.7716C8.66618 11.7716 9.35334 12.7329 9.29966 13.9184C9.24597 15.1039 8.57491 15.5347 7.67516 15.5347C6.7754 15.5347 5.98838 15.0525 6.04207 13.867ZM16.2486 11.7716C17.1484 11.7716 17.9214 12.6815 17.974 13.867C18.0277 15.0525 17.2396 15.5347 16.3409 15.5347C15.4423 15.5347 14.7701 15.1049 14.7164 13.9184C14.6628 12.7329 15.3489 11.7716 16.2486 11.7716ZM15.1792 16.6098C15.3478 16.6273 15.4551 16.8055 15.3897 16.9652C14.8367 18.3115 13.5311 19.2575 12.0075 19.2575C10.4839 19.2575 9.1794 18.3115 8.62538 16.9652C8.55988 16.8055 8.66725 16.6273 8.83582 16.6098C9.82362 16.5081 10.8919 16.4523 12.0075 16.4523C13.1231 16.4523 14.1903 16.5081 15.1792 16.6098Z" fill="currentColor"></path>  
  </symbol>
  
  <symbol 
    viewBox="0 0 24 24" 
    fill="none"
    id="icon--Youtube"
  >
    <path d="M22.54 6.70437C22.2875 5.75802 21.5413 5.01286 20.595 4.7595C18.88 4.29999 12 4.29999 12 4.29999C12 4.29999 5.12 4.29999 3.405 4.7595C2.45875 5.01286 1.7125 5.75802 1.46 6.70437C1 8.42073 1 12 1 12C1 12 1 15.5792 1.46 17.2956C1.7125 18.242 2.45875 18.9871 3.405 19.2405C5.12125 19.7 12 19.7 12 19.7C12 19.7 18.88 19.7 20.595 19.2405C21.5413 18.9871 22.2875 18.242 22.54 17.2956C23 15.5805 23 12 23 12C23 12 23 8.42073 22.54 6.70437ZM9.75 15.2501V8.74984L15.5 12L9.75 15.2501Z" fill="currentColor"></path>
  </symbol>
  
  <symbol 
    viewBox="0 0 24 24" 
    fill="none"
    id="icon--Linkedin"
  >
    <path d="M21.376 1H2.62403C1.72722 1 1 1.72722 1 2.62403V21.376C1 22.2728 1.72722 23 2.62403 23H21.376C22.2728 23 23 22.2728 23 21.376V2.62403C23 1.72722 22.2728 1 21.376 1ZM7.55722 19.7428H4.24958V9.23472H7.55722V19.7428ZM5.90417 7.78028C4.85153 7.78028 3.9975 6.97819 3.9975 5.88125C3.9975 4.78431 4.85153 3.98222 5.90417 3.98222C6.95681 3.98222 7.81083 4.78431 7.81083 5.88125C7.81083 6.97819 6.95681 7.78028 5.90417 7.78028ZM19.7504 19.7504H16.4428V14.0121C16.4428 12.3193 15.7232 11.7968 14.7943 11.7968C13.8135 11.7968 12.851 12.5347 12.851 14.0549V19.7519H9.54333V9.24236H12.7242V10.6983H12.7669C13.0862 10.0521 14.2046 8.9475 15.9111 8.9475C17.7567 8.9475 19.7504 10.0429 19.7504 13.2513V19.7504Z" fill="currentColor"></path>
  </symbol>

  <symbol 
    viewBox="0 0 24 24" 
    
    id="icon--Github"
  >
    <path d="M12 1C5.92468 1 1.00366 6.04649 1.00366 12.2767C1.00366 17.2609 4.15609 21.4836 8.52358 22.9789C9.07036 23.0827 9.27287 22.7366 9.27287 22.432C9.27287 22.162 9.26612 21.4559 9.25937 20.5145C6.20145 21.1929 5.55341 19.0054 5.55341 19.0054C5.05389 17.7039 4.3316 17.3578 4.3316 17.3578C3.33254 16.6586 4.40585 16.6725 4.40585 16.6725C5.50616 16.7556 6.09344 17.8355 6.09344 17.8355C7.07225 19.5592 8.66534 19.0607 9.29312 18.77C9.39437 18.0431 9.67789 17.5447 9.98841 17.2609C7.54477 16.9771 4.97963 16.0079 4.97963 11.6883C4.97963 10.4561 5.40491 9.45235 6.11369 8.66318C5.99894 8.37936 5.62092 7.23023 6.2217 5.6796C6.2217 5.6796 7.1465 5.37501 9.24587 6.83565C10.1234 6.58644 11.0617 6.46184 12 6.45491C12.9316 6.45491 13.8766 6.58644 14.7542 6.83565C16.8535 5.37501 17.7783 5.6796 17.7783 5.6796C18.3791 7.23023 18.0011 8.37936 17.8863 8.66318C18.5884 9.45235 19.0137 10.4561 19.0137 11.6883C19.0137 16.0218 16.4418 16.9702 13.9914 17.254C14.3829 17.6001 14.7407 18.2924 14.7407 19.3446C14.7407 20.8537 14.7272 22.0651 14.7272 22.4389C14.7272 22.7435 14.9229 23.0896 15.4832 22.9789C19.8507 21.4836 22.9964 17.2609 22.9964 12.2836C22.9964 6.04649 18.0754 1 12 1Z" fill="currentColor"></path>
  </symbol>

  <symbol 
    viewBox="0 0 24 24" 
    fill="none"
    id="icon--Glassdoor"
  >
    <path d="M16.62 19.8572H4.29999C4.29999 21.5929 5.67893 23 7.38001 23H16.62C18.321 23 19.7 21.5929 19.7 19.8572V6.95128C19.7 6.9209 19.6881 6.89178 19.6671 6.87031C19.646 6.84884 19.6175 6.83678 19.5877 6.83678H16.7322C16.7024 6.83678 16.6739 6.84884 16.6528 6.87031C16.6317 6.89178 16.6199 6.9209 16.6199 6.95128L16.62 19.8572ZM16.62 1C18.321 1 19.7 2.40708 19.7 4.14288H7.38001V17.0488C7.38001 17.0792 7.36819 17.1083 7.34715 17.1298C7.32611 17.1513 7.29757 17.1634 7.2678 17.1634H4.41228C4.39753 17.1634 4.38292 17.1604 4.36929 17.1547C4.35566 17.1489 4.34327 17.1405 4.33285 17.1298C4.32242 17.1192 4.31415 17.1065 4.30851 17.0926C4.30287 17.0787 4.29998 17.0638 4.29999 17.0487V4.14288C4.29999 2.40718 5.67893 1 7.38001 1H16.62Z" fill="currentColor"></path>    
  </symbol>

  <symbol 
    viewBox="0 0 24 24" 
    fill="none"
    id="icon--BuiltInNYC"
  >
    <path d="M2.77419 1C1.79433 1 1 1.79433 1 2.77419V7.03226H3.12903V3.12903H20.871V20.871H3.12903V16.9677H1V21.2258C1 22.2057 1.79433 23 2.77419 23H21.2258C22.2057 23 23 22.2057 23 21.2258V2.77419C23 1.79433 22.2057 1 21.2258 1H2.77419ZM7.74193 5.73814H10.2467V9.74573H15.0057C15.6974 9.74573 16.2581 10.3064 16.2581 10.9981V17.0095C16.2581 17.7012 15.6974 18.2619 15.0057 18.2619H7.74193V5.73814ZM10.2467 12.2505V15.7571H13.7533V12.2505H10.2467Z" fill="currentColor"></path>
  </symbol>

  <svg viewBox="0 0 24 24" 
    fill="none" 
    stroke="currentColor" 
    stroke-width="2" 
    stroke-linecap="round" 
    stroke-linejoin="round" 
    id="icon--Arrow-Down">
    <polyline points="6 9 12 15 18 9"></polyline>
  </svg>

	<symbol id="icon--Right-Arrow" viewBox="0 0 18 12">
    <path
      d="M12.6033 1.27344L16.6033 5.77344L12.6033 10.2734"
      stroke="currentColor"
      stroke-width="1.5"
      stroke-linecap="round"
      stroke-linejoin="round"
    ></path>
    <path
      d="M1.60327 5.77344H16.6033"
      stroke="currentColor"
      stroke-width="1.5"
      stroke-linecap="round"
      stroke-linejoin="round"
    ></path>
  </symbol>

  <symbol id="snipitz_logo" viewBox="0 0 70 18"> 
    <path clip-rule="evenodd" d="M54.2884 2.85594C54.8463 2.87135 55.3857 2.30755 55.3861 1.7081C55.3857 1.07329 54.908 0.546473 54.3208 0.537227C53.7242 0.527977 53.2077 1.06449 53.2015 1.70429C53.1954 2.31789 53.6856 2.83898 54.2884 2.85594ZM24.6229 3.88883C24.7973 3.88883 24.9717 3.88808 25.1461 3.88733C25.5298 3.88567 25.9135 3.88402 26.2972 3.89038C26.9031 3.90117 27.4242 4.45618 27.418 5.06823C27.4119 5.64791 26.917 6.13663 26.3003 6.1428C25.6972 6.14834 25.0941 6.14724 24.491 6.14613C24.0889 6.14539 23.6868 6.14465 23.2847 6.14588C22.6603 6.14588 22.2395 6.53439 22.2071 7.1264C22.1747 7.69837 22.537 8.14392 23.1429 8.20096C23.4219 8.22739 23.7033 8.22991 23.9849 8.23244C24.2618 8.23492 24.5389 8.2374 24.8141 8.26263C26.1677 8.38596 27.472 9.68716 27.6184 11.0254C27.7973 12.6719 26.9648 14.1226 25.531 14.5836C25.1009 14.7223 24.6337 14.7886 24.1805 14.8056C23.381 14.8351 22.5803 14.8261 21.7805 14.8172H21.7805L21.4177 14.8133C20.6207 14.8056 20.1535 14.3708 20.1659 13.6678C20.1767 13.0095 20.7163 12.547 21.4686 12.5455C21.728 12.545 21.9874 12.5454 22.2466 12.5458H22.2467C22.9504 12.5468 23.6536 12.5478 24.3578 12.5331C24.9251 12.5208 25.2936 12.2109 25.383 11.7345C25.5063 11.0778 25.0978 10.5551 24.4086 10.5043C24.1904 10.4886 23.9709 10.4809 23.7517 10.4732L23.7516 10.4732L23.7516 10.4732L23.7515 10.4732L23.7515 10.4732L23.7514 10.4732L23.7514 10.4732L23.7513 10.4732L23.7513 10.4732L23.7512 10.4732C23.3434 10.4589 22.936 10.4445 22.537 10.3794C21.1634 10.1558 19.8529 8.75906 19.9362 7.05394C20.0086 5.55541 21.2281 4.10005 22.702 3.92121C23.136 3.86828 23.5788 3.88222 24.0212 3.89616C24.2232 3.90252 24.425 3.90888 24.626 3.90888V3.88883H24.6229ZM66.0054 8.7391H64.2185C64.0953 8.7391 63.9721 8.73976 63.8489 8.74043L63.8485 8.74043C63.5526 8.74203 63.2569 8.74363 62.9621 8.73601C62.2159 8.71751 61.6917 8.24267 61.7071 7.61212C61.7241 6.94148 62.2097 6.51289 62.9667 6.51135C63.6091 6.51083 64.2514 6.51117 64.8938 6.51152C66.1785 6.5122 67.4633 6.51289 68.748 6.50672C69.2738 6.50364 69.6869 6.68093 69.8966 7.17273C70.1124 7.68149 69.9506 8.12088 69.5682 8.50168C68.3626 9.70266 67.1601 10.9067 65.9576 12.1123C65.8881 12.1818 65.8252 12.2571 65.7455 12.3524L65.7452 12.3527L65.7446 12.3534C65.6953 12.4123 65.6396 12.4789 65.5721 12.5563C65.6613 12.5646 65.7383 12.5729 65.8071 12.5803C65.9429 12.595 66.0469 12.6062 66.1503 12.6072C66.4845 12.61 66.8187 12.6098 67.1529 12.6096C67.7543 12.6092 68.3556 12.6089 68.9562 12.6257C69.485 12.6411 69.8411 12.9711 69.966 13.4721C70.0785 13.9161 69.9089 14.3925 69.5019 14.6299C69.3185 14.7363 69.0826 14.7995 68.8698 14.8011C67.0424 14.8123 65.215 14.8107 63.3864 14.8092L62.8372 14.8088C62.3407 14.8088 61.9707 14.5868 61.7888 14.1227C61.6069 13.6602 61.7256 13.2578 62.0802 12.9032C62.9652 12.0205 63.8446 11.1329 64.7241 10.2451L64.7302 10.239L64.7346 10.2345C65.0697 9.89631 65.4047 9.55809 65.7402 9.22011C65.8205 9.13871 65.8969 9.05339 65.9732 8.96806L65.9735 8.9678C66.0041 8.93362 66.0346 8.89944 66.0655 8.86552L66.0054 8.73601V8.7391ZM53.3408 6.92163C53.3413 7.2334 53.3418 7.54522 53.3418 7.85721C53.3418 7.85721 53.311 10.3224 53.4914 11.528C53.7195 13.045 54.7001 14.0564 56.1308 14.5528C57.657 15.0816 59.1047 14.8889 60.3612 13.7958C60.89 13.3349 60.9594 12.6874 60.5554 12.2033C60.1345 11.6976 59.4284 11.659 58.8719 12.1092C57.728 13.0342 56.0968 12.5717 55.7392 11.1564C55.6293 10.7201 55.6248 10.2583 55.6203 9.79578V9.79569C55.618 9.55713 55.6157 9.31839 55.5989 9.08286C55.5742 8.72211 55.7053 8.5849 56.0768 8.5926C56.9833 8.6111 57.8914 8.6034 58.7994 8.5926C58.9891 8.59106 59.1957 8.56794 59.3652 8.48931C59.8833 8.24881 60.1053 7.74005 59.9788 7.16037C59.8786 6.69786 59.4377 6.34943 58.895 6.34173C57.9453 6.32785 56.9957 6.32323 56.046 6.34173C55.6929 6.34943 55.5711 6.22147 55.5973 5.87922C55.6178 5.63352 55.6105 5.38541 55.6032 5.1381V5.13801L55.6004 5.04207C55.5835 4.36527 55.1163 3.88734 54.4842 3.89043C53.7997 3.89505 53.3465 4.34985 53.3418 5.05133C53.3387 5.67411 53.3398 6.29621 53.3408 6.91854V6.91871V6.91888V6.91905V6.91922V6.91939V6.91956V6.91973V6.92163ZM37.0011 11.9025C37.0011 12.0747 37.0016 12.2469 37.0022 12.4191V12.4192V12.4194V12.4196V12.4197V12.4199V12.4201V12.4203C37.0032 12.764 37.0042 13.1075 37.0011 13.4503C36.9934 14.1564 36.5217 14.6729 35.8973 14.6667C35.2297 14.6606 34.8042 14.195 34.8027 13.4642C34.8021 13.1096 34.8024 12.7547 34.8026 12.3998V12.3997V12.3997V12.3996V12.3996V12.3995V12.3995V12.3994C34.8031 11.7779 34.8035 11.1561 34.7996 10.535C34.7934 9.45271 33.964 8.59553 32.9233 8.58011C31.801 8.5647 30.9392 9.36484 30.9114 10.4887C30.8978 11.0576 30.8992 11.627 30.9006 12.1966V12.1966V12.1967V12.1967V12.1968V12.1969V12.1969V12.197V12.1972C30.9018 12.6601 30.9029 13.123 30.896 13.586C30.8883 14.0871 30.6062 14.4601 30.1745 14.6051C29.7074 14.7623 29.2248 14.6467 28.9334 14.2536C28.807 14.084 28.7006 13.8496 28.7022 13.6461C28.7029 13.359 28.7009 13.0714 28.6989 12.7837C28.6921 11.8014 28.6853 10.8173 28.7854 9.8443C29.0059 7.70289 31.2398 6.08102 33.3689 6.41403C35.6213 6.76708 36.9996 8.37352 37.0011 10.6475V11.9025ZM52.3298 11.687C52.3293 11.3658 52.3288 11.0445 52.3288 10.7233H52.3273H52.3257C52.3257 10.4213 52.3268 10.1194 52.3279 9.81744C52.3305 9.10033 52.333 8.38322 52.3211 7.66612C52.3118 7.02323 51.8293 6.51447 51.2789 6.51447C50.6561 6.51447 50.138 7.00473 50.1334 7.66612C50.1211 9.66261 50.118 11.6591 50.1365 13.6556C50.1442 14.3555 50.6221 14.8057 51.265 14.7995C51.9172 14.7918 52.3242 14.3447 52.3288 13.6124C52.3319 12.9721 52.3309 12.3311 52.3298 11.6898V11.6896V11.6894V11.6893V11.6891V11.6889V11.687ZM40.0618 10.7123C40.0618 11.0051 40.0627 11.2977 40.0635 11.5903V11.5905V11.5907V11.5908V11.591V11.5912C40.0654 12.2735 40.0674 12.9556 40.0588 13.6384C40.0495 14.3353 39.7042 14.7392 39.1075 14.7978C38.4477 14.8641 37.9004 14.4386 37.8942 13.7726C37.8742 11.6974 37.8803 9.62078 37.8942 7.54566C37.8973 7.0369 38.3644 6.5898 38.8886 6.52043C39.3573 6.45876 39.809 6.75322 39.9678 7.25428C40.0341 7.46241 40.0588 7.69212 40.0603 7.91104C40.0672 8.61063 40.0664 9.31109 40.0655 10.0111V10.0113C40.0652 10.2445 40.0649 10.4777 40.0649 10.7108L40.0618 10.7123ZM68.774 5.49368C68.1558 5.48752 67.6856 5.00805 67.6995 4.39908C67.7118 3.82557 68.2406 3.32143 68.8265 3.32606C69.3876 3.33068 69.8856 3.84715 69.8794 4.41758C69.8733 5.00805 69.3676 5.49985 68.774 5.49368ZM8.37321 17.3944C7.82467 17.3944 7.27599 17.3907 6.72725 17.3871C5.46076 17.3786 4.19397 17.3702 2.92794 17.4067C1.20586 17.4561 -0.0182463 15.9976 0.000254053 14.4852C0.0495884 10.8283 0.0511301 7.16987 0.000254053 3.51451C-0.0213297 1.90189 1.33536 0.563699 2.92485 0.589908C6.58176 0.648493 10.2417 0.633076 13.8987 0.597617C15.5144 0.5822 16.8294 1.74464 16.8356 3.51297C16.8495 7.19762 16.8495 10.8838 16.8356 14.5685C16.8294 16.1919 15.6084 17.3882 13.9865 17.3944C12.6765 17.3987 11.3672 17.3978 10.0576 17.3968C9.4962 17.3964 8.93478 17.396 8.37321 17.396V17.3944ZM7.88295 15.0726C7.88142 15.0864 7.87988 15.1018 7.87987 15.1156L7.87698 15.1154L7.87696 15.1156C7.78525 15.1102 7.69333 15.106 7.60128 15.1025C7.46569 15.0975 7.32982 15.094 7.19397 15.0904L7.19386 15.0904H7.19382C6.75712 15.0791 6.32059 15.0678 5.89369 15.0057C5.82011 14.9951 5.74682 14.9831 5.67386 14.9693C3.76986 14.6085 2.81401 12.5704 3.73132 10.8653C3.93328 10.4891 3.9487 10.2548 3.71128 9.87705C2.06629 7.27004 3.3906 3.90297 6.363 3.10129C6.44556 3.07902 6.52935 3.06036 6.61405 3.04467C6.86182 2.99826 7.11726 2.97813 7.37165 2.96776C7.46379 2.96394 7.55579 2.96142 7.64723 2.95945C8.53688 2.94065 9.42789 2.93949 10.3177 2.95342L10.4932 2.95637C10.9986 2.96511 11.4467 3.07289 11.8375 3.27563C12.3443 3.53795 12.7555 3.9592 13.0708 4.53049C13.6042 5.49867 13.5579 6.45915 12.9567 7.37338C12.7885 7.6292 12.8937 7.78588 13.0136 7.96457L13.0399 8.00393C14.1376 9.66126 14.1284 11.6901 12.969 13.292C12.0748 14.5269 10.7829 15.0109 9.30594 15.0695C8.98061 15.0822 8.65456 15.0789 8.32828 15.0756H8.32825H8.32823H8.3282H8.32807L8.32792 15.0756C8.17963 15.0741 8.03129 15.0726 7.88295 15.0726ZM7.87696 15.1156L7.87987 15.1157H7.87694L7.87696 15.1156ZM43.345 15.0563L43.345 15.0544C43.3444 14.882 43.3438 14.7124 43.3438 14.547L43.3454 14.5501C43.5951 14.5793 43.8341 14.6143 44.0656 14.6482L44.0657 14.6482C44.5545 14.7197 45.0107 14.7865 45.4668 14.7844C47.6251 14.7752 49.3719 13.104 49.5368 10.9502C49.7403 8.28 47.1549 6.04454 44.5186 6.61188C42.5992 7.02351 41.1808 8.54671 41.1269 10.3967C41.0755 12.1132 41.0906 13.8331 41.1057 15.5525V15.5528C41.1082 15.844 41.1108 16.1352 41.113 16.4263C41.1192 17.1355 41.7991 17.6026 42.4897 17.4253C43.0309 17.2866 43.333 16.8935 43.3423 16.2845C43.3477 15.8704 43.3463 15.4556 43.345 15.0563ZM45.3462 8.73171L45.3465 8.73171L45.3466 8.73177C45.9751 8.73541 46.5263 9.02161 46.8811 9.47113C47.1465 9.80675 47.3025 10.2336 47.2998 10.702C47.2937 11.7457 46.3825 12.6399 45.3326 12.6337C44.8772 12.6306 44.4646 12.4841 44.1351 12.2352C43.6476 11.8677 43.3414 11.2758 43.3451 10.5911C43.3513 9.52729 44.2146 8.72406 45.3447 8.73023L45.3462 8.73171ZM7.44333 13.0746L7.44304 13.0746C7.1032 13.0769 6.7636 13.0791 6.42473 13.0695C5.50897 13.0433 5.13588 12.3541 5.61072 11.5802C6.21506 10.5935 6.19348 9.93676 5.51051 9.00558C4.90308 8.17614 4.80595 7.27888 5.23763 6.36465C5.66622 5.45659 6.45094 4.98175 7.43609 4.92779C8.4089 4.87383 9.38942 4.8877 10.3638 4.917C11.2718 4.94475 11.6449 5.70943 11.1547 6.46794C10.5966 7.32975 10.6305 8.08827 11.2641 8.93312C12.2338 10.2251 12.0072 11.9178 10.6983 12.6764C10.2967 12.9086 9.78579 12.9803 9.30712 13.0475H9.30711L9.22754 13.0587C8.92437 13.1014 8.61381 13.0909 8.30353 13.0804H8.30351C8.16569 13.0757 8.02793 13.071 7.89089 13.071L7.88935 13.0726C7.74066 13.0726 7.59197 13.0736 7.44333 13.0746ZM10.9218 11.0498C10.8178 11.4866 10.5727 11.852 10.208 12.0357C10.0671 12.1069 9.90822 12.1507 9.73275 12.1608L9.72233 12.1614C8.92647 12.2009 8.12894 12.1949 7.33098 12.1889C7.18142 12.1878 7.03185 12.1866 6.88227 12.1858C6.74102 12.1851 6.59981 12.1846 6.45865 12.1846C6.4362 12.1846 6.41374 12.1677 6.38905 12.1491C6.37645 12.1396 6.36326 12.1297 6.34919 12.1213C6.39619 12.015 6.44685 11.9104 6.49729 11.8063L6.4973 11.8062C6.61065 11.5722 6.7229 11.3404 6.79012 11.0961C7.0445 10.1773 6.84408 9.34013 6.2644 8.58007C5.70939 7.85393 5.64926 7.15246 6.16727 6.51265C6.40469 6.21819 6.79783 5.89597 7.14162 5.86976C7.34419 5.85412 7.54709 5.84326 7.75077 5.83595C8.32513 5.81529 8.90593 5.82282 9.5028 5.83056H9.50283C9.82121 5.83469 10.1442 5.83887 10.4731 5.83887H10.4716L10.4716 5.83893C10.4425 5.8993 10.4194 5.94917 10.3995 5.99218L10.3995 5.99223C10.3665 6.0634 10.3422 6.11576 10.3143 6.16571C9.67916 7.2927 9.75625 8.37497 10.5225 9.40945C10.8879 9.90279 11.0698 10.43 10.9218 11.0498Z" fill="currentColor" fill-rule="evenodd" id="snipitz"/>
  </symbol>

  <symbol id="scraperapi_logo" viewBox="0 0 90 16">
    <g clip-path="url(#clip0_3800_7238)" id="scraperapi-logo 1">
      <path d="M3.71875 12.7339H9.08645C9.89533 12.7339 10.6796 12.2893 11.0718 11.5729C11.4885 10.8565 11.4885 9.96717 11.0718 9.25079C10.6551 8.53437 9.89533 8.08971 9.08645 8.08971H7.76291H6.41485C5.58154 8.11443 4.79719 7.66978 4.38052 6.9534C3.96385 6.23698 3.96385 5.32295 4.38052 4.60657C4.79719 3.89017 5.58154 3.44551 6.41485 3.47022H11.3659" id="Vector" stroke="currentColor" stroke-linecap="round" stroke-linejoin="round" stroke-width="1.2"/>
      <path d="M10.1401 1.19729H6.43912C4.79693 1.17259 3.27732 2.0372 2.44398 3.46999C1.61063 4.90279 1.63514 6.6567 2.44398 8.08949C3.25281 9.52229 4.79693 10.3869 6.43912 10.3622H8.39995" id="Vector_2" stroke="currentColor" stroke-linecap="round" stroke-linejoin="round" stroke-width="1.2"/>
      <path d="M5.35938 14.9815H9.0604C11.5849 14.9815 13.5948 12.9311 13.5948 10.4114C13.5948 7.8917 11.5604 5.84131 9.0604 5.84131H7.09957" id="Vector_3" stroke="currentColor" stroke-linecap="round" stroke-linejoin="round" stroke-width="1.2"/>
      <path d="M12.6643 4.80409C13.3817 4.80409 13.9633 4.21791 13.9633 3.49482C13.9633 2.77173 13.3817 2.18555 12.6643 2.18555C11.9469 2.18555 11.3652 2.77173 11.3652 3.49482C11.3652 4.21791 11.9469 4.80409 12.6643 4.80409Z" id="Vector_4" stroke="currentColor" stroke-linecap="round" stroke-linejoin="round" stroke-width="1.2"/>
      <path d="M2.19943 14.0922C2.91687 14.0922 3.49847 13.506 3.49847 12.7829C3.49847 12.0598 2.91687 11.4736 2.19943 11.4736C1.48199 11.4736 0.900391 12.0598 0.900391 12.7829C0.900391 13.506 1.48199 14.0922 2.19943 14.0922Z" id="Vector_5" stroke="currentColor" stroke-linecap="round" stroke-linejoin="round" stroke-width="1.2"/>
      <path d="M23.9104 12.2267C25.8976 12.2267 27.0496 11.3123 27.0496 10.0352C27.0496 8.83053 26.3152 8.20646 24.256 7.82911C22.9024 7.58238 22.4848 7.30662 22.4848 6.78414C22.4848 6.33422 23.0896 5.89881 23.9824 5.89881C24.9184 5.89881 25.5376 6.27616 25.8688 7.16149L26.992 6.31971C26.4736 5.20217 25.5664 4.67969 23.968 4.67969C22.0384 4.67969 20.944 5.75368 20.944 6.92927C20.944 8.1484 21.6928 8.77248 23.8384 9.17886C25.0912 9.42559 25.5088 9.68683 25.5088 10.1367C25.5088 10.6302 24.9904 11.0076 23.968 11.0076C22.96 11.0076 22.1104 10.6737 21.736 9.80294L20.6992 10.7028C21.304 11.7623 22.5136 12.2267 23.9104 12.2267Z" fill="currentColor" id="Vector_6"/>
      <path d="M31.6481 4.67969C29.4017 4.67969 28.0625 6.08749 28.0625 8.45319C28.0625 10.8189 29.4017 12.2267 31.6769 12.2267C33.3473 12.2267 34.4273 11.3849 34.8305 10.0642L33.4193 9.58524C33.2321 10.4851 32.6417 10.993 31.6481 10.993C30.3809 10.993 29.6177 10.1077 29.6177 8.4677C29.6177 6.82768 30.3665 5.91333 31.6481 5.91333C32.5409 5.91333 33.0881 6.39227 33.3329 7.29211L34.7729 6.71157C34.3265 5.52146 33.3905 4.67969 31.6481 4.67969Z" fill="currentColor" id="Vector_7"/>
      <path d="M39.9203 4.67969C38.7971 4.67969 38.0339 5.18765 37.6451 6.13103L37.5155 4.82482H36.2051V12.0816H37.7459V8.23548C37.7459 6.75511 38.6963 6.05846 39.5603 6.05846C39.9491 6.05846 40.2659 6.13103 40.4675 6.24714L40.7123 4.82482C40.5107 4.72323 40.2083 4.67969 39.9203 4.67969Z" fill="currentColor" id="Vector_8"/>
      <path d="M47.802 11.0656C47.4132 11.0656 47.2696 10.8914 47.2696 10.5286V7.24857C47.2696 5.50695 46.0312 4.67969 44.231 4.67969C42.6614 4.67969 41.5526 5.41987 41.207 6.56643L42.4022 7.20503C42.7046 6.29068 43.367 5.89881 44.2598 5.89881C45.196 5.89881 45.7288 6.46484 45.7288 7.33565V7.72751L43.8998 8.04681C42.0134 8.38062 41.0918 9.20788 41.0918 10.3254C41.0918 11.5881 42.0854 12.2267 43.439 12.2267C44.5046 12.2267 45.4264 11.8348 45.8728 11.1527C46.0312 11.9509 46.5496 12.2267 47.3412 12.2267C47.7016 12.2267 48.0036 12.1541 48.234 12.0525L48.3352 11.0076C48.1764 11.0511 47.9892 11.0656 47.802 11.0656ZM43.7702 11.0511C43.0934 11.0511 42.6902 10.7608 42.6902 10.2238C42.6902 9.64329 43.1798 9.30948 44.159 9.1208L45.7288 8.80151V9.67232C45.7288 10.5431 44.735 11.0511 43.7702 11.0511Z" fill="currentColor" id="Vector_9"/>
      <path d="M53.2349 4.67969C52.0829 4.67969 51.2045 5.28925 50.7869 6.17457L50.7149 4.82482H49.3613V15.1294H50.9021V10.9205C51.3341 11.7042 52.1693 12.2267 53.2349 12.2267C55.1933 12.2267 56.4173 10.8189 56.4173 8.43867C56.4173 6.07298 55.1933 4.67969 53.2349 4.67969ZM52.8893 10.964C51.7229 10.964 50.9741 10.1222 50.9021 8.72894V8.17743C50.9741 6.76962 51.7229 5.92784 52.8893 5.92784C54.1277 5.92784 54.8765 6.87122 54.8765 8.45319C54.8765 10.0352 54.1277 10.964 52.8893 10.964Z" fill="currentColor" id="Vector_10"/>
      <path d="M64.4228 8.23548C64.4228 6.13103 63.2424 4.67969 61.0824 4.67969C58.836 4.67969 57.5684 6.08749 57.5684 8.45319C57.5684 10.8189 58.908 12.2267 61.1832 12.2267C62.7672 12.2267 63.7604 11.6171 64.2788 10.5431L62.9976 10.0061C62.7672 10.6447 62.1336 10.993 61.1832 10.993C60.0312 10.993 59.268 10.3109 59.0952 9.03372H64.3656C64.3944 8.84505 64.4228 8.51124 64.4228 8.23548ZM61.0824 5.91333C62.148 5.91333 62.8248 6.62449 62.9832 7.84362H59.0952C59.268 6.59546 59.9592 5.91333 61.0824 5.91333Z" fill="currentColor" id="Vector_11"/>
      <path d="M69.6351 4.67969C68.5119 4.67969 67.7487 5.18765 67.3599 6.13103L67.2303 4.82482H65.9199V12.0816H67.4607V8.23548C67.4607 6.75511 68.4111 6.05846 69.2751 6.05846C69.6639 6.05846 69.9807 6.13103 70.1823 6.24714L70.4271 4.82482C70.2255 4.72323 69.9231 4.67969 69.6351 4.67969Z" fill="currentColor" id="Vector_12"/>
      <path d="M77.6713 11.0656C77.2825 11.0656 77.1385 10.8914 77.1385 10.5286V7.24857C77.1385 5.50695 75.9001 4.67969 74.1001 4.67969C72.5305 4.67969 71.4217 5.41987 71.0761 6.56643L72.2713 7.20503C72.5737 6.29068 73.2361 5.89881 74.1289 5.89881C75.0649 5.89881 75.5977 6.46484 75.5977 7.33565V7.72751L73.7689 8.04681C71.8825 8.38062 70.9609 9.20788 70.9609 10.3254C70.9609 11.5881 71.9545 12.2267 73.3081 12.2267C74.3737 12.2267 75.2953 11.8348 75.7417 11.1527C75.9001 11.9509 76.4185 12.2267 77.2105 12.2267C77.5705 12.2267 77.8729 12.1541 78.1033 12.0525L78.2041 11.0076C78.0457 11.0511 77.8585 11.0656 77.6713 11.0656ZM73.6393 11.0511C72.9625 11.0511 72.5593 10.7608 72.5593 10.2238C72.5593 9.64329 73.0489 9.30948 74.0281 9.1208L75.5977 8.80151V9.67232C75.5977 10.5431 74.6041 11.0511 73.6393 11.0511Z" fill="currentColor" id="Vector_13"/>
      <path d="M83.106 4.67969C81.954 4.67969 81.0756 5.28925 80.658 6.17457L80.586 4.82482H79.2324V15.1294H80.7732V10.9205C81.2052 11.7042 82.0404 12.2267 83.106 12.2267C85.0644 12.2267 86.2884 10.8189 86.2884 8.43867C86.2884 6.07298 85.0644 4.67969 83.106 4.67969ZM82.7604 10.964C81.594 10.964 80.8452 10.1222 80.7732 8.72894V8.17743C80.8452 6.76962 81.594 5.92784 82.7604 5.92784C83.9988 5.92784 84.7476 6.87122 84.7476 8.45319C84.7476 10.0352 83.9988 10.964 82.7604 10.964Z" fill="currentColor" id="Vector_14"/>
      <path d="M88.6325 3.60607C89.2949 3.60607 89.6549 3.24324 89.6549 2.63367C89.6549 2.0241 89.2949 1.67578 88.6325 1.67578C87.9701 1.67578 87.5957 2.0241 87.5957 2.63367C87.5957 3.24324 87.9701 3.60607 88.6325 3.60607ZM89.3957 4.8252H87.8549V12.0819H89.3957V4.8252Z" fill="currentColor" id="Vector_15"/>
    </g>
    <defs>
    <clipPath id="clip0_3800_7238">
    <rect fill="white" height="15.4206" transform="translate(0 0.289551)" width="90"/>
    </clipPath>
    </defs>
  </symbol>

  
  <symbol id="nitropack_logo" viewBox="0 0 53 20">
    <path clip-rule="evenodd" d="M27.0252 10.4187C27.0252 5.62361 23.138 1.73644 18.3517 1.73644C13.5655 1.73644 9.67834 5.62361 9.67834 10.4187H7.94189C7.94189 4.66284 12.6047 0 18.3517 0C24.0988 0 28.7616 4.66284 28.7616 10.4187H27.0252ZM16.7651 8.44423C16.58 8.81444 16.5712 9.25516 16.7475 9.63418C16.9238 10.0132 17.2588 10.2865 17.673 10.3746C18.0785 10.4716 18.5016 10.3746 18.8277 10.1102L23.8167 6.32877L17.7171 7.73026C17.3028 7.80959 16.9591 8.07403 16.7651 8.44423ZM5.82635 19.8761H7.27191V12.3045H5.57073V16.9321L2.03614 12.2957H0V19.8497H1.75407V14.6492L5.82635 19.8761ZM9.7047 12.3045H7.96825V13.6355H9.7047V12.3045ZM9.7047 14.3495H7.96825V19.8585H9.7047V14.3495ZM13.4508 19.8585H15.152H15.1608V18.3336H14.1295C13.4861 18.3336 13.3098 18.0956 13.3098 17.4962V15.7862H15.1608V14.3495H13.3098V12.3045H11.591V14.3495H10.1807V15.7862H11.591V18.1044C11.591 19.2503 12.1816 19.8585 13.4508 19.8585ZM15.725 19.8585H17.435V17.1701C17.435 16.4032 17.7875 16.0418 18.7571 16.0418H20.2556V14.3407H19.0833C17.9374 14.3407 17.5496 14.9577 17.435 15.2133V14.3495H15.725V19.8585ZM23.3759 19.9907C25.0947 19.9907 26.364 18.8008 26.364 17.0996C26.364 15.3984 25.0859 14.2084 23.3759 14.2084C21.6571 14.2084 20.3878 15.3984 20.3878 17.0996C20.3878 18.8008 21.6571 19.9907 23.3759 19.9907ZM23.3759 15.7069C24.1428 15.7069 24.6452 16.2975 24.6452 17.0996C24.6452 17.9017 24.1339 18.4923 23.3759 18.4923C22.6179 18.4923 22.089 17.8929 22.089 17.0996C22.089 16.3063 22.609 15.7069 23.3759 15.7069ZM31.4323 12.3045H27.0603V19.8585H28.8408V17.1965H31.4323C33.1335 17.1965 34.1207 16.3239 34.1207 14.7373C34.1207 13.1595 33.1247 12.3045 31.4323 12.3045ZM28.832 15.6276V13.8823H31.256C31.9435 13.8823 32.2785 14.1732 32.2785 14.7549C32.2785 15.3014 31.9435 15.6276 31.256 15.6276H28.832ZM36.5711 19.9731C37.717 19.9731 38.2282 19.2327 38.3252 19.0476V19.8497H40.0087V14.3407H38.3076V15.1075C38.2106 14.9224 37.6817 14.2349 36.5799 14.2349C35.1961 14.2349 34.0943 15.3102 34.0943 17.0996C34.0943 18.8889 35.2049 19.9731 36.5711 19.9731ZM35.8219 17.1084C35.8219 16.3151 36.3243 15.7157 37.0824 15.7157C37.8404 15.7157 38.3252 16.3151 38.3252 17.1084C38.3252 17.9017 37.8404 18.5011 37.0824 18.5011C36.3243 18.5011 35.8219 17.9017 35.8219 17.1084ZM43.4728 15.7157C43.8871 15.6893 44.2837 15.9008 44.4953 16.271L46.1436 16.2798C46.0643 15.4865 45.3327 14.2173 43.4111 14.2173C41.8245 14.2173 40.5817 15.3631 40.5817 17.1084C40.5817 18.8537 41.8421 19.9995 43.4376 19.9995C45.3591 19.9995 46.0995 18.7126 46.1524 17.9458H44.5129C44.46 18.078 44.1603 18.5099 43.4816 18.5099C42.7588 18.5099 42.3005 17.9017 42.3005 17.1084C42.3005 16.3151 42.7589 15.7157 43.4728 15.7157ZM48.4265 19.8585V17.3993L50.683 19.8497H52.8955L50.1454 16.8792L52.7544 14.3407H50.6037L48.4265 16.5002V12.0225H46.7253V19.8585H48.4265Z" fill="currentColor" fill-rule="evenodd" id="Union"/>
  </symbol> 

 
  <symbol id="bright_data_logo" fill="currentColor" viewBox="0 0 72 18"> 
    <path clip-rule="evenodd" d="M18.375 1.41557C18.1367 1.13855 17.894 0.85638 17.856 0.423828C17.614 0.559193 17.5103 0.74064 17.4556 0.962408C17.4398 1.02764 17.4271 1.09355 17.4143 1.15932C17.3899 1.28521 17.3657 1.41061 17.3203 1.52979C17.3119 1.55215 17.3038 1.57651 17.2955 1.60144C17.2356 1.7819 17.1658 1.99187 16.9026 1.68819C16.8306 1.60179 16.4303 1.26194 16.6751 1.75155C16.7884 1.97805 16.6864 2.21198 16.584 2.44683C16.5301 2.57034 16.4762 2.69411 16.4534 2.81719C16.2748 3.7993 17.0927 4.62301 18.0662 4.43581C18.887 4.28028 19.3795 3.53434 19.2384 2.65591C19.2351 2.63419 19.2316 2.61201 19.2281 2.58943C19.1711 2.22273 19.0974 1.74866 19.1923 1.37426C19.0656 1.39039 18.9683 1.55956 18.9035 1.67228C18.8874 1.70043 18.8732 1.72507 18.8611 1.74291C18.8064 1.82068 18.7402 1.89844 18.6681 1.78899C18.583 1.65736 18.4795 1.53696 18.375 1.41557ZM22.5796 10.2367C21.4362 9.53685 21.1107 8.48273 21.3354 7.25581C21.5687 5.98857 22.473 5.31175 23.651 5.02374C24.8692 4.7242 26.0818 4.77605 27.1935 5.45575C27.3576 5.55734 27.444 5.48223 27.5399 5.39877L27.54 5.39871L27.5401 5.39866L27.5404 5.39833C27.5504 5.38965 27.5605 5.38089 27.5708 5.37223C28.0028 5.00933 28.5126 4.87685 29.0656 4.84517C29.2931 4.83077 29.3651 4.91429 29.3564 5.13606C29.342 5.51335 29.3449 5.89352 29.3564 6.2737C29.3622 6.4609 29.3017 6.54155 29.1059 6.53003C28.9832 6.52452 28.8599 6.52626 28.7369 6.52799C28.6028 6.52989 28.4691 6.53178 28.3369 6.52427C28.1007 6.51275 28.0258 6.55307 28.0834 6.8238C28.3225 7.94704 28.0662 8.94643 27.1906 9.72118C26.3957 10.4239 25.4251 10.6284 24.3912 10.5967L24.3228 10.5943C24.1981 10.5902 24.0727 10.5861 23.9534 10.5593C23.602 10.4873 23.3889 10.5996 23.3226 10.9654C23.242 11.4089 23.3687 11.72 23.7172 11.8496C23.9587 11.9387 24.2175 11.9503 24.4734 11.9618L24.4747 11.9619C24.8048 11.9763 25.1354 11.9719 25.466 11.9675C25.9918 11.9604 26.5174 11.9534 27.0408 12.0224C27.8847 12.1347 28.6796 12.3565 29.0137 13.2464C29.3795 14.2199 29.247 15.153 28.5875 15.9739C27.8012 16.9502 26.7096 17.3506 25.5173 17.509C24.5006 17.6472 23.4897 17.5867 22.5248 17.1893C21.4045 16.7285 20.8688 15.7636 21.1309 14.6778C21.2778 14.0701 21.6637 13.6468 22.1936 13.3386C22.2103 13.3289 22.2282 13.3201 22.2457 13.3113C22.3434 13.2628 22.4329 13.2183 22.2743 13.0621C21.4362 12.247 21.4534 11.288 22.3031 10.4844C22.3438 10.4466 22.3875 10.408 22.4341 10.3669L22.4344 10.3666L22.4344 10.3666L22.4345 10.3665C22.48 10.3263 22.5284 10.2836 22.5796 10.2367ZM24.9038 16.4289C25.1774 16.4405 25.4424 16.3915 25.7045 16.3339C26.2488 16.2129 26.7154 15.9595 26.9976 15.4526C27.5218 14.5165 27.0668 13.6669 26.027 13.5575C25.6288 13.516 25.2306 13.5303 24.8327 13.5445H24.8327C24.4018 13.56 23.9713 13.5754 23.5415 13.52C23.3893 13.4999 23.3259 13.6173 23.2684 13.7236L23.2679 13.7245C22.9338 14.3697 22.9569 15.0292 23.2679 15.6628C23.5924 16.3232 24.2377 16.3752 24.8651 16.4258L24.9038 16.4289ZM23.4638 7.61294C23.4551 8.09392 23.4868 8.5317 23.6769 8.94067C23.8958 9.40725 24.3019 9.63765 24.8376 9.60597C25.3041 9.57717 25.6728 9.2834 25.8053 8.78802C25.9954 8.07952 26.004 7.36238 25.8082 6.65099C25.667 6.14409 25.3185 5.89064 24.7828 5.87336C24.1838 5.8532 23.8123 6.07497 23.6193 6.57035C23.4839 6.91884 23.4465 7.28173 23.4638 7.61294ZM32.9508 9.50229C32.9508 9.72169 32.9521 9.94108 32.9533 10.1605C32.9563 10.687 32.9593 11.2136 32.945 11.7401C32.9364 12.0368 33.0343 12.1606 33.3252 12.1779C33.3587 12.18 33.395 12.1805 33.4325 12.181C33.6044 12.1833 33.7997 12.186 33.8494 12.3421C33.9098 12.5304 33.8934 12.7449 33.8772 12.9555L33.8771 12.9558L33.8771 12.9561C33.8733 13.0062 33.8694 13.0561 33.8667 13.1053C33.858 13.2435 33.6334 13.2176 33.6334 13.2176L30.3299 13.2205C30.3299 13.2205 30.0563 13.16 30.0765 12.967C30.0851 12.8835 30.088 12.7942 30.0765 12.7107C30.0217 12.3536 30.137 12.1577 30.5315 12.1635C30.8167 12.1664 30.9002 12.0137 30.9002 11.7228C30.8858 9.20276 30.8858 6.68555 30.9002 4.16546C30.9031 3.83425 30.7965 3.69889 30.4854 3.68449C30.4365 3.68161 30.3875 3.67297 30.3414 3.66433C29.9296 3.60097 29.7309 3.21215 29.9008 2.82622C29.9408 2.73292 30.0128 2.72351 30.0896 2.71349L30.1081 2.71102C30.3904 2.67166 30.6726 2.63262 30.9548 2.59358C31.5193 2.5155 32.0839 2.43741 32.6484 2.35676C32.8846 2.3222 32.9364 2.43453 32.9335 2.64765C32.9278 3.61249 32.9335 4.5802 32.9393 5.54503C32.9393 5.57122 32.9348 5.60013 32.9303 5.62954C32.9173 5.71333 32.9037 5.80118 32.9911 5.84168C33.0737 5.8786 33.1447 5.8189 33.2117 5.7626C33.2336 5.74424 33.255 5.72624 33.2763 5.71208C34.0136 5.21094 34.8114 4.92581 35.7215 4.97477C36.7324 5.0295 37.3487 5.53639 37.5503 6.54731C37.6713 7.14925 37.7001 7.75983 37.6972 8.37041C37.6951 8.77049 37.6964 9.17093 37.6977 9.57149V9.57161V9.57173V9.57185C37.7 10.2842 37.7023 10.9969 37.6857 11.7084C37.6799 12.031 37.7923 12.1405 38.086 12.1693C38.126 12.1725 38.1709 12.1724 38.217 12.1722C38.3737 12.1717 38.5449 12.1711 38.5872 12.3046C38.6449 12.4933 38.6342 12.7059 38.6236 12.916V12.9161C38.6204 12.9786 38.6173 13.041 38.616 13.1024C38.6131 13.2205 38.4172 13.209 38.4172 13.209L35.1138 13.2119C35.1138 13.2119 34.8805 13.1283 34.8834 12.967C34.8839 12.9454 34.8847 12.9236 34.8855 12.9018C34.8888 12.8133 34.892 12.7236 34.8805 12.6358C34.843 12.3449 34.9726 12.1981 35.2578 12.1865C35.5631 12.1721 35.6552 12.0281 35.6466 11.7171C35.6302 11.1491 35.6348 10.5812 35.6394 10.0134C35.6461 9.18767 35.6528 8.36236 35.5947 7.53806C35.5199 6.48395 34.987 6.11241 33.9617 6.3889C33.9209 6.40033 33.881 6.41268 33.8415 6.42491L33.8415 6.42493L33.8414 6.42497C33.8112 6.43429 33.7814 6.44355 33.7515 6.45226C33.0113 6.68267 32.9479 6.76619 32.9479 7.52078C32.9508 8.1832 32.9508 8.84275 32.9508 9.50229ZM1.02202 8.30129C1.02202 7.95936 1.02166 7.61726 1.0213 7.27507C1.02022 6.24813 1.01914 5.22039 1.02778 4.19427C1.03066 3.9293 0.97882 3.77089 0.68505 3.77665C0.656137 3.77665 0.626091 3.76872 0.595622 3.76067L0.595614 3.76067C0.577524 3.75589 0.559284 3.75107 0.541045 3.74785C0.0917491 3.67009 -0.104098 3.32448 0.0543078 2.90686C0.0919006 2.80751 0.162039 2.79828 0.239047 2.78815L0.255915 2.7859C0.476998 2.75548 0.698272 2.72525 0.919589 2.69502L0.91969 2.69501L0.919754 2.695L0.919842 2.69499C1.55762 2.60787 2.19576 2.5207 2.83072 2.42876C3.07553 2.3942 3.08417 2.52381 3.08417 2.70525C3.08129 3.57216 3.08129 4.44195 3.08417 5.30886C3.08417 5.33386 3.08173 5.36103 3.07923 5.38884C3.07022 5.48918 3.06045 5.59785 3.16194 5.64296C3.23847 5.67697 3.30559 5.61369 3.37024 5.55274C3.39318 5.53111 3.4158 5.50978 3.43842 5.49319C4.80071 4.48228 7.02703 4.74149 7.72689 6.78348C8.27123 8.37041 8.27699 9.96887 7.4504 11.4723C6.76782 12.7136 5.66762 13.3415 4.23909 13.3703C3.26562 13.3904 2.31519 13.2839 1.38491 12.9757C1.11706 12.8864 1.0105 12.751 1.01626 12.4486C1.02673 11.4412 1.02502 10.4368 1.02331 9.43206V9.43203C1.02266 9.05521 1.02202 8.67836 1.02202 8.30129ZM3.08129 9.42165C3.08129 9.64876 3.08176 9.87588 3.08223 10.103C3.08341 10.6708 3.08458 11.2386 3.07841 11.8064C3.07553 12.0253 3.13025 12.1779 3.3405 12.2787C3.88772 12.5379 4.57894 12.4227 4.99944 11.9878C5.27881 11.6998 5.44873 11.3513 5.56394 10.974C5.86059 10.0063 5.84331 9.02131 5.73962 8.03056C5.70545 7.70167 5.61484 7.38112 5.47178 7.08301C5.0484 6.2017 4.12677 5.97417 3.32898 6.54731C3.15618 6.67115 3.07553 6.81516 3.07841 7.03692C3.08648 7.59336 3.08466 8.14979 3.08285 8.70623C3.08207 8.9447 3.08129 9.18317 3.08129 9.42165ZM52.262 12.5176C51.7954 12.9381 51.2799 13.2549 50.6434 13.3701C49.3761 13.6005 48.1377 12.9698 47.6222 11.7889C46.9568 10.2596 46.9597 8.71587 47.5933 7.18653C48.2587 5.57944 49.981 4.69525 51.6946 5.03798C52.1871 5.1359 52.2418 5.08982 52.2418 4.59156C52.2418 4.53053 52.2404 4.46949 52.239 4.40845L52.239 4.40796C52.2359 4.27331 52.2328 4.13867 52.2447 4.00402C52.2706 3.71025 52.1727 3.56049 51.8588 3.59217C51.7081 3.60629 51.5613 3.57808 51.4152 3.55001C51.3825 3.54373 51.3499 3.53747 51.3173 3.53169C50.9371 3.46256 50.8565 3.35312 50.9227 2.96431C50.9429 2.84622 50.9948 2.80014 51.11 2.78574L51.1973 2.77478C51.9259 2.68338 52.6569 2.59167 53.3852 2.49197C53.6848 2.45165 53.7222 2.59853 53.7222 2.85198C53.7164 5.79832 53.7164 8.74179 53.7193 11.6881V11.9819C53.7251 12.267 53.8201 12.4427 54.1571 12.4053C54.1707 12.4037 54.185 12.4018 54.1998 12.3998C54.3481 12.3799 54.5433 12.3537 54.5171 12.6155C54.5113 12.6737 54.5191 12.7379 54.5269 12.8026C54.55 12.9941 54.5737 13.1896 54.2464 13.2434C54.1237 13.2643 54.0032 13.2931 53.8829 13.3218C53.6387 13.3801 53.3951 13.4383 53.1347 13.4306C52.5471 13.4133 52.4722 13.3643 52.3398 12.7998C52.3311 12.771 52.3301 12.7398 52.3292 12.7078V12.7078C52.3273 12.6441 52.3252 12.577 52.262 12.5176ZM52.24 8.24032L52.2399 8.23773V8.23753V8.23733V8.23713C52.2376 7.66151 52.2352 7.08632 52.2476 6.51259C52.2534 6.25338 52.1669 6.08921 51.9452 5.99129C51.0293 5.58808 49.7736 5.76088 49.2667 6.81788C49.0276 7.31902 48.8894 7.83744 48.8376 8.39041C48.7569 9.23428 48.7281 10.0695 49.0132 10.8817C49.2235 11.4836 49.5345 12.0049 50.197 12.2267C50.9141 12.4658 51.5074 12.2152 52.069 11.8005C52.2245 11.6853 52.2476 11.5268 52.2447 11.3483C52.2404 10.7435 52.2409 10.1386 52.2415 9.53381C52.2416 9.33221 52.2418 9.1306 52.2418 8.92899C52.2418 8.69941 52.2409 8.46983 52.24 8.24032ZM60.5336 9.65766C60.5336 9.93631 60.5347 10.1983 60.5356 10.4484C60.5379 11.036 60.54 11.5586 60.5279 12.0798C60.5221 12.3678 60.5826 12.509 60.9052 12.4859C60.9334 12.4839 60.9649 12.4783 60.9978 12.4726C61.1492 12.446 61.3287 12.4145 61.3429 12.6962L61.3432 12.7006C61.3575 12.9925 61.3697 13.2408 60.9599 13.2952C60.8435 13.3106 60.7277 13.3307 60.6118 13.3509C60.3575 13.3951 60.1026 13.4394 59.8395 13.4335C59.2981 13.4191 59.2203 13.3586 59.1426 12.8142C59.1392 12.7918 59.1412 12.7667 59.1431 12.7414C59.148 12.6791 59.153 12.6154 59.0792 12.5867C59.0075 12.5593 58.9636 12.609 58.9204 12.658C58.9046 12.6759 58.8888 12.6938 58.8718 12.7077C57.8321 13.5717 56.5245 13.6869 55.5194 13.0187C55.0557 12.7106 54.8022 12.2613 54.7504 11.7428C54.6035 10.2654 54.9722 9.46469 56.5649 8.79939C57.2676 8.50562 58.0251 8.43362 58.7768 8.37025C58.9985 8.35009 59.0734 8.28961 59.0705 8.06784L59.0701 8.0467V8.04667C59.0617 7.62766 59.0533 7.21432 58.8862 6.81212C58.7163 6.40314 58.4052 6.25914 57.9991 6.22746C57.1236 6.15834 56.3057 6.37146 55.5136 6.71996C55.4923 6.72955 55.47 6.7409 55.4472 6.75252C55.3124 6.82112 55.1588 6.89925 55.0874 6.68252C55.0694 6.62934 55.0377 6.575 55.0054 6.5197C54.9032 6.34439 54.7952 6.15942 55.1018 5.97113C56.0436 5.39511 57.0314 4.98038 58.1576 4.98614C58.5723 4.98902 58.987 5.0639 59.3701 5.21942C60.1391 5.53048 60.3608 6.19866 60.4645 6.9446C60.5475 7.55251 60.5378 8.15928 60.5289 8.71822C60.5236 9.0517 60.5186 9.36815 60.5336 9.65766ZM59.0677 10.4929C59.0677 10.3748 59.0673 10.2567 59.067 10.1386C59.0664 9.90247 59.0657 9.6663 59.0677 9.43013C59.0677 9.28037 59.0504 9.14788 58.8517 9.1882C58.6735 9.22507 58.4937 9.24516 58.3139 9.26524C58.0724 9.29224 57.8308 9.31923 57.5931 9.38693C56.5245 9.68646 56.0205 10.6772 56.4497 11.6996C56.5965 12.051 56.8759 12.2699 57.2532 12.3218C57.8321 12.4024 58.3649 12.2382 58.8661 11.9531C59.0216 11.8638 59.0763 11.7342 59.0734 11.5585C59.063 11.3008 59.0647 11.0415 59.0664 10.783V10.7827V10.7824C59.067 10.6857 59.0677 10.5892 59.0677 10.4929ZM71.4694 9.66054C71.4694 9.8566 71.4696 10.0525 71.4697 10.2483C71.4703 10.8348 71.4708 11.4205 71.4665 12.0078C71.4665 12.1979 71.4723 12.3563 71.7286 12.3304C71.8841 12.3131 72.0137 12.365 71.9763 12.5464C71.9626 12.6113 71.9738 12.6843 71.985 12.7573C72.0092 12.9144 72.0334 13.0717 71.8092 13.1483C71.3628 13.2981 70.8991 13.3183 70.4354 13.2635C70.1503 13.229 70.1128 12.9727 70.0956 12.7653C70.0725 12.4341 70.0495 12.3477 69.7384 12.6098C68.7563 13.4363 67.42 13.5227 66.4465 12.8632C65.9425 12.5234 65.7293 12.0251 65.6689 11.4404C65.4845 9.64326 66.579 8.92323 67.924 8.51138C68.4986 8.33673 69.0898 8.28331 69.6813 8.22985L69.7212 8.22625C69.9544 8.20609 70.0092 8.12256 70.0034 7.91232C70.0013 7.84389 70.0004 7.77547 69.9994 7.70711V7.70694V7.70676C69.9951 7.39832 69.9909 7.09128 69.8824 6.79196C69.7183 6.33978 69.4418 6.11802 68.9666 6.08633C68.0939 6.02585 67.2731 6.21882 66.4782 6.56443C66.4515 6.576 66.4244 6.58956 66.3973 6.60316C66.249 6.67754 66.099 6.75277 65.9943 6.50683C65.9778 6.46802 65.958 6.42912 65.9383 6.39024C65.8408 6.19832 65.7434 6.00675 66.0404 5.82713C67.227 5.1071 68.4712 4.629 69.8882 4.94293C70.8127 5.14742 71.2966 5.78104 71.4031 6.76892C71.455 7.25565 71.4665 7.73951 71.4665 8.22913C71.4694 8.70597 71.4694 9.18281 71.4694 9.65679V9.66054ZM70.0034 10.3921C70.0034 10.2824 70.0026 10.1727 70.0018 10.0629C70 9.80689 69.9982 9.55083 70.0063 9.29477C70.012 9.08164 69.9285 9.00099 69.724 9.02979C69.6292 9.04312 69.5341 9.05517 69.439 9.06722C69.1849 9.09942 68.9309 9.13161 68.6814 9.1882C67.61 9.42725 67.106 10.1905 67.2932 11.2648C67.3767 11.7429 67.7454 12.1115 68.2177 12.1749C68.7995 12.2526 69.3266 12.0769 69.822 11.7889C69.9631 11.7054 70.0063 11.5787 70.0034 11.4174C69.9996 11.1909 70.0008 10.9632 70.0021 10.735C70.0028 10.6208 70.0034 10.5064 70.0034 10.3921ZM40.068 8.49125C40.0692 8.73584 40.0705 8.98053 40.0705 9.22547V11.5727C40.0705 11.8665 40.1021 12.1574 40.1885 12.4397C40.3815 13.0675 40.7876 13.3872 41.4414 13.4333C42.2709 13.4909 43.0427 13.2922 43.7743 12.9178C44.4194 12.5865 44.4223 12.5635 44.1544 11.904C44.0824 11.7254 43.996 11.688 43.8261 11.7513C43.5266 11.8636 43.2127 11.9097 42.8958 11.9385C42.4033 11.9846 42.1931 11.8233 42.1873 11.3337C42.172 10.2911 42.1669 9.24851 42.1617 8.20591C42.1592 7.68461 42.1566 7.16332 42.1528 6.64202C42.1499 6.45481 42.2133 6.37417 42.4062 6.37993C42.5938 6.388 42.7828 6.38618 42.9713 6.38436C43.0519 6.38358 43.1324 6.38281 43.2127 6.38281C44.1257 6.38281 44.1257 6.38281 44.103 5.4585L44.1026 5.44102C44.0968 5.21637 44.0277 5.14437 43.806 5.15013C43.5332 5.1586 43.2594 5.1571 42.9858 5.15561H42.9857C42.7942 5.15456 42.6029 5.15352 42.412 5.15589C42.2277 5.15877 42.147 5.0954 42.1499 4.90244C42.1499 4.73962 42.1433 4.5768 42.1368 4.41398C42.1311 4.27151 42.1253 4.12904 42.124 3.98657L42.1238 3.97827C42.1167 3.51203 42.1132 3.27938 41.9951 3.1665C41.8776 3.05407 41.6464 3.06042 41.1851 3.0731L41.1678 3.07358C40.9719 3.07934 40.8884 3.14558 40.8366 3.32702C40.7012 3.808 40.5111 4.27169 40.2865 4.72099C40.1137 5.0666 39.866 5.30565 39.4916 5.42949C39.1373 5.5447 39.0423 5.78087 39.1431 6.20712C39.1895 6.41215 39.3177 6.39375 39.4467 6.37526C39.5098 6.36621 39.573 6.35714 39.6269 6.37417C39.6507 6.37849 39.6751 6.37849 39.6989 6.37417C39.9812 6.33097 40.0849 6.43177 40.0762 6.7313C40.062 7.31871 40.065 7.90469 40.068 8.49125ZM12.0826 6.42185C12.0353 6.49407 11.9883 6.5659 11.9405 6.63626L11.929 6.63243C11.9016 6.62339 11.8861 6.6183 11.8887 6.61322C11.888 6.5124 11.8874 6.41158 11.8869 6.31076V6.31058C11.8853 6.00824 11.8836 5.70591 11.8772 5.40357C11.8714 5.09828 11.6324 4.85924 11.3472 4.89668C10.8453 4.96195 10.3451 5.03954 9.84535 5.11706L9.84533 5.11707C9.7056 5.13874 9.5659 5.16041 9.4262 5.18181L9.41711 5.18328C9.31411 5.19986 9.22081 5.21488 9.19003 5.36037C9.05179 6.0228 9.19291 6.31368 9.82942 6.50953C10.0685 6.58441 10.1174 6.70538 10.1174 6.93003L10.1158 7.35026C10.1103 8.75104 10.1049 10.1518 10.1232 11.5526C10.1289 11.9068 10.0512 12.0681 9.66813 12.0998C9.61734 12.1038 9.57159 12.107 9.53037 12.1099H9.53036C9.34177 12.1231 9.24813 12.1297 9.20196 12.1799C9.15643 12.2294 9.15704 12.3213 9.15826 12.5039C9.15861 12.557 9.15901 12.6178 9.15835 12.6873C9.15835 12.6999 9.159 12.7125 9.15965 12.725C9.16092 12.7496 9.16218 12.7738 9.15835 12.7968C9.10939 13.0848 9.24763 13.1395 9.50972 13.1366C10.1433 13.1291 10.7776 13.1302 11.412 13.1314H11.4121C11.9888 13.1324 12.5655 13.1335 13.1415 13.128C13.2673 13.127 13.3684 13.1311 13.4498 13.1344H13.4498H13.4499C13.6042 13.1407 13.6874 13.1441 13.7325 13.1043C13.7853 13.0577 13.7858 12.9518 13.7868 12.7219V12.7219C13.7871 12.6495 13.7875 12.5647 13.7896 12.4656C13.7953 12.2755 13.7492 12.1804 13.5332 12.166C13.3606 12.1562 13.1893 12.1334 13.0181 12.1106L13.018 12.1106C12.8379 12.0866 12.6578 12.0626 12.4762 12.0537C12.2285 12.0422 12.1421 11.9644 12.145 11.7081C12.1565 10.4121 12.1594 9.11602 12.145 7.81998C12.1421 7.56077 12.2458 7.45133 12.4762 7.3822C13.1444 7.1806 13.8212 7.13163 14.5009 7.30156C14.7285 7.35916 14.7803 7.2958 14.7774 7.08267L14.7742 6.87124C14.766 6.34266 14.7578 5.81407 14.7832 5.28549C14.8005 4.92836 14.6421 4.84484 14.331 4.84772C13.5073 4.85924 12.9313 5.29989 12.4474 5.90183C12.3147 6.06727 12.1978 6.24575 12.0826 6.42185ZM19.2115 9.38445L19.2115 9.38248C19.2107 9.09973 19.2099 8.81699 19.2099 8.53424C19.2099 8.2591 19.2095 7.98396 19.2092 7.70891V7.70864V7.70838C19.2081 6.88377 19.207 6.05997 19.2157 5.23941C19.2185 4.98308 19.1523 4.88516 18.8873 4.92548C18.2934 5.01214 17.6979 5.09415 17.1031 5.17606C16.8874 5.20575 16.6719 5.23544 16.4565 5.26533C16.4475 5.26657 16.4381 5.26771 16.4284 5.26888C16.3483 5.27858 16.2514 5.29029 16.2463 5.37766C16.2439 5.41947 16.2413 5.46134 16.2387 5.50323V5.50325V5.50327C16.2225 5.76723 16.2061 6.03215 16.2434 6.29065C16.2665 6.46127 16.4372 6.48976 16.5886 6.51502C16.6263 6.52132 16.6628 6.52741 16.6956 6.53545C17.0412 6.62186 17.1391 6.80906 17.1333 7.16043C17.1103 8.65233 17.1074 10.1442 17.1333 11.6332C17.1391 12.0278 17.0239 12.192 16.6322 12.1747C16.2549 12.1574 16.062 12.3216 16.1426 12.7219C16.1484 12.7565 16.1484 12.7968 16.1426 12.8313C16.0936 13.128 16.2031 13.2288 16.517 13.223C17.252 13.2083 17.9869 13.2105 18.7219 13.2128H18.722C18.9893 13.2136 19.2566 13.2144 19.5238 13.2144C19.8464 13.2144 20.0041 13.2144 20.0829 13.1356C20.1583 13.0602 20.1616 12.9127 20.1681 12.6241V12.6241L20.169 12.5837C20.1747 12.3245 20.1027 12.192 19.8349 12.1891C19.795 12.1877 19.7544 12.1791 19.7138 12.1705C19.6694 12.1611 19.625 12.1516 19.5814 12.1516C19.2905 12.1488 19.1955 12.022 19.2013 11.7225C19.216 10.9432 19.2138 10.1638 19.2115 9.38445ZM61.7075 8.43865V8.43836V8.43802C61.7057 7.77107 61.704 7.10342 61.7145 6.43729C61.7203 6.16656 61.6396 6.0456 61.3631 6.08592C61.3026 6.09456 61.2393 6.09744 61.1817 6.08592C61.1372 6.07546 61.084 6.08163 61.0308 6.0878C60.9081 6.10202 60.785 6.11629 60.7669 5.92752C60.7639 5.89514 60.7595 5.86191 60.755 5.82837C60.7259 5.60828 60.6949 5.37485 61.0348 5.28238C61.6325 5.11857 61.8174 4.59634 61.9984 4.08476L61.9996 4.08137C62.0889 3.82793 62.1782 3.57448 62.2502 3.31527C62.302 3.13094 62.4 3.07046 62.5929 3.07334C62.6506 3.07451 62.7026 3.07521 62.7497 3.07583C62.9907 3.07905 63.0995 3.0805 63.1474 3.13526C63.1869 3.18033 63.1851 3.2615 63.1819 3.4095C63.1804 3.47798 63.1786 3.56076 63.1805 3.66088C63.1816 3.72377 63.1832 3.78677 63.1848 3.84985L63.1848 3.85057C63.1913 4.10499 63.1978 4.36051 63.1747 4.61419C63.143 4.94828 63.3072 5.05197 63.5952 5.05485C63.6975 5.05542 63.7998 5.05623 63.9023 5.05703H63.9023H63.9024C64.3135 5.06026 64.7257 5.06349 65.136 5.05197C65.3722 5.04621 65.4586 5.11821 65.4557 5.36302C65.4545 5.4314 65.4539 5.49338 65.4534 5.54954C65.4505 5.83543 65.4492 5.97061 65.381 6.03379C65.3199 6.09045 65.2051 6.08919 64.9873 6.08681C64.9211 6.08609 64.8454 6.08526 64.7588 6.08592C64.3181 6.0888 63.8774 6.09168 63.4368 6.08304C63.2496 6.08016 63.1776 6.14641 63.1776 6.33937C63.1801 7.04596 63.1804 7.75254 63.1807 8.45913C63.1811 9.34236 63.1814 10.2256 63.1862 11.1088C63.1862 11.2677 63.2136 11.4266 63.2409 11.5855L63.2409 11.5856C63.2468 11.6196 63.2526 11.6537 63.2582 11.6877C63.3072 11.9872 63.5952 12.1543 64.0042 12.0967C64.1986 12.0681 64.3922 12.0308 64.5858 11.9934L64.586 11.9934C64.7624 11.9594 64.9388 11.9254 65.1159 11.898C65.1401 11.894 65.1664 11.8864 65.1934 11.8787C65.3043 11.8467 65.4262 11.8116 65.4586 12.0132C65.4683 12.0734 65.496 12.1361 65.524 12.1992C65.5962 12.3622 65.6695 12.5275 65.4327 12.6583C64.8308 12.9924 64.2 13.2545 63.5002 13.2804C63.4421 13.2826 63.3836 13.2861 63.325 13.2896C63.0787 13.3043 62.8297 13.3192 62.59 13.2401C62.0371 13.0529 61.7174 12.5834 61.7116 11.9412C61.7073 11.2527 61.7078 10.5658 61.7084 9.8781V9.87622C61.7086 9.64686 61.7087 9.41742 61.7087 9.18779C61.7087 8.93825 61.7081 8.6885 61.7075 8.43865Z" fill="currentColor" fill-rule="evenodd" id="Union"/>
  </symbol> 

</svg>
