<?xml version="1.0" encoding="utf-8"?>
<svg xmlns="http://www.w3.org/2000/svg" fill="none" height="216" width="544">
  <g clip-path="url(#a)">
    <g clip-path="url(#b)">
      <path clip-rule="evenodd" d="m420.297 64.114 20.627 9.28 35.816-10.408 50.321 49.777 15.414-41.631 30.374-17.948V233H158l43-79.5 9.624-40.737 47.602-59.579 34.989 32.825 32.374-11.511 16.187-5.756 10.746-10.733 7.707-19.458 16.774-19.911 15.187-9.73h18.36l11.334 19.233-3.174 23.078zm-16.547.23V54.84l-3.173-10.408 3.173-11.765-3.173-8.146h-8.161l-12.24 14.48-7.254 25.342 7.254 17.648 8.613-4.073 7.254 4.073 7.707-4.073z" fill="url(#c)" fill-rule="evenodd"/>
      <path d="M-13.174 227V102.571l31.63-14.635L32.91 52.032l26.894 8.053 21.85-38.923L103.994 8l23.633 70.706 32.328 23.865 17.808 68.145 57.411 29.46L266.5 227z" fill="url(#d)"/>
      <g opacity=".2">
        <path d="M-77.492-446.473C-192.12-352.387-226.08-165.971-89.782-72.724 27.645 7.615-10.154 171.857-550.748 80.133-628.903 69.145-948.83 19.57-470.651 47.49c0 0 437.043 34.485 276.746-99.606-394.806-307.945-363.881-514.493-151.934-551.903 221.491-39.105 548.499-72.396 268.347 157.546" fill="url(#e)"/>
        <path d="M-178.564-90.722s454.43 26.157 789.096 533.383c334.666 507.225 968.608-738.802 390.808-561.373C423.541 58.718 195.419 126.021 6.561-202.786c-188.858-328.806-526.613 72.097-185.125 112.064" fill="url(#f)"/>
        <path d="M114.117 144.258c94.476 154.907 219.964 231.43 445.875 265.864 205.698 31.353 264.732 151.005-45.782 212.379-310.515 61.375-501.113 105.87-574.9-153.436s27.164-566.879 174.807-324.807" fill="url(#g)"/>
        <path d="M530.955-69.416C441.179 1.05 254.729 48.596 171.189-200.318 57.852-537.99 582.649-541.515 614.029-477.203c31.381 64.311-184.737 152.661-109.595 183.961 159.436 66.404 123.931 147.407 26.521 223.826" fill="url(#h)"/>
      </g>
      <path d="M52.5 66.61c-.272.023.26.082 0 0-1.071 2.056-2.362 4.248-4.553 5.714 1.04-.695 2.166-.84 2.911-.623-2.726 3.956-4.233 1.836-4.233 1.836-9.925 4.42-8.923-1.839-2.982-3.625.328-1.742 3.238-2.47 3.238-2.47-.122.742-.76 1.872-1.91 2.218 3.056-.436 5.54-1.962 6.958-3.537-.654-1.111 1.149-3.4 1.149-3.4.156.894.473 1.92-.225 3.227 1.538-.859 3.515-1.46 3.515-1.46s-1.528 2.86-3.868 2.12" fill="url(#i)" fill-opacity=".5"/>
      <path d="M410.321 124.416c-.099-.199.016.222 0 0-1.885-.19-3.941-.505-5.715-1.721.842.577 1.292 1.386 1.351 2.016-3.828-.87-2.672-2.651-2.672-2.651-6.355-6.179-1.297-7.31 1.854-3.352 1.423-.277 2.854 1.706 2.854 1.706-.6.131-1.652-.011-2.262-.777 1.254 2.182 3.163 3.602 4.788 4.2.647-.831 2.93-.157 2.93-.157-.631.388-1.316.938-2.519.804 1.117.905 2.17 2.22 2.17 2.22s-2.634-.293-2.779-2.288" fill="url(#j)" opacity=".7"/>
      <path d="m289.448 53.434-7.257-.112.281-17.718c0-4.2-1.989-5.3-4.49-6.72l-6.311-3.78v-7.56l6.311 3.36c6.733 3.454 11.844 6.653 11.742 13.365l-.282 19.164z" fill="url(#k)"/>
      <path clip-rule="evenodd" d="m289.457 52.418-6.266-.096.281-17.718c0-4.17-1.961-5.284-4.437-6.69l-.053-.03-6.311-3.78v-6.028l-1-.533v7.56l6.311 3.78.053.03c2.476 1.407 4.437 2.52 4.437 6.69l-.281 17.72 7.257.11h-.006z" fill="#fff" fill-rule="evenodd"/>
      <path d="M270.409 21.323c0 2.088.565 3.78 1.262 3.78s1.262-1.692 1.262-3.78-.42-3.357-1.262-3.78c-.367-.175-1.262 1.692-1.262 3.78" fill="#fff"/>
      <path d="m312.273 41.569.092 18.313-2.303.01-.092-18.314c-.005-.47.507-.858 1.146-.857.64 0 1.157.379 1.157.848" fill="url(#l)"/>
      <path d="m318.975 49.656-.123 13.055-2.303-.024.123-13.055c.002-.47.52-.85 1.159-.84s1.151.395 1.144.864" fill="url(#m)"/>
      <mask height="57" id="n" maskUnits="userSpaceOnUse" style="mask-type:alpha" width="81" x="250" y="43">
        <path d="M330.999 79.07v20.793l-80.368-32.76V57.031a5.85 5.85 0 0 1 3.455-5.34l16.871-7.578a11.7 11.7 0 0 1 9.798.094l40.184 18.984a17.56 17.56 0 0 1 10.06 15.878" fill="#D9D9D9"/>
      </mask>
      <g mask="url(#n)">
        <path d="M331.083 95.894v-27.95L275.902 41.81v35.793z" fill="url(#o)"/>
        <path d="m275.902 41.81-24.486 11.045a1.46 1.46 0 0 0-.862 1.334v24.674l25.348.81z" fill="url(#p)"/>
        <path d="m251.894 60.228 10.793-5c2.425-1.122 5.196.648 5.196 3.32v4.106l-15.989 6.128z" fill="#fff"/>
        <path d="M331.083 72.983v-5.04l-17.159-8.127-25.361 18.685.519 2.376 21.42 7.731z" fill="url(#q)"/>
        <path d="m331.083 67.943-49.195-20.778a14.33 14.33 0 0 0-12.023-.111l-15.867 7.448c-1.683.84-2.104 2.858-2.104 4.378v6.761l-1.339-.52v-8.326l-.001.053v-2.52l.001-.053v-1.032l.959-.432.03-.014 24.358-10.986z" fill="#fff"/>
      </g>
      <mask height="74" id="s" maskUnits="userSpaceOnUse" style="mask-type:alpha" width="184" x="200" y="55">
        <path d="m383.597 128.005-14.178-17.296a5.85 5.85 0 0 0-2.396-1.741L233.156 56.646a11.7 11.7 0 0 0-8.769.1l-23.827 9.938z" fill="url(#r)"/>
      </mask>
      <g mask="url(#s)">
        <path d="m383.597 128.005-15.148-18.48-139.697-54.6-28.192 11.759z" fill="url(#t)"/>
        <path d="M228.751 54.923v20.58l-28.192-8.82z" fill="url(#u)"/>
        <g filter="url(#v)">
          <path d="M228.751 54.923v21.84l1.146-21.416z" fill="#fff"/>
        </g>
        <path d="m373.066 114.227-.633-.832-44.995-15.784c-5.113-1.797-10.335 2.405-9.662 7.765l.018.121.604.201c-.645-5.12 4.342-9.126 9.225-7.41l45.449 15.944z" fill="url(#w)"/>
        <path d="M368.506 109.596 234.382 58.883a14.64 14.64 0 0 0-9.892-.165l-23.664 8.056-.268-.09 28.192-11.76 139.697 54.601z" fill="#fff"/>
      </g>
      <path d="m449.659 170.019-10.249-10.527a114.44 114.44 0 0 0-46.193-28.846l-204.603-68.74C136.859 43.848 77.95 42.168 66.429 69.642s6.893 81.306 161.229 101.801l151.406 16.484a114.7 114.7 0 0 0 33.236-1.234l28.912-11.542c4.877-.901 6.777-6.853 3.322-10.394z" fill="url(#x)"/>
      <g filter="url(#y)">
        <path d="M101.881 93.561c-.248 1.068 7.808 3.845 17.994 6.204s18.645 3.41 18.898 2.342c.248-1.067-7.808-3.845-17.994-6.204-10.186-2.36-18.645-3.41-18.898-2.342m47.079 10.262c2.648.614 4.646 1.745 4.462 2.526s-2.476.918-5.125.304-4.646-1.745-4.462-2.526 2.476-.918 5.125-.304" fill="url(#z)"/>
      </g>
      <g filter="url(#A)">
        <path d="M284.156 100.168c-.232.766 5.504 3.179 12.812 5.39 7.308 2.212 13.421 3.386 13.658 2.62.232-.766-5.504-3.18-12.812-5.391s-13.421-3.385-13.658-2.619m33.809 9.753c1.901.575 3.302 1.496 3.13 2.056-.172.559-1.849.549-3.749-.026s-3.302-1.496-3.13-2.056 1.849-.55 3.749.026" fill="url(#B)" fill-opacity=".9"/>
      </g>
      <path d="M471.789 186.25s-10.763 5.753-20.163-1.498c0 0 5.311 10.835 20.163 1.498" fill="url(#C)"/>
      <path d="M449.828 174.761c1.08-.66 4.854-2.214 7.777-2.859-2.316-1.894-4.972-4.984-5.635-6.061a3.626 3.626 0 0 1 1.201-4.999 3.65 3.65 0 0 1 5.015 1.197c.662 1.077 2.221 4.839 2.868 7.752 1.9-2.309 5.001-4.956 6.081-5.617a3.65 3.65 0 0 1 5.015 1.197 3.626 3.626 0 0 1-1.201 4.999c-1.08.66-4.854 2.213-7.777 2.858 2.317 1.895 4.973 4.985 5.635 6.062a3.624 3.624 0 0 1-1.2 4.998 3.65 3.65 0 0 1-5.015-1.196c-.663-1.077-2.221-4.839-2.868-7.752-1.901 2.309-5.001 4.956-6.081 5.616a3.65 3.65 0 0 1-5.015-1.196 3.625 3.625 0 0 1 1.2-4.999" fill="#000C2C" opacity=".2"/>
      <path d="M449.799 170.519c1.251-.194 5.333-.173 8.279.359-1.397-2.642-2.656-6.511-2.845-7.758a3.644 3.644 0 0 1 3.044-4.151 3.653 3.653 0 0 1 4.165 3.035c.195 1.246.174 5.316-.359 8.251 2.65-1.392 6.532-2.646 7.782-2.835a3.653 3.653 0 0 1 4.165 3.035 3.643 3.643 0 0 1-3.044 4.151c-1.251.194-5.333.173-8.279-.358 1.397 2.641 2.656 6.511 2.845 7.757a3.644 3.644 0 0 1-3.045 4.151 3.65 3.65 0 0 1-4.164-3.034c-.196-1.247-.174-5.316.359-8.252-2.65 1.392-6.532 2.647-7.783 2.835a3.65 3.65 0 0 1-4.164-3.034 3.644 3.644 0 0 1 3.044-4.152" fill="#000C2C" opacity=".5"/>
      <path d="m460.165 171.571-20.607-4.916a.98.98 0 0 0-1.178.718.973.973 0 0 0 .72 1.174l20.606 4.916a.973.973 0 1 0 .459-1.892" fill="#000C2C"/>
      <path d="M466.303 163.568a3.633 3.633 0 0 0-2.701-4.382 3.646 3.646 0 0 0-4.396 2.692c-.376 1.571-.789 7.808.09 10.429-1.967 1.942-4.439 7.686-4.815 9.256a3.633 3.633 0 0 0 2.701 4.382 3.646 3.646 0 0 0 4.396-2.692c.376-1.571.789-7.807-.09-10.429 1.967-1.942 4.439-7.686 4.815-9.256" fill="#000C2C"/>
      <path d="M450.376 159.123s10.763-5.753 20.163 1.499c0 0-5.31-10.835-20.163-1.499" fill="url(#D)"/>
      <path d="m435.75 199.979-13.583-1.102a2.54 2.54 0 0 1-1.941-1.176l-8.217-13.161 4.589-9.034 15.3 1.24a2.51 2.51 0 0 1 2.251 1.94l.991 4.224 3.27 13.999c.386 1.658-.961 3.219-2.66 3.082zm13.067-60.216-15.952-6.178a3.16 3.16 0 0 0-2.781.551l-15.311 11.91 1.48 12.558 18.472 5.108a3.16 3.16 0 0 0 3.478-1.303l12.405-17.894c1.169-1.779.265-4.184-1.791-4.752" fill="#000C2A"/>
      <g filter="url(#E)">
        <path d="M430.09 134.136a3.16 3.16 0 0 1 2.781-.551l-12.219 10.314-1.456-1.291z" fill="#fff"/>
      </g>
      <path d="M398.909 188.105c26.937-24.961 11.531-49.908 11.197-50.442 10.877 5.625 22.551 11.339 31.137 20.16l9.257 7.56c3.455 3.547 1.549 9.499-3.323 10.394l-34.713 10.658a115 115 0 0 1-13.549 1.67z" fill="#000C2A"/>
      <path d="M365.884 156.682c-3.771-.063-6.764-3.958-6.684-8.699.08-4.742 3.202-8.534 6.973-8.471s6.763 3.958 6.684 8.699c-.08 4.741-3.202 8.534-6.973 8.471" fill="url(#F)"/>
      <path d="M367.59 156.636c-3.771-.063-6.764-3.958-6.684-8.699.079-4.742 3.201-8.534 6.972-8.471s6.764 3.958 6.684 8.699c-.079 4.741-3.201 8.534-6.972 8.471" fill="url(#G)"/>
      <path d="M370.061 156.135a5.56 5.56 0 0 1-2.465.539 5.6 5.6 0 0 1-2.171-.488l-3.892-11.622c.771-2.118 2.211-3.771 3.967-4.557z" fill="#fff" opacity=".7"/>
      <path d="M367.655 152.711c-2.032-.034-3.644-2.147-3.601-4.721s1.726-4.632 3.758-4.598 3.644 2.147 3.6 4.721c-.043 2.573-1.725 4.632-3.757 4.598" fill="#000C2A"/>
      <g filter="url(#H)">
        <path d="M370.838 140.414c-.524-.16-8.091-2.267-9.893 8.604a9 9 0 0 1-.034-1.039c.08-4.741 3.201-8.535 6.973-8.471 1.065.017 2.067.35 2.954.912z" fill="#fff"/>
      </g>
      <path d="M325.264 147.407c-4.235-.07-7.596-4.447-7.506-9.774.089-5.328 3.595-9.59 7.831-9.519 4.235.071 7.596 4.447 7.506 9.775-.089 5.327-3.595 9.589-7.831 9.518" fill="url(#I)"/>
      <path d="M327.183 147.352c-4.235-.071-7.596-4.448-7.507-9.775.09-5.328 3.595-9.59 7.831-9.519 4.235.071 7.596 4.448 7.507 9.775-.09 5.328-3.596 9.59-7.831 9.519" fill="url(#J)"/>
      <path d="M330.008 146.754a6.3 6.3 0 0 1-2.822.632 6.2 6.2 0 0 1-2.384-.523l-4.399-13.143c.881-2.37 2.505-4.219 4.486-5.079l5.125 18.113z" fill="#fff" opacity=".7"/>
      <path d="M327.256 142.944c-2.283-.038-4.094-2.415-4.045-5.309.048-2.893 1.939-5.208 4.222-5.17s4.094 2.415 4.045 5.309c-.048 2.893-1.939 5.208-4.222 5.17" fill="#000C2A"/>
      <g filter="url(#K)">
        <path d="M330.832 129.107c-.593-.178-9.087-2.548-11.108 9.66a13 13 0 0 1-.04-1.171c.092-5.326 3.599-9.585 7.831-9.516 1.198.017 2.321.39 3.317 1.021z" fill="#fff"/>
      </g>
      <path d="M277.331 136.354c-4.694-.079-8.418-4.926-8.319-10.828.1-5.901 3.985-10.621 8.678-10.543s8.417 4.926 8.318 10.827c-.099 5.902-3.984 10.622-8.677 10.544" fill="url(#L)"/>
      <path d="M279.456 136.29c-4.693-.079-8.417-4.926-8.318-10.828s3.984-10.621 8.677-10.543 8.418 4.926 8.318 10.828-3.983 10.622-8.677 10.543" fill="url(#M)"/>
      <path d="M282.542 135.645c-.961.448-1.998.7-3.086.677a7 7 0 0 1-2.677-.596l-4.855-14.498c.968-2.635 2.759-4.684 4.941-5.654l5.672 20.065z" fill="#fff" opacity=".7"/>
      <path d="M279.538 131.407c-2.531-.042-4.539-2.674-4.485-5.878s2.149-5.768 4.68-5.725c2.531.042 4.539 2.674 4.485 5.878s-2.149 5.767-4.68 5.725" fill="#000C2A"/>
      <g filter="url(#N)">
        <path d="M283.493 116.056c-.656-.201-10.065-2.824-12.305 10.704a14 14 0 0 1-.046-1.291c.098-5.9 3.985-10.618 8.678-10.543 1.324.023 2.568.436 3.673 1.136z" fill="#fff"/>
      </g>
      <path d="M217.052 122.707c-5.125-.086-9.193-5.379-9.084-11.822s4.351-11.597 9.477-11.512c5.125.086 9.193 5.379 9.085 11.822-.109 6.443-4.352 11.597-9.478 11.512" fill="url(#O)"/>
      <path d="M219.369 122.642c-5.125-.086-9.193-5.379-9.085-11.822s4.351-11.597 9.477-11.511c5.125.085 9.193 5.378 9.085 11.822s-4.351 11.597-9.477 11.511" fill="url(#P)"/>
      <path d="M222.628 121.988a7.6 7.6 0 0 1-3.259.695 7.55 7.55 0 0 1-3.023-.7l-5.246-15.675c1.031-2.887 2.966-5.142 5.332-6.239z" fill="#fff" opacity=".7"/>
      <path d="M219.458 117.311c-2.763-.046-4.955-2.92-4.896-6.419.058-3.499 2.346-6.298 5.109-6.252s4.956 2.92 4.897 6.419-2.347 6.298-5.11 6.252" fill="#000C2A"/>
      <g filter="url(#Q)">
        <path d="M223.769 100.557c-.714-.218-10.993-3.082-13.44 11.686a17 17 0 0 1-.052-1.412c.11-6.446 4.354-11.6 9.478-11.514 1.446.023 2.805.477 4.014 1.24" fill="#fff"/>
      </g>
      <mask height="141" id="S" maskUnits="userSpaceOnUse" style="mask-type:alpha" width="389" x="63" y="48">
        <path d="m449.823 169.755-10.249-10.526a114.44 114.44 0 0 0-46.192-28.847L188.778 61.643c-51.755-18.06-110.663-19.74-122.185 7.734-11.521 27.474 6.893 81.307 161.229 101.802l151.406 16.483a114.6 114.6 0 0 0 33.236-1.234l34.037-6.284c4.877-.901 6.777-6.853 3.322-10.395z" fill="url(#R)"/>
      </mask>
      <g mask="url(#S)">
        <path clip-rule="evenodd" d="M417.716 144.133a1.26 1.26 0 0 0-.816 1.585l.013.038a1.262 1.262 0 0 0 2.404-.768l-.013-.04a1.263 1.263 0 0 0-1.588-.815m1.985 8.136a1.26 1.26 0 0 0-1.124 1.385l.004.04a1.262 1.262 0 0 0 2.511-.26l-.004-.043a1.263 1.263 0 0 0-1.387-1.122m.259 8.37a1.26 1.26 0 0 0-1.39 1.118l-.004.04a1.263 1.263 0 0 0 2.51.273l.004-.043a1.26 1.26 0 0 0-1.12-1.388m-1.526 8.233a1.263 1.263 0 0 0-1.598.794l-.013.038a1.263 1.263 0 0 0 2.393.804l.014-.041a1.26 1.26 0 0 0-.796-1.595m-3.249 7.715a1.265 1.265 0 0 0-1.729.445l-.021.034a1.262 1.262 0 0 0 2.173 1.284l.022-.037a1.26 1.26 0 0 0-.445-1.726m-4.751 6.899a1.263 1.263 0 0 0-1.782.108l-.027.031a1.26 1.26 0 0 0 .108 1.778 1.263 1.263 0 0 0 1.782-.107l.028-.032a1.26 1.26 0 0 0-.109-1.778" fill="#fff" fill-rule="evenodd"/>
        <path clip-rule="evenodd" d="M186.104 69.067a2.1 2.1 0 0 0-1.676 2.454l.008.04a2.104 2.104 0 0 0 4.135-.78l-.008-.042a2.104 2.104 0 0 0-2.459-1.672m2.231 16.957a2.1 2.1 0 0 0-2.013 2.187l.002.042a2.1 2.1 0 0 0 2.19 2.01 2.103 2.103 0 0 0 2.014-2.186l-.002-.043a2.103 2.103 0 0 0-2.191-2.01m-.153 17.101a2.103 2.103 0 0 0-2.292 1.894l-.004.042a2.1 2.1 0 0 0 1.897 2.288 2.1 2.1 0 0 0 2.292-1.893l.004-.043a2.1 2.1 0 0 0-1.897-2.288m-2.526 16.914a2.103 2.103 0 0 0-2.546 1.537l-.01.04a2.103 2.103 0 0 0 4.085 1.006l.011-.042a2.1 2.1 0 0 0-1.54-2.541m-5.133 16.308a2.106 2.106 0 0 0-2.774 1.074l-.017.038a2.1 2.1 0 0 0 1.074 2.77 2.107 2.107 0 0 0 2.775-1.073l.017-.04a2.1 2.1 0 0 0-1.075-2.769m-8.083 15.061a2.106 2.106 0 0 0-2.938.47l-.025.033a2.1 2.1 0 0 0 .469 2.933 2.106 2.106 0 0 0 2.938-.468l.026-.036a2.097 2.097 0 0 0-.47-2.932" fill="#F4FEFF" fill-rule="evenodd"/>
        <path clip-rule="evenodd" d="M253.514 126.296c1.745-18.252-1.374-36.354-6.9-48.448l-.765.35c5.456 11.94 8.56 29.892 6.827 48.018-1.732 18.124-8.295 36.362-22.103 48.937l.567.62c14.012-12.76 20.629-31.224 22.374-49.477" fill="url(#T)" fill-rule="evenodd"/>
        <path clip-rule="evenodd" d="M347.874 149.066c1.358-14.799-1.068-29.479-5.372-39.292l-.77.337c4.238 9.665 6.651 24.2 5.304 38.879s-6.447 29.438-17.167 39.609l.579.608c10.919-10.358 16.068-25.341 17.426-40.141" fill="url(#U)" fill-rule="evenodd"/>
        <path clip-rule="evenodd" d="m-75.596 3.952 826.84 245.128.24-.806L-75.356 3.147z" fill="url(#V)" fill-rule="evenodd"/>
        <path clip-rule="evenodd" d="m-84.913 71.412 845.546 170.054.166-.823L-84.747 70.588z" fill="url(#W)" fill-rule="evenodd"/>
        <path d="M247.687 76.093C176.749 63.83 112.565 71.58 96.815 109.095c-4.87 11.602-6.815 25.778-3.437 41.18-8.774-19.006-65.482-62.58-51.029-97.02 21.327-50.82 134.277 5.686 205.338 22.838" fill="url(#X)" fill-opacity=".5"/>
        <g filter="url(#Y)">
          <path d="M164.374 54.82c-44.568-7.725-84.894-2.843-94.789 20.792-3.06 7.31-4.282 16.24-2.16 25.944-5.512-11.974-4.837-23.193-1.225-31.822 9.766-23.338 53.528-25.72 98.174-14.913" fill="#fff"/>
        </g>
      </g>
      <path d="m185.344 158.731 428.47 49.39L196.706 60.316z" fill="url(#Z)"/>
      <path d="M512.416 193.488a1.464 1.464 0 1 1 0-2.927 1.464 1.464 0 1 1 0 2.927m-5.865 3.658c-1.214 0-2.199-.819-2.199-1.829s.985-1.829 2.199-1.829c1.215 0 2.2.819 2.2 1.829s-.985 1.829-2.2 1.829m30.789-15.366a.732.732 0 1 1 0-1.463.732.732 0 1 1 0 1.463m-2.566 2.196a1.099 1.099 0 1 1 0-2.195 1.099 1.099 0 1 1 0 2.195m-30.055-.001a1.83 1.83 0 0 1-1.833-1.829c0-1.01.821-1.829 1.833-1.829a1.83 1.83 0 0 1 1.832 1.829 1.83 1.83 0 0 1-1.832 1.829m-45.816 7.318c-.81 0-1.466-.491-1.466-1.097s.656-1.098 1.466-1.098 1.466.492 1.466 1.098-.656 1.097-1.466 1.097m13.928 3.659a2.93 2.93 0 0 1-2.932-2.927 2.93 2.93 0 0 1 2.932-2.927 2.93 2.93 0 0 1 2.932 2.927 2.93 2.93 0 0 1-2.932 2.927m41.784-16.83c-.81 0-1.466-.491-1.466-1.097s.656-1.098 1.466-1.098 1.466.492 1.466 1.098-.656 1.097-1.466 1.097m-26.023 15.366c-.608 0-1.1.328-1.1.732s.492.732 1.1.732c.607 0 1.099-.328 1.099-.732s-.492-.732-1.099-.732m-7.697-8.78a2.93 2.93 0 0 1-2.933-2.927 2.93 2.93 0 0 1 2.933-2.927 2.93 2.93 0 0 1 2.932 2.927 2.93 2.93 0 0 1-2.932 2.927m10.262-7.318a1.465 1.465 0 0 1-1.466-1.463 1.466 1.466 0 0 1 2.932 0c0 .808-.656 1.463-1.466 1.463m15.761-5.122a1.83 1.83 0 0 1-1.833-1.829c0-1.01.821-1.829 1.833-1.829s1.833.819 1.833 1.829-.821 1.829-1.833 1.829m34.179 29.431a1.434 1.434 0 1 1 0-2.866 1.434 1.434 0 1 1 0 2.866m3.349-1.91a.957.957 0 1 1 0-1.913.957.957 0 0 1 0 1.913m-6.699-.955c-.529 0-.957-.214-.957-.478s.428-.477.957-.477.957.213.957.477-.428.478-.957.478m-54.287-36.078a1.098 1.098 0 1 1 0-2.195 1.099 1.099 0 1 1 0 2.195m-2.199 1.464c-.607 0-1.1-.328-1.1-.732s.493-.732 1.1-.732 1.1.328 1.1.732-.493.732-1.1.732m13.562 5.853c-.405 0-.734-.164-.734-.366s.329-.366.734-.366.733.164.733.366-.329.366-.733.366" fill="#fff"/>
      <path d="M379.817 194.121c1.11-.208 2.815-.192 4.595 1.08 0 0-2.138 1.035-4.775-.103a.46.46 0 0 1-.239-.21.48.48 0 0 1-.049-.319.57.57 0 0 1 .468-.448" fill="url(#aa)"/>
      <path d="M390.683 201.36c-2.886-.284-4.283-1.407-4.955-2.28a.36.36 0 0 1-.066-.307.58.58 0 0 1 .204-.31.9.9 0 0 1 .387-.19 10.85 10.85 0 0 1 6.27-.503s-1.43.972-3.807 1.359c1.642 1.005 1.967 2.231 1.967 2.231" fill="url(#ab)"/>
      <path d="M378.333 196.516c1.037.326 2.476 1.131 3.363 3.121 0 0-2.314-.046-3.99-2.311a.47.47 0 0 1-.099-.303.54.54 0 0 1 .114-.313.6.6 0 0 1 .28-.195.53.53 0 0 1 .332.001" fill="url(#ac)"/>
      <path d="M374.789 193.747c-1.786.911 2.898 4.027 6.556 4.876 3.362.781 6.837.515 6.902.391.065-.123-2.348-1.374-5.098-3.019-3.519-2.105-6.574-3.158-8.36-2.248" fill="url(#ad)"/>
      <path d="M320.255 184.558s2.329.512 2.288 8.15c0 0-2.49-2.138-3.057-4.159s.769-3.991.769-3.991" fill="url(#ae)"/>
      <path d="M320.591 179.17c3.37 2.331 7.614 9.347 10.153 13.907a17.6 17.6 0 0 1 1.583 3.816l-1.668-1.374c-3.152-2.329-8.888-6.609-12.651-9.702-5.438-4.456-2.317-10.072 2.583-6.647" fill="url(#af)"/>
      <path d="M336.912 199.156s-2.073-1.09-4.593-2.26l-.546-1.92c3.267-.437 5.139 4.18 5.139 4.18" fill="url(#ag)"/>
      <path d="M336.913 199.155s-2.074-1.09-4.594-2.259l-.679-1.954c3.268-.433 5.273 4.213 5.273 4.213" fill="url(#ah)"/>
      <path d="M331.488 200.944s-2.109-3.92-.827-5.421l1.666 1.371a14.5 14.5 0 0 1-.839 4.05" fill="url(#ai)"/>
      <path d="M331.488 200.944s-2.109-3.92-.827-5.421l1.666 1.371a14.5 14.5 0 0 1-.839 4.05" fill="url(#aj)"/>
      <path d="M324.736 183.053c1.198.329 3.06 1.298 5.788 3.785 0 0-3.255.411-5.138-.525a4.5 4.5 0 0 1-1.795-1.739 1.03 1.03 0 0 1 .058-1.147 1.03 1.03 0 0 1 1.087-.374" fill="url(#ak)"/>
      <path d="M237.245 188.725c1.077-2.236 3.327-5.231 7.906-6.725 0 0-.947 5.133-6.403 8.317a1.03 1.03 0 0 1-1.315-.179 1.2 1.2 0 0 1-.316-.672 1.25 1.25 0 0 1 .128-.741" fill="url(#al)"/>
      <path d="M264.259 178.924c-4.262 4.738-8.079 5.748-10.504 5.8a.8.8 0 0 1-.632-.284c-.165-.189-.265-.457-.286-.764-.02-.304.039-.631.168-.933.834-3.17 2.771-7.753 7.274-11.753 0 0-.135 3.798-2.545 8.509 3.925-1.596 6.525-.575 6.525-.575" fill="url(#am)"/>
      <path d="M239.568 194.472c1.928-1.41 5.233-2.908 9.923-1.886 0 0-3.096 4.035-9.303 4.052a1.04 1.04 0 0 1-.666-.221 1.17 1.17 0 0 1-.407-.609 1.26 1.26 0 0 1 .018-.75 1.17 1.17 0 0 1 .435-.586" fill="url(#an)"/>
      <path d="M230.031 197.138c-.709 4.347 10.93.116 17.203-5.252 5.765-4.932 9.821-11.43 9.686-11.706s-5.5 2.366-12.005 5.089c-8.324 3.485-14.175 7.522-14.884 11.869" fill="url(#ao)"/>
      <path d="M59.99 117.569s4.69-6.333 11.5-7.09c0 0-4.355 3.454 2.049 3.796 0 0-12.573 3.937-13.548 3.294" fill="url(#ap)"/>
      <path d="M77.613 115.623c3.719 2.465 10.146-1.287 10.146-1.287l-6.802-.855 4.363-5.573s-11.425 5.25-7.707 7.715" fill="url(#aq)"/>
      <path d="M62.01 123.035s3.195 3.145 8.8.177c0 0-3.11-1.504-6.52-1.153a4.26 4.26 0 0 0-2.28.976" fill="url(#ar)"/>
      <path d="M51.447 123.955c-1.66-.81 4.273-4.561 7.286-6.021 1.645.929 3.963 2.95 2.38 6.49-6.152 1.173-9.666-.469-9.666-.469" fill="url(#as)"/>
      <path d="M61.64 122.181c.005-2.184-1.648-3.534-2.907-4.247 9.218-4.465 22.097-4.307 22.097-4.307-12.502 8.034-19.19 8.554-19.19 8.554" fill="url(#at)"/>
      <path d="M61.114 124.424a5.5 5.5 0 0 0 .526-2.244s6.695-.514 19.19-8.553c-7.999 7.043-14.725 9.845-19.716 10.797" fill="url(#au)"/>
      <path d="M68.23 114.896a75 75 0 0 1 1.507-.279c1.13 1.829.67 3.364.67 3.364a8.8 8.8 0 0 0-2.177-3.085m-3.246 5.201s.588-1.964-1.202-4.098c0 0-.912.271-1.603.519 0 0 1.74 1.1 2.805 3.579m2.818-1.078s.537-1.801-.989-3.828c-.57.127-1.133.262-1.609.397a8.6 8.6 0 0 1 2.598 3.431" fill="url(#av)"/>
      <path d="M65.227 121.532s4.797 4.01 12.249-.749c0 0-4.492-1.739-9.192-.865a5.93 5.93 0 0 0-3.057 1.614" fill="url(#aw)"/>
      <path d="M57.054 123.634a.76.76 0 1 0 .647-1.378.76.76 0 1 0-.647 1.378" fill="#000"/>
      <path d="M56.575 121.488c.519-.349.75-.911.517-1.256-.233-.344-.843-.341-1.361.009-.52.349-.75.911-.517 1.256.233.344.843.34 1.361-.009" fill="#fff" opacity=".63"/>
      <path d="M155.161 165.432s10.314-.852 16.948 5.193c0 0-7.178-1.303-1.982 5.288 0 0-14.759-8.967-14.966-10.481" fill="url(#ax)"/>
      <path d="M194.67 176.202c-4.493 4.919-14.204 6.221-17.248 6.366 7.102 6.799 19.712 4.195 21.886-2.46-2.899 2.315-7.247 2.46-10.871 2.894 2.754-.724 4.783-2.46 6.233-6.8" fill="url(#ay)"/>
      <path d="M155.909 165.424a30.8 30.8 0 0 0-6.18-2.022c-2.463-.524-5.008-.816-7.267-.592a2.17 2.17 0 0 0-1.7 1.129 2.16 2.16 0 0 0-.004 2.037c1.304 2.417 3.928 6.2 8.794 9.678 6.752-1.964 6.84-7.38 6.357-10.23" fill="url(#az)"/>
      <path d="M186.111 183.872s-9.324-.917-20.773-12.028a32.8 32.8 0 0 0-9.43-6.419c.267 1.602.358 4.015-.813 6.171 0 0 9.84 10.483 31.016 12.276" fill="url(#aA)"/>
      <path d="M159.522 167.329s1.271 3.333.025 6.31c0 0 1.658-1.713 1.312-5.448 0 0-1.208-.807-1.337-.862" fill="url(#aB)"/>
      <path d="M164.114 170.713c-.137 2.349-2.063 4.086-2.063 4.086 1.398-1.947 1.122-4.884 1.122-4.884s.865.704.943.798" fill="url(#aC)"/>
      <path d="M166.399 172.85c-.122 2.157-1.911 3.737-1.911 3.737 1.29-1.794 1.059-4.535 1.059-4.535s.344.322.446.412" fill="url(#aD)"/>
      <path d="M155.095 171.595a5 5 0 0 1-.144.25q.09-.11.171-.213z" fill="url(#aE)"/>
      <path d="M180.501 183.162c-16.703-2.848-24.825-10.976-25.363-11.528a6 6 0 0 1-.172.213c-.795 1.337-2.101 2.553-4.186 3.391 6.059 4.144 15.436 7.751 29.721 7.924" fill="url(#aF)"/>
      <path d="M180.5 183.161c-16.702-2.848-24.824-10.975-25.363-11.528q-.085.111-.171.213c-.796 1.338-2.102 2.554-4.186 3.392-.378.152-.776.291-1.206.418 6.859 4.899 18.176 9.196 36.551 8.215a68 68 0 0 1-5.625-.71" fill="url(#aG)"/>
      <path d="M150.766 175.238c-.378.152-.776.291-1.206.418 6.86 4.899 18.177 9.196 36.551 8.215a66 66 0 0 1-5.622-.715c-14.273-.167-23.65-3.775-29.723-7.918" fill="url(#aH)"/>
      <path d="M149.436 170.524a.995.995 0 1 0 .681-1.871.995.995 0 1 0-.681 1.871" fill="#000"/>
      <path d="M154.796 176.202s-1.145 8.2 9.468 13.227c0 0-1.201-6.263-5.494-10.922a7.9 7.9 0 0 0-3.974-2.305" fill="url(#aI)"/>
      <g filter="url(#aJ)">
        <path d="M140.579 164.412s-.174-3.731 8.204-1.603c0 0 6.353 1.249 9.4 3.743-.01-.004-12.786-6.038-17.604-2.14" fill="#fff"/>
      </g>
      <path d="M152.677 167.304c.323-.7-.271-1.662-1.328-2.147s-2.175-.31-2.498.391c-.323.7.272 1.662 1.328 2.147s2.175.31 2.498-.391" fill="#fff" opacity=".63"/>
      <path d="M69.26 188.975c1.223 1.545 3.797 3.675 9.14 6.127 0 0-1.415-5.018-3.955-7.196a7.13 7.13 0 0 0-3.662-1.549 1.63 1.63 0 0 0-1.653.791 1.625 1.625 0 0 0 .13 1.827" fill="url(#aK)"/>
      <path d="M71.145 179.633c1.931.424 5.27.451 10.963-1.018 0 0-4.275-2.999-7.62-3.088a7.13 7.13 0 0 0-3.818 1.112 1.63 1.63 0 0 0-.783 1.658 1.63 1.63 0 0 0 1.258 1.336" fill="url(#aL)"/>
      <path d="M88.284 186.743c5.337 3.44 14.415-2.016 14.415-2.016l-9.696-1.093 6.107-8.01s-16.163 7.679-10.826 11.119" fill="url(#aM)"/>
      <path d="M66.58 174.67c12.684 9.308 22.575 9.857 25.935 8.968-3.11 3.633-19.157 7.066-30.169 2.939-19.303-7.236-11.62-23.542 4.235-11.907" fill="url(#aN)"/>
      <g filter="url(#aO)">
        <path d="m112.128 38.102-1.253-5.478-1.253-5.479.314 5.61.314 5.61a10.5 10.5 0 0 1-2.092 6.907 10.5 10.5 0 0 1-6.056 3.93l-5.478 1.252-5.478 1.252 5.61-.313 5.608-.313a10.51 10.51 0 0 1 10.839 8.15l1.253 5.478 1.252 5.479-.314-5.61-.314-5.61a10.5 10.5 0 0 1 2.093-6.907 10.5 10.5 0 0 1 6.055-3.93l5.478-1.252 5.479-1.252-5.61.313-5.609.313a10.5 10.5 0 0 1-6.908-2.093 10.5 10.5 0 0 1-3.93-6.057" fill="#fff"/>
      </g>
      <g filter="url(#aP)">
        <path d="m128.855 27.299.29-.345.29-.344.077.456.076.456c.101.58.305 1.134.59 1.639.286.504.664.958 1.115 1.337l.354.296.355.295-.446.077-.445.077c-.579.1-1.133.299-1.637.585a5.1 5.1 0 0 0-1.342 1.11l-.306.36-.305.36-.077-.456-.077-.456a5 5 0 0 0-1.704-2.976l-.354-.296-.355-.296.461-.081.461-.082a5 5 0 0 0 1.637-.596 5.1 5.1 0 0 0 1.337-1.115z" fill="#fff"/>
      </g>
      <path clip-rule="evenodd" d="M758.188 351.162 366.859-69.874h-10.644L558.403 351.86zm-255.268-1.467L345.251-68.143h-30.472l47.129 418.541zM170.899-69.874 30.979 351.203l-125.617.658 209.43-421.735zm31.305 420.271 39.768-420.271h-21.469l-98.615 420.037z" fill="url(#aQ)" fill-rule="evenodd" opacity=".2"/>
    </g>
  </g>
  <defs>
    <linearGradient gradientUnits="userSpaceOnUse" id="c" x1="423.5" x2="413.675" y1="197.5" y2="-26.405">
      <stop stop-color="#310192" stop-opacity="0"/>
      <stop offset=".656" stop-color="#310192"/>
      <stop offset=".834" stop-color="#310192" stop-opacity=".6"/>
    </linearGradient>
    <linearGradient gradientUnits="userSpaceOnUse" id="d" x1="111.214" x2="178.279" y1="125.707" y2="-2.224">
      <stop stop-color="#310192" stop-opacity="0"/>
      <stop offset=".556" stop-color="#310192"/>
      <stop offset="1" stop-color="#310192" stop-opacity=".6"/>
    </linearGradient>
    <linearGradient gradientUnits="userSpaceOnUse" id="e" x1="-44.599" x2="-186.073" y1="-38.931" y2="91.535">
      <stop stop-color="#F4FBFF"/>
      <stop offset="1" stop-color="#F4FBFF" stop-opacity="0"/>
    </linearGradient>
    <linearGradient gradientUnits="userSpaceOnUse" id="f" x1="256.681" x2="572.024" y1="6.5" y2="272.781">
      <stop stop-color="#C6E3FF" stop-opacity="0"/>
      <stop offset="1" stop-color="#0069FF"/>
    </linearGradient>
    <linearGradient gradientUnits="userSpaceOnUse" id="g" x1="142" x2="193.499" y1="212" y2="165.499">
      <stop stop-color="#0069FF" stop-opacity="0"/>
      <stop offset=".998" stop-color="#1433D6"/>
    </linearGradient>
    <linearGradient gradientUnits="userSpaceOnUse" id="h" x1="415.473" x2="414.507" y1="-55.878" y2="-12.877">
      <stop offset=".244" stop-color="#C6E3FF" stop-opacity="0"/>
      <stop offset="1" stop-color="#0069FF"/>
    </linearGradient>
    <linearGradient gradientUnits="userSpaceOnUse" id="i" x1="23.957" x2="55.636" y1="77.633" y2="71.073">
      <stop stop-color="#040E30"/>
      <stop offset=".74" stop-color="#002C9B"/>
    </linearGradient>
    <linearGradient gradientUnits="userSpaceOnUse" id="j" x1="416.515" x2="403.608" y1="121.014" y2="123.774">
      <stop stop-color="#0069FF"/>
      <stop offset=".12" stop-color="#0058E4"/>
      <stop offset=".38" stop-color="#0038AF"/>
      <stop offset=".51" stop-color="#002C9B"/>
      <stop offset="1" stop-color="#000C2A"/>
    </linearGradient>
    <linearGradient gradientUnits="userSpaceOnUse" id="k" x1="275.933" x2="287.85" y1="22.247" y2="47.382">
      <stop stop-color="#000C79"/>
      <stop offset="1" stop-color="#000C79"/>
    </linearGradient>
    <linearGradient gradientUnits="userSpaceOnUse" id="l" x1="311.331" x2="311.07" y1="39.325" y2="57.255">
      <stop stop-color="#002C98"/>
      <stop offset=".13" stop-color="#012276"/>
      <stop offset=".27" stop-color="#021A58"/>
      <stop offset=".43" stop-color="#031341"/>
      <stop offset=".59" stop-color="#040E30"/>
      <stop offset=".77" stop-color="#040B27"/>
      <stop offset="1" stop-color="#050B24"/>
    </linearGradient>
    <linearGradient gradientUnits="userSpaceOnUse" id="m" x1="318.124" x2="317.507" y1="48.47" y2="61.508">
      <stop stop-color="#002C98"/>
      <stop offset=".13" stop-color="#012276"/>
      <stop offset=".27" stop-color="#021A58"/>
      <stop offset=".43" stop-color="#031341"/>
      <stop offset=".59" stop-color="#040E30"/>
      <stop offset=".77" stop-color="#040B27"/>
      <stop offset="1" stop-color="#050B24"/>
    </linearGradient>
    <linearGradient gradientUnits="userSpaceOnUse" id="o" x1="274.457" x2="317.326" y1="35.956" y2="88.741">
      <stop stop-color="#B5F6FF"/>
      <stop offset=".323" stop-color="#0BE1FF"/>
      <stop offset=".65" stop-color="#000C79"/>
      <stop offset="1" stop-color="#000C2A"/>
    </linearGradient>
    <linearGradient gradientUnits="userSpaceOnUse" id="p" x1="260" x2="262.443" y1="65.5" y2="44.754">
      <stop offset=".067" stop-color="#300091"/>
      <stop offset="1" stop-color="#0069FF"/>
    </linearGradient>
    <linearGradient gradientUnits="userSpaceOnUse" id="q" x1="298.744" x2="330.252" y1="86.989" y2="55.486">
      <stop offset=".26" stop-color="#fff" stop-opacity="0"/>
      <stop offset=".32" stop-color="#fff" stop-opacity=".03"/>
      <stop offset=".42" stop-color="#fff" stop-opacity=".11"/>
      <stop offset=".53" stop-color="#fff" stop-opacity=".24"/>
      <stop offset=".67" stop-color="#fff" stop-opacity=".43"/>
      <stop offset=".82" stop-color="#fff" stop-opacity=".67"/>
      <stop offset=".97" stop-color="#fff" stop-opacity=".95"/>
      <stop offset="1" stop-color="#fff"/>
    </linearGradient>
    <linearGradient gradientUnits="userSpaceOnUse" id="r" x1="295.229" x2="288.681" y1="80.402" y2="111.989">
      <stop stop-color="#7ADBFC"/>
      <stop offset=".14" stop-color="#40B7FD"/>
      <stop offset=".27" stop-color="#119BFE"/>
      <stop offset=".34" stop-color="#0091FF"/>
      <stop offset=".42" stop-color="#0077E7"/>
      <stop offset=".66" stop-color="#002DA1"/>
      <stop offset=".85" stop-color="#00195D"/>
      <stop offset="1" stop-color="#000C2C"/>
    </linearGradient>
    <linearGradient gradientUnits="userSpaceOnUse" id="t" x1="293.987" x2="287.026" y1="76.701" y2="104.199">
      <stop stop-color="#75EEFF"/>
      <stop offset=".563" stop-color="#1433D6"/>
      <stop offset="1" stop-color="#000C2A"/>
    </linearGradient>
    <linearGradient gradientUnits="userSpaceOnUse" id="u" x1="208.324" x2="228.618" y1="70.795" y2="58.955">
      <stop stop-color="#310192"/>
      <stop offset="1" stop-color="#000C79"/>
    </linearGradient>
    <linearGradient gradientUnits="userSpaceOnUse" id="w" x1="373.066" x2="317.713" y1="105.709" y2="105.709">
      <stop stop-color="#00F4C8"/>
      <stop offset="1" stop-color="#fff"/>
    </linearGradient>
    <linearGradient gradientUnits="userSpaceOnUse" id="x" x1="257.682" x2="256.55" y1="89.959" y2="177.423">
      <stop stop-color="#0BE1FF"/>
      <stop offset=".531" stop-color="#1433D6"/>
      <stop offset="1" stop-color="#000C2A"/>
    </linearGradient>
    <linearGradient gradientUnits="userSpaceOnUse" id="z" x1="196.19" x2="146.488" y1="110.224" y2="102.774">
      <stop offset=".7" stop-color="#00C0FF"/>
      <stop offset="1" stop-color="#fff"/>
    </linearGradient>
    <linearGradient gradientUnits="userSpaceOnUse" id="B" x1="352.072" x2="316.217" y1="116.867" y2="109.028">
      <stop offset=".7" stop-color="#00C0FF"/>
      <stop offset="1" stop-color="#fff"/>
    </linearGradient>
    <linearGradient gradientUnits="userSpaceOnUse" id="C" x1="478.019" x2="452.485" y1="192.056" y2="184.066">
      <stop stop-color="#495C7F" stop-opacity="0"/>
      <stop offset=".08" stop-color="#4F6283" stop-opacity=".04"/>
      <stop offset=".23" stop-color="#627291" stop-opacity=".14"/>
      <stop offset=".41" stop-color="#818EA6" stop-opacity=".31"/>
      <stop offset=".63" stop-color="#ABB4C4" stop-opacity=".54"/>
      <stop offset=".87" stop-color="#E0E3E9" stop-opacity=".83"/>
      <stop offset="1" stop-color="#fff"/>
    </linearGradient>
    <linearGradient gradientUnits="userSpaceOnUse" id="D" x1="447.228" x2="471.182" y1="154.28" y2="161.777">
      <stop stop-color="#495C7F" stop-opacity="0"/>
      <stop offset=".08" stop-color="#5B6D8C" stop-opacity=".1"/>
      <stop offset=".4" stop-color="#A0AABC" stop-opacity=".48"/>
      <stop offset=".66" stop-color="#D3D8E0" stop-opacity=".76"/>
      <stop offset=".84" stop-color="#F2F4F6" stop-opacity=".93"/>
      <stop offset=".93" stop-color="#fff"/>
    </linearGradient>
    <linearGradient gradientUnits="userSpaceOnUse" id="F" x1="363.553" x2="368.323" y1="141.486" y2="154.257">
      <stop stop-color="#002C98"/>
      <stop offset=".13" stop-color="#012276"/>
      <stop offset=".27" stop-color="#021A58"/>
      <stop offset=".43" stop-color="#031341"/>
      <stop offset=".59" stop-color="#040E30"/>
      <stop offset=".77" stop-color="#040B27"/>
      <stop offset="1" stop-color="#050B24"/>
    </linearGradient>
    <linearGradient gradientUnits="userSpaceOnUse" id="G" x1="374.736" x2="368.013" y1="139.042" y2="148.028">
      <stop stop-color="#B5FFF1"/>
      <stop offset="1" stop-color="#05F4C9"/>
    </linearGradient>
    <linearGradient gradientUnits="userSpaceOnUse" id="I" x1="323.144" x2="326.928" y1="128.865" y2="143.698">
      <stop stop-color="#002C98"/>
      <stop offset=".13" stop-color="#012276"/>
      <stop offset=".27" stop-color="#021A58"/>
      <stop offset=".43" stop-color="#031341"/>
      <stop offset=".59" stop-color="#040E30"/>
      <stop offset=".77" stop-color="#040B27"/>
      <stop offset="1" stop-color="#050B24"/>
    </linearGradient>
    <linearGradient gradientUnits="userSpaceOnUse" id="J" x1="335.209" x2="327.654" y1="127.583" y2="137.676">
      <stop stop-color="#B5FFF1"/>
      <stop offset="1" stop-color="#05F4C9"/>
    </linearGradient>
    <linearGradient gradientUnits="userSpaceOnUse" id="L" x1="276.279" x2="278.419" y1="116.027" y2="132.843">
      <stop stop-color="#002C98"/>
      <stop offset=".13" stop-color="#012276"/>
      <stop offset=".27" stop-color="#021A58"/>
      <stop offset=".43" stop-color="#031341"/>
      <stop offset=".59" stop-color="#040E30"/>
      <stop offset=".77" stop-color="#040B27"/>
      <stop offset="1" stop-color="#050B24"/>
    </linearGradient>
    <linearGradient gradientUnits="userSpaceOnUse" id="M" x1="288.35" x2="279.982" y1="114.392" y2="125.576">
      <stop stop-color="#B5FFF1"/>
      <stop offset="1" stop-color="#05F4C9"/>
    </linearGradient>
    <linearGradient gradientUnits="userSpaceOnUse" id="O" x1="215.902" x2="218.599" y1="101.962" y2="120.279">
      <stop stop-color="#002C98"/>
      <stop offset=".13" stop-color="#012276"/>
      <stop offset=".27" stop-color="#021A58"/>
      <stop offset=".43" stop-color="#031341"/>
      <stop offset=".59" stop-color="#040E30"/>
      <stop offset=".77" stop-color="#040B27"/>
      <stop offset="1" stop-color="#050B24"/>
    </linearGradient>
    <linearGradient gradientUnits="userSpaceOnUse" id="P" x1="229.082" x2="219.946" y1="98.733" y2="110.946">
      <stop stop-color="#B5FFF1"/>
      <stop offset="1" stop-color="#05F4C9"/>
    </linearGradient>
    <linearGradient gradientUnits="userSpaceOnUse" id="R" x1="258.732" x2="257.605" y1="89.695" y2="177.16">
      <stop stop-color="#0BE1FF"/>
      <stop offset=".531" stop-color="#1433D6"/>
      <stop offset="1" stop-color="#000C2A"/>
    </linearGradient>
    <linearGradient gradientUnits="userSpaceOnUse" id="T" x1="212.712" x2="170.821" y1="-3.235" y2="14.966">
      <stop stop-color="#fff" stop-opacity="0"/>
      <stop offset=".291" stop-color="#00F4C8"/>
      <stop offset=".833" stop-color="#00F4C8" stop-opacity="0"/>
    </linearGradient>
    <linearGradient gradientUnits="userSpaceOnUse" id="U" x1="315.852" x2="282.642" y1="44.003" y2="57.962">
      <stop stop-color="#fff" stop-opacity="0"/>
      <stop offset=".291" stop-color="#00F4C8"/>
      <stop offset=".833" stop-color="#00F4C8" stop-opacity="0"/>
    </linearGradient>
    <linearGradient gradientUnits="userSpaceOnUse" id="V" x1="416.839" x2="85.371" y1="151.943" y2="51.645">
      <stop offset=".01" stop-color="#00F4C8" stop-opacity="0"/>
      <stop offset=".419" stop-color="#00F4C8"/>
      <stop offset=".834" stop-color="#fff" stop-opacity="0"/>
    </linearGradient>
    <linearGradient gradientUnits="userSpaceOnUse" id="W" x1="418.842" x2="79.672" y1="174.684" y2="104.589">
      <stop offset=".01" stop-color="#00F4C8" stop-opacity="0"/>
      <stop offset=".419" stop-color="#00F4C8"/>
      <stop offset=".834" stop-color="#fff" stop-opacity="0"/>
    </linearGradient>
    <linearGradient gradientUnits="userSpaceOnUse" id="X" x1="143.846" x2="95.067" y1="32.533" y2="102.9">
      <stop stop-color="#fff"/>
      <stop offset="1" stop-color="#fff" stop-opacity="0"/>
    </linearGradient>
    <linearGradient gradientUnits="userSpaceOnUse" id="Z" x1="447.777" x2="574.2" y1="166.414" y2="199.454">
      <stop stop-color="#fff" stop-opacity="0"/>
      <stop offset=".47" stop-color="#fff" stop-opacity=".2"/>
      <stop offset="1" stop-color="#fff" stop-opacity="0"/>
    </linearGradient>
    <linearGradient gradientUnits="userSpaceOnUse" id="aa" x1="379.781" x2="382.742" y1="196.009" y2="194.407">
      <stop stop-color="#050B24"/>
      <stop offset=".24" stop-color="#040E30"/>
      <stop offset=".66" stop-color="#01237C"/>
      <stop offset=".94" stop-color="#002C9B"/>
    </linearGradient>
    <linearGradient gradientUnits="userSpaceOnUse" id="ab" x1="383.769" x2="384.438" y1="202.234" y2="205.286">
      <stop stop-color="#050B24"/>
      <stop offset=".24" stop-color="#040E30"/>
      <stop offset=".66" stop-color="#01237C"/>
      <stop offset=".94" stop-color="#002C9B"/>
    </linearGradient>
    <linearGradient gradientUnits="userSpaceOnUse" id="ac" x1="379.222" x2="380.259" y1="196.351" y2="199.791">
      <stop stop-color="#050B24"/>
      <stop offset=".24" stop-color="#040E30"/>
      <stop offset=".66" stop-color="#01237C"/>
      <stop offset=".94" stop-color="#002C9B"/>
    </linearGradient>
    <linearGradient gradientUnits="userSpaceOnUse" id="ad" x1="380.597" x2="376.836" y1="190.253" y2="200.938">
      <stop offset=".058" stop-color="#002C9B"/>
      <stop offset=".431" stop-color="#0045C4"/>
      <stop offset="1" stop-color="#0069FF"/>
    </linearGradient>
    <linearGradient gradientUnits="userSpaceOnUse" id="ae" x1="315.566" x2="317.881" y1="183.047" y2="191.216">
      <stop offset=".33" stop-color="#040E30"/>
      <stop offset=".35" stop-color="#041038"/>
      <stop offset=".43" stop-color="#031855"/>
      <stop offset=".51" stop-color="#021E6B"/>
      <stop offset=".59" stop-color="#012278"/>
      <stop offset=".67" stop-color="#01237C"/>
    </linearGradient>
    <linearGradient gradientUnits="userSpaceOnUse" id="af" x1="322.629" x2="341.986" y1="179.097" y2="193.818">
      <stop stop-color="#F9FDF6"/>
      <stop offset="1" stop-color="#80D34A"/>
    </linearGradient>
    <linearGradient gradientUnits="userSpaceOnUse" id="ag" x1="315.744" x2="341.064" y1="199.801" y2="209.482">
      <stop stop-color="#050B24"/>
      <stop offset=".53" stop-color="#01237C"/>
      <stop offset=".91" stop-color="#002C9B"/>
    </linearGradient>
    <linearGradient gradientUnits="userSpaceOnUse" id="ah" x1="338.594" x2="334.063" y1="195.012" y2="188.923">
      <stop stop-color="#050B24"/>
      <stop offset=".53" stop-color="#01237C"/>
      <stop offset=".91" stop-color="#002C9B"/>
    </linearGradient>
    <linearGradient gradientUnits="userSpaceOnUse" id="ai" x1="314.863" x2="340.183" y1="202.11" y2="211.79">
      <stop stop-color="#050B24"/>
      <stop offset=".53" stop-color="#01237C"/>
      <stop offset=".91" stop-color="#002C9B"/>
    </linearGradient>
    <linearGradient gradientUnits="userSpaceOnUse" id="aj" x1="336.343" x2="331.887" y1="196.721" y2="190.733">
      <stop stop-color="#050B24"/>
      <stop offset=".53" stop-color="#01237C"/>
      <stop offset=".91" stop-color="#002C9B"/>
    </linearGradient>
    <linearGradient gradientUnits="userSpaceOnUse" id="ak" x1="329.096" x2="338.567" y1="184.285" y2="189.031">
      <stop offset=".08" stop-color="#040E30"/>
      <stop offset=".23" stop-color="#03164C"/>
      <stop offset=".45" stop-color="#01237C"/>
      <stop offset=".74" stop-color="#002C9B"/>
    </linearGradient>
    <linearGradient gradientUnits="userSpaceOnUse" id="al" x1="240.554" x2="241.572" y1="191.248" y2="183.921">
      <stop stop-color="#050B24"/>
      <stop offset=".24" stop-color="#040E30"/>
      <stop offset=".66" stop-color="#01237C"/>
      <stop offset=".94" stop-color="#002C9B"/>
    </linearGradient>
    <linearGradient gradientUnits="userSpaceOnUse" id="am" x1="256.805" x2="263.097" y1="192.3" y2="195.095">
      <stop stop-color="#050B24"/>
      <stop offset=".24" stop-color="#040E30"/>
      <stop offset=".66" stop-color="#01237C"/>
      <stop offset=".94" stop-color="#002C9B"/>
    </linearGradient>
    <linearGradient gradientUnits="userSpaceOnUse" id="an" x1="240.433" x2="247.894" y1="192.684" y2="195.332">
      <stop stop-color="#050B24"/>
      <stop offset=".24" stop-color="#040E30"/>
      <stop offset=".66" stop-color="#01237C"/>
      <stop offset=".94" stop-color="#002C9B"/>
    </linearGradient>
    <linearGradient gradientUnits="userSpaceOnUse" id="ao" x1="231.391" x2="245.413" y1="182.306" y2="202.921">
      <stop offset=".058" stop-color="#002C9B"/>
      <stop offset=".431" stop-color="#0045C4"/>
      <stop offset="1" stop-color="#0069FF"/>
    </linearGradient>
    <linearGradient gradientUnits="userSpaceOnUse" id="ap" x1="59.709" x2="73.28" y1="115.948" y2="112.591">
      <stop stop-color="#050B24"/>
      <stop offset=".24" stop-color="#040E30"/>
      <stop offset=".66" stop-color="#01237C"/>
      <stop offset=".94" stop-color="#002C9B"/>
    </linearGradient>
    <linearGradient gradientUnits="userSpaceOnUse" id="aq" x1="77.727" x2="89.251" y1="115.488" y2="110.602">
      <stop stop-color="#050B24"/>
      <stop offset=".37" stop-color="#01237C"/>
      <stop offset=".91" stop-color="#002C9B"/>
    </linearGradient>
    <linearGradient gradientUnits="userSpaceOnUse" id="ar" x1="62.458" x2="70.318" y1="124.368" y2="121.732">
      <stop stop-color="#050B24"/>
      <stop offset=".24" stop-color="#040E30"/>
      <stop offset=".66" stop-color="#01237C"/>
      <stop offset=".94" stop-color="#002C9B"/>
    </linearGradient>
    <linearGradient gradientUnits="userSpaceOnUse" id="as" x1="63.154" x2="74.181" y1="124.41" y2="121.877">
      <stop offset=".09" stop-color="#F7DCFF"/>
      <stop offset=".74" stop-color="#D183FD"/>
    </linearGradient>
    <linearGradient gradientUnits="userSpaceOnUse" id="at" x1="86.558" x2="67.972" y1="112.921" y2="123.527">
      <stop offset=".22" stop-color="#D183FD"/>
      <stop offset=".72" stop-color="#7731EE"/>
    </linearGradient>
    <linearGradient gradientUnits="userSpaceOnUse" id="au" x1="81.769" x2="62.165" y1="119.251" y2="130.438">
      <stop stop-color="#F7DCFF"/>
      <stop offset="1" stop-color="#D183FD"/>
    </linearGradient>
    <linearGradient gradientUnits="userSpaceOnUse" id="av" x1="71.418" x2="61.895" y1="120.688" y2="112.824">
      <stop stop-color="#F7DCFF"/>
      <stop offset="1" stop-color="#965AFA"/>
    </linearGradient>
    <linearGradient gradientUnits="userSpaceOnUse" id="aw" x1="66" x2="76.623" y1="123.334" y2="118.779">
      <stop stop-color="#050B24"/>
      <stop offset=".24" stop-color="#040E30"/>
      <stop offset=".66" stop-color="#01237C"/>
      <stop offset=".94" stop-color="#002C9B"/>
    </linearGradient>
    <linearGradient gradientUnits="userSpaceOnUse" id="ax" x1="156.604" x2="171.587" y1="163.386" y2="173.845">
      <stop stop-color="#050B24"/>
      <stop offset=".24" stop-color="#040E30"/>
      <stop offset=".66" stop-color="#01237C"/>
      <stop offset=".94" stop-color="#002C9B"/>
    </linearGradient>
    <linearGradient gradientUnits="userSpaceOnUse" id="ay" x1="185.644" x2="187.188" y1="185.956" y2="175.807">
      <stop stop-color="#050B24"/>
      <stop offset=".37" stop-color="#01237C"/>
      <stop offset=".91" stop-color="#002C9B"/>
    </linearGradient>
    <linearGradient gradientUnits="userSpaceOnUse" id="az" x1="151.834" x2="139.217" y1="164.927" y2="175.058">
      <stop offset=".1" stop-color="#F9FDF6"/>
      <stop offset=".58" stop-color="#D5F0C3"/>
      <stop offset="1" stop-color="#80D34A"/>
    </linearGradient>
    <linearGradient gradientUnits="userSpaceOnUse" id="aA" x1="181.096" x2="152.237" y1="185.335" y2="164.983">
      <stop offset=".02" stop-color="#D5F0C3"/>
      <stop offset=".57" stop-color="#80D34A"/>
    </linearGradient>
    <linearGradient gradientUnits="userSpaceOnUse" id="aB" x1="158.303" x2="159.452" y1="174.531" y2="171.222">
      <stop offset=".02" stop-color="#F9FDF6"/>
      <stop offset=".81" stop-color="#307A00"/>
    </linearGradient>
    <linearGradient gradientUnits="userSpaceOnUse" id="aC" x1="161.827" x2="162.789" y1="175.832" y2="173.063">
      <stop offset=".02" stop-color="#D5F0C3"/>
      <stop offset=".81" stop-color="#307A00"/>
    </linearGradient>
    <linearGradient gradientUnits="userSpaceOnUse" id="aD" x1="164.301" x2="165.196" y1="177.554" y2="174.981">
      <stop offset=".02" stop-color="#00BFFF" stop-opacity="0"/>
      <stop offset=".81" stop-color="#307A00"/>
    </linearGradient>
    <linearGradient gradientUnits="userSpaceOnUse" id="aE" x1="153.2" x2="181.595" y1="170.467" y2="190.274">
      <stop offset=".02" stop-color="#D5F0C3"/>
      <stop offset=".57" stop-color="#80D34A"/>
    </linearGradient>
    <linearGradient gradientUnits="userSpaceOnUse" id="aF" x1="153.147" x2="181.578" y1="170.541" y2="190.389">
      <stop offset=".02" stop-color="#D5F0C3"/>
      <stop offset=".57" stop-color="#80D34A"/>
    </linearGradient>
    <linearGradient gradientUnits="userSpaceOnUse" id="aG" x1="152.862" x2="186.97" y1="169.376" y2="193.187">
      <stop offset=".02" stop-color="#D5F0C3"/>
      <stop offset=".57" stop-color="#80D34A"/>
    </linearGradient>
    <linearGradient gradientUnits="userSpaceOnUse" id="aH" x1="154.267" x2="187.866" y1="177.66" y2="186.312">
      <stop offset=".02" stop-color="#D5F0C3"/>
      <stop offset=".97" stop-color="#307A00"/>
    </linearGradient>
    <linearGradient gradientUnits="userSpaceOnUse" id="aI" x1="153.308" x2="165.878" y1="178.354" y2="187.13">
      <stop stop-color="#050B24"/>
      <stop offset=".24" stop-color="#040E30"/>
      <stop offset=".66" stop-color="#01237C"/>
      <stop offset=".94" stop-color="#002C9B"/>
    </linearGradient>
    <linearGradient gradientUnits="userSpaceOnUse" id="aK" x1="59.342" x2="72.194" y1="185.559" y2="196.607">
      <stop offset=".08" stop-color="#040E30"/>
      <stop offset=".23" stop-color="#03164C"/>
      <stop offset=".45" stop-color="#01237C"/>
      <stop offset=".74" stop-color="#002C9B"/>
    </linearGradient>
    <linearGradient gradientUnits="userSpaceOnUse" id="aL" x1="78.359" x2="95.207" y1="173.324" y2="173.737">
      <stop offset=".08" stop-color="#040E30"/>
      <stop offset=".23" stop-color="#03164C"/>
      <stop offset=".45" stop-color="#01237C"/>
      <stop offset=".74" stop-color="#002C9B"/>
    </linearGradient>
    <linearGradient gradientUnits="userSpaceOnUse" id="aM" x1="88.443" x2="104.754" y1="186.55" y2="179.386">
      <stop stop-color="#050B24"/>
      <stop offset=".37" stop-color="#01237C"/>
      <stop offset=".91" stop-color="#002C9B"/>
    </linearGradient>
    <linearGradient gradientUnits="userSpaceOnUse" id="aN" x1="70.478" x2="98.456" y1="177.21" y2="186.985">
      <stop stop-color="#FFF9F4"/>
      <stop offset="1" stop-color="#FFA14A"/>
    </linearGradient>
    <linearGradient gradientUnits="userSpaceOnUse" id="aQ" x1="202.476" x2="196.21" y1="41" y2="144.412">
      <stop stop-color="#fff" stop-opacity="0"/>
      <stop offset=".48" stop-color="#fff" stop-opacity=".2"/>
      <stop offset="1" stop-color="#fff" stop-opacity="0"/>
    </linearGradient>
    <filter color-interpolation-filters="sRGB" filterUnits="userSpaceOnUse" height="27.695" id="v" width="7" x="225.824" y="51.996">
      <feFlood flood-opacity="0" result="BackgroundImageFix"/>
      <feColorMatrix in="SourceAlpha" result="hardAlpha" values="0 0 0 0 0 0 0 0 0 0 0 0 0 0 0 0 0 0 127 0"/>
      <feOffset/>
      <feGaussianBlur stdDeviation="1.463"/>
      <feColorMatrix values="0 0 0 0 1 0 0 0 0 1 0 0 0 0 1 0 0 0 0.5 0"/>
      <feBlend in2="BackgroundImageFix" result="effect1_dropShadow_1538_160"/>
      <feBlend in="SourceGraphic" in2="effect1_dropShadow_1538_160" result="shape"/>
    </filter>
    <filter color-interpolation-filters="sRGB" filterUnits="userSpaceOnUse" height="28.527" id="y" width="66.193" x="94.558" y="85.826">
      <feFlood flood-opacity="0" result="BackgroundImageFix"/>
      <feColorMatrix in="SourceAlpha" result="hardAlpha" values="0 0 0 0 0 0 0 0 0 0 0 0 0 0 0 0 0 0 127 0"/>
      <feOffset/>
      <feGaussianBlur stdDeviation="3.659"/>
      <feColorMatrix values="0 0 0 0 1 0 0 0 0 1 0 0 0 0 1 0 0 0 0.75 0"/>
      <feBlend in2="BackgroundImageFix" result="effect1_dropShadow_1538_160"/>
      <feBlend in="SourceGraphic" in2="effect1_dropShadow_1538_160" result="shape"/>
    </filter>
    <filter color-interpolation-filters="sRGB" filterUnits="userSpaceOnUse" height="27.09" id="A" width="51.594" x="276.832" y="92.617">
      <feFlood flood-opacity="0" result="BackgroundImageFix"/>
      <feColorMatrix in="SourceAlpha" result="hardAlpha" values="0 0 0 0 0 0 0 0 0 0 0 0 0 0 0 0 0 0 127 0"/>
      <feOffset/>
      <feGaussianBlur stdDeviation="3.659"/>
      <feColorMatrix values="0 0 0 0 1 0 0 0 0 1 0 0 0 0 1 0 0 0 0.75 0"/>
      <feBlend in2="BackgroundImageFix" result="effect1_dropShadow_1538_160"/>
      <feBlend in="SourceGraphic" in2="effect1_dropShadow_1538_160" result="shape"/>
    </filter>
    <filter color-interpolation-filters="sRGB" filterUnits="userSpaceOnUse" height="19.208" id="E" width="22.456" x="414.805" y="129.081">
      <feFlood flood-opacity="0" result="BackgroundImageFix"/>
      <feColorMatrix in="SourceAlpha" result="hardAlpha" values="0 0 0 0 0 0 0 0 0 0 0 0 0 0 0 0 0 0 127 0"/>
      <feOffset/>
      <feGaussianBlur stdDeviation="2.195"/>
      <feColorMatrix values="0 0 0 0 1 0 0 0 0 1 0 0 0 0 1 0 0 0 0.5 0"/>
      <feBlend in2="BackgroundImageFix" result="effect1_dropShadow_1538_160"/>
      <feBlend in="SourceGraphic" in2="effect1_dropShadow_1538_160" result="shape"/>
    </filter>
    <filter color-interpolation-filters="sRGB" filterUnits="userSpaceOnUse" height="15.365" id="H" width="15.784" x="357.98" y="136.58">
      <feFlood flood-opacity="0" result="BackgroundImageFix"/>
      <feColorMatrix in="SourceAlpha" result="hardAlpha" values="0 0 0 0 0 0 0 0 0 0 0 0 0 0 0 0 0 0 127 0"/>
      <feOffset/>
      <feGaussianBlur stdDeviation="1.463"/>
      <feColorMatrix values="0 0 0 0 1 0 0 0 0 1 0 0 0 0 1 0 0 0 0.5 0"/>
      <feBlend in2="BackgroundImageFix" result="effect1_dropShadow_1538_160"/>
      <feBlend in="SourceGraphic" in2="effect1_dropShadow_1538_160" result="shape"/>
    </filter>
    <filter color-interpolation-filters="sRGB" filterUnits="userSpaceOnUse" height="16.541" id="K" width="17.003" x="316.756" y="125.152">
      <feFlood flood-opacity="0" result="BackgroundImageFix"/>
      <feColorMatrix in="SourceAlpha" result="hardAlpha" values="0 0 0 0 0 0 0 0 0 0 0 0 0 0 0 0 0 0 127 0"/>
      <feOffset/>
      <feGaussianBlur stdDeviation="1.463"/>
      <feColorMatrix values="0 0 0 0 1 0 0 0 0 1 0 0 0 0 1 0 0 0 0.5 0"/>
      <feBlend in2="BackgroundImageFix" result="effect1_dropShadow_1538_160"/>
      <feBlend in="SourceGraphic" in2="effect1_dropShadow_1538_160" result="shape"/>
    </filter>
    <filter color-interpolation-filters="sRGB" filterUnits="userSpaceOnUse" height="17.689" id="N" width="18.206" x="268.214" y="111.998">
      <feFlood flood-opacity="0" result="BackgroundImageFix"/>
      <feColorMatrix in="SourceAlpha" result="hardAlpha" values="0 0 0 0 0 0 0 0 0 0 0 0 0 0 0 0 0 0 127 0"/>
      <feOffset/>
      <feGaussianBlur stdDeviation="1.463"/>
      <feColorMatrix values="0 0 0 0 1 0 0 0 0 1 0 0 0 0 1 0 0 0 0.5 0"/>
      <feBlend in2="BackgroundImageFix" result="effect1_dropShadow_1538_160"/>
      <feBlend in="SourceGraphic" in2="effect1_dropShadow_1538_160" result="shape"/>
    </filter>
    <filter color-interpolation-filters="sRGB" filterUnits="userSpaceOnUse" height="18.78" id="Q" width="19.346" x="207.35" y="96.389">
      <feFlood flood-opacity="0" result="BackgroundImageFix"/>
      <feColorMatrix in="SourceAlpha" result="hardAlpha" values="0 0 0 0 0 0 0 0 0 0 0 0 0 0 0 0 0 0 127 0"/>
      <feOffset/>
      <feGaussianBlur stdDeviation="1.463"/>
      <feColorMatrix values="0 0 0 0 1 0 0 0 0 1 0 0 0 0 1 0 0 0 0.5 0"/>
      <feBlend in2="BackgroundImageFix" result="effect1_dropShadow_1538_160"/>
      <feBlend in="SourceGraphic" in2="effect1_dropShadow_1538_160" result="shape"/>
    </filter>
    <filter color-interpolation-filters="sRGB" filterUnits="userSpaceOnUse" height="123.164" id="Y" width="171.23" x="28.266" y="13.514">
      <feFlood flood-opacity="0" result="BackgroundImageFix"/>
      <feColorMatrix in="SourceAlpha" result="hardAlpha" values="0 0 0 0 0 0 0 0 0 0 0 0 0 0 0 0 0 0 127 0"/>
      <feOffset/>
      <feGaussianBlur stdDeviation="17.561"/>
      <feColorMatrix values="0 0 0 0 1 0 0 0 0 1 0 0 0 0 1 0 0 0 0.9 0"/>
      <feBlend in2="BackgroundImageFix" result="effect1_dropShadow_1538_160"/>
      <feBlend in="SourceGraphic" in2="effect1_dropShadow_1538_160" result="shape"/>
    </filter>
    <filter color-interpolation-filters="sRGB" filterUnits="userSpaceOnUse" height="11.771" id="aJ" width="24.977" x="136.893" y="158.467">
      <feFlood flood-opacity="0" result="BackgroundImageFix"/>
      <feColorMatrix in="SourceAlpha" result="hardAlpha" values="0 0 0 0 0 0 0 0 0 0 0 0 0 0 0 0 0 0 127 0"/>
      <feOffset/>
      <feGaussianBlur stdDeviation="1.843"/>
      <feColorMatrix values="0 0 0 0 1 0 0 0 0 1 0 0 0 0 1 0 0 0 1 0"/>
      <feBlend in2="BackgroundImageFix" result="effect1_dropShadow_1538_160"/>
      <feBlend in="SourceGraphic" in2="effect1_dropShadow_1538_160" result="shape"/>
    </filter>
    <filter color-interpolation-filters="sRGB" filterUnits="userSpaceOnUse" height="57.675" id="aO" width="57.672" x="83.829" y="19.828">
      <feFlood flood-opacity="0" result="BackgroundImageFix"/>
      <feColorMatrix in="SourceAlpha" result="hardAlpha" values="0 0 0 0 0 0 0 0 0 0 0 0 0 0 0 0 0 0 127 0"/>
      <feOffset/>
      <feGaussianBlur stdDeviation="3.659"/>
      <feColorMatrix values="0 0 0 0 1 0 0 0 0 1 0 0 0 0 1 0 0 0 0.75 0"/>
      <feBlend in2="BackgroundImageFix" result="effect1_dropShadow_1538_160"/>
      <feBlend in="SourceGraphic" in2="effect1_dropShadow_1538_160" result="shape"/>
    </filter>
    <filter color-interpolation-filters="sRGB" filterUnits="userSpaceOnUse" height="21.682" id="aP" width="21.682" x="117.637" y="19.293">
      <feFlood flood-opacity="0" result="BackgroundImageFix"/>
      <feColorMatrix in="SourceAlpha" result="hardAlpha" values="0 0 0 0 0 0 0 0 0 0 0 0 0 0 0 0 0 0 127 0"/>
      <feOffset/>
      <feGaussianBlur stdDeviation="3.659"/>
      <feColorMatrix values="0 0 0 0 1 0 0 0 0 1 0 0 0 0 1 0 0 0 0.75 0"/>
      <feBlend in2="BackgroundImageFix" result="effect1_dropShadow_1538_160"/>
      <feBlend in="SourceGraphic" in2="effect1_dropShadow_1538_160" result="shape"/>
    </filter>
    <clipPath id="a">
      <path d="M0 0h544v216H0z" fill="#fff"/>
    </clipPath>
    <clipPath id="b">
      <path d="M0 0h544v216H0z" fill="#fff"/>
    </clipPath>
  </defs>
</svg>