<?xml version="1.0" encoding="utf-8"?>
<svg xmlns="http://www.w3.org/2000/svg" fill="none" height="609" viewBox="0 0 1057 609" width="1057">
  <linearGradient gradientUnits="userSpaceOnUse" id="a" x1="-151.287" x2="1348.31" y1="652.828" y2="-122.32">
    <stop offset="0" stop-color="#1433d4"/>
    <stop offset=".99" stop-color="#89e2d8"/>
  </linearGradient>
  <linearGradient id="b">
    <stop offset="0" stop-color="#c4e2ff"/>
    <stop offset=".11" stop-color="#b5d9ff"/>
    <stop offset=".33" stop-color="#90c2ff"/>
    <stop offset=".63" stop-color="#539eff"/>
    <stop offset="1" stop-color="#006cff"/>
  </linearGradient>
  <linearGradient gradientUnits="userSpaceOnUse" href="#b" id="c" x1="132.498" x2="218.696" y1="-556.42" y2="290.463"/>
  <linearGradient gradientUnits="userSpaceOnUse" href="#b" id="d" x1="653.577" x2="653.577" y1="-261.035" y2="226.833"/>
  <linearGradient gradientUnits="userSpaceOnUse" id="e" x1="740.306" x2="70.1648" y1="190.833" y2="863.099">
    <stop offset=".23" stop-color="#bde1ff"/>
    <stop offset="1" stop-color="#006bff"/>
  </linearGradient>
  <linearGradient gradientUnits="userSpaceOnUse" href="#b" id="f" x1="653.528" x2="653.528" y1="491.868" y2="310.351"/>
  <linearGradient gradientUnits="userSpaceOnUse" href="#b" id="g" x1="653.528" x2="653.528" y1="118.049" y2="289.339"/>
  <linearGradient gradientUnits="userSpaceOnUse" href="#b" id="h" x1="655.66" x2="655.66" y1="13.8986" y2="129.796"/>
  <clipPath id="i">
    <path d="m0 0h1057v608.576h-1057z"/>
  </clipPath>
  <mask height="609" id="j" maskUnits="userSpaceOnUse" width="1057" x="0" y="0">
    <path d="m1057 .98732h-1056.492188v607.58868h1056.492188z" fill="#fff"/>
  </mask>
  <g clip-path="url(#i)">
    <path d="m1056.49 0h-1056.49v607.588h1056.49z" fill="url(#a)"/>
    <g mask="url(#j)">
      <path d="m937.574 676.285-736.805 74.994c-32.011 3.258-60.636-19.989-63.904-51.898l-51.0422-498.316c-.5262-5.137 3.2168-9.717 8.3709-10.242l785.4663-79.947z" fill="#002f9a"/>
      <path d="m971.053 648.383-749.413 76.277-57.914-565.409 738.296-75.1455c6.139-.6249 11.625 3.8301 12.252 9.9501z" fill="#c4e2ff"/>
      <path d="m199.312 95.7712c23.34-2.3797 44.19 14.5568 46.578 37.8228l45.688 446.197c-2.388-23.265-23.238-40.202-46.577-37.822-23.34 2.38-40.33 23.164-37.943 46.404l-45.688-446.197c-2.387-23.266 14.603-44.0504 37.942-46.4301z" fill="url(#c)"/>
      <g fill="#4895ff" opacity=".2">
        <path d="m318.472 530.501c1.676-2.709 3.632-5.443 5.917-8.228 35.733-43.747 77.587-9.848 113.345-53.569 35.733-43.747-6.019-77.746 29.739-121.467 35.758-43.747 77.586-9.848 113.344-53.569 35.733-43.747-6.019-77.746 29.74-121.467 26.971-32.987 57.395-21.823 86.068-33.114l-413.886 42.126 35.784 349.313z" opacity=".8"/>
        <path d="m454.292 578.222c-48.431-39.342-88.151-9.848-133.23-22.633l9.321 91.113 156.671-15.949c-4.115-18.051-12.14-35.772-32.787-52.531z"/>
        <path d="m765.246 231.921c7.67 74.962 79.339 67.772 87.034 142.733 7.67 74.961-63.974 82.354-56.279 157.34 3.277 31.949 18.159 48.962 34.768 63.797l102.094-10.38-47.669-465.514-73.853 7.519c-17.93 32.658-51.453 52.025-46.069 104.531z" opacity=".8"/>
      </g>
    </g>
    <path d="m567.992 536.728c97.369 0 176.302-78.683 176.302-175.745 0-97.061-78.933-175.744-176.302-175.744s-176.303 78.683-176.303 175.744c0 97.062 78.934 175.745 176.303 175.745z" fill="#002f9a"/>
    <path d="m653.578 453.666c97.369 0 176.302-78.684 176.302-175.745s-78.933-175.745-176.302-175.745-176.303 78.684-176.303 175.745 78.934 175.745 176.303 175.745z" fill="url(#d)"/>
    <path d="m653.628 417.793c77.887 0 141.026-62.94 141.026-140.581 0-77.64-63.139-140.581-141.026-140.581s-141.026 62.941-141.026 140.581c0 77.641 63.139 140.581 141.026 140.581z" fill="url(#e)"/>
    <path d="m657.083 341.135 9.296-59.771c.33-2.177-1.346-4.127-3.556-4.127h-18.616c-2.209 0-3.885 1.95-3.555 4.127l9.295 59.771c.635 4.051 6.476 4.051 7.111 0z" fill="url(#f)"/>
    <path d="m649.998 213.314-9.295 59.772c-.33 2.177 1.346 4.126 3.555 4.126h18.616c2.209 0 3.886-1.949 3.555-4.126l-9.295-59.772c-.635-4.05-6.476-4.05-7.111 0z" fill="url(#g)"/>
    <path d="m653.527 293.187c10.155 0 18.387-8.206 18.387-18.329s-8.232-18.329-18.387-18.329-18.387 8.206-18.387 18.329 8.232 18.329 18.387 18.329z" fill="#002f9a"/>
    <path d="m794.656 277.212c0-77.645-63.136-140.581-141.027-140.581-34.844 0-66.716 12.633-91.325 33.494 23.212-16.734 51.707-26.633 82.538-26.633 77.891 0 141.027 62.936 141.027 140.581 0 42.911-19.302 81.315-49.727 107.087 35.428-25.544 58.488-67.062 58.488-113.973z" fill="#002f9a"/>
    <path d="m655.66 32.8098c-19.402 0-35.174 15.7466-35.174 35.0629 0 19.3162 15.772 35.0633 35.174 35.0633 19.403 0 35.174-15.7217 35.174-35.0633s-15.771-35.0629-35.174-35.0629zm0 62.5563c7.162 0 12.978-5.7974 12.978-12.9366s-5.816-12.9366-12.978-12.9366c-7.161 0-12.977 5.7974-12.977 12.9366s5.816 12.9366 12.977 12.9366c-15.212 0-27.555-12.329-27.555-27.4681s12.368-27.468 27.555-27.468 27.555 12.3289 27.555 27.468-12.368 27.4681-27.555 27.4681z" fill="url(#h)"/>
    <g stroke="#4895ff" stroke-miterlimit="10">
      <path d="m551.965 200.808 8.304 8.278" stroke-width="2.00189"/>
      <path d="m737.385 200.808-8.305 8.278" stroke-width="2.00189"/>
      <path d="m551.965 360.983 7.924-4.658" stroke-width="1.46138"/>
      <path d="m729.08 360.983-7.924-4.658" stroke-width="1.46138"/>
    </g>
    <path d="m651.622 173.176h-3.639v-17.717h5.789l5.934 16.371-.625.157v-16.528h3.628v17.717h-5.826l-5.933-16.324.672-.156z" fill="#006cff"/>
    <path d="m654.927 393.943c-1.281 0-2.41-.205-3.387-.613-.969-.408-1.73-1.017-2.282-1.826-.545-.817-.817-1.83-.817-3.039 0-.128 0-.244 0-.348 0-.112 0-.232 0-.36h3.736v.324.312c0 .825.232 1.458.696 1.898.465.44 1.153.661 2.066.661.921 0 1.63-.144 2.126-.433.497-.296.745-.78.745-1.453 0-.473-.188-.889-.565-1.249-.368-.361-.873-.681-1.513-.961-.633-.288-1.357-.557-2.174-.805-.889-.28-1.714-.649-2.475-1.105-.76-.456-1.373-1.037-1.837-1.742-.457-.704-.685-1.573-.685-2.606 0-1.041.276-1.926.829-2.655.552-.736 1.305-1.297 2.258-1.681.953-.393 2.03-.589 3.231-.589 1.257 0 2.366.196 3.327.589.969.384 1.726.965 2.27 1.741.553.769.829 1.73.829 2.883v.36.361h-3.723c0-.088 0-.18 0-.276 0-.097 0-.189 0-.277 0-.776-.217-1.373-.649-1.789-.424-.417-1.093-.625-2.006-.625-.881 0-1.565.16-2.054.48-.48.321-.721.813-.721 1.478 0 .48.173.889.517 1.225.352.336.833.637 1.441.901.609.264 1.302.528 2.078.793 1.057.368 1.978.776 2.763 1.225.793.44 1.405.997 1.838 1.669.432.665.648 1.514.648 2.547 0 1.057-.272 1.958-.816 2.702-.545.745-1.31 1.314-2.295 1.706-.977.384-2.11.577-3.399.577z" fill="#006cff"/>
    <path d="m528.246 277.921h11.809" stroke="#4895ff" stroke-miterlimit="10" stroke-width="2.00189"/>
    <path d="m756.764 277.921h11.809" stroke="#4895ff" stroke-miterlimit="10" stroke-width="2.00189"/>
  </g>
</svg>